<?xml version="1.0" encoding="UTF-8" standalone="no"?>
<!-- Created with Inkscape (http://www.inkscape.org/) -->

<svg
   xmlns:dc="http://purl.org/dc/elements/1.1/"
   xmlns:cc="http://creativecommons.org/ns#"
   xmlns:rdf="http://www.w3.org/1999/02/22-rdf-syntax-ns#"
   xmlns:svg="http://www.w3.org/2000/svg"
   xmlns="http://www.w3.org/2000/svg"
   xmlns:sodipodi="http://sodipodi.sourceforge.net/DTD/sodipodi-0.dtd"
   xmlns:inkscape="http://www.inkscape.org/namespaces/inkscape"
   width="210mm"
   height="297mm"
   viewBox="0 0 744.09448819 1052.3622047"
   id="svg7190"
   version="1.1"
   inkscape:version="0.91 r13725"
   sodipodi:docname="monkey.svg">
  <defs
     id="defs7192" />
  <sodipodi:namedview
     id="base"
     pagecolor="#ffffff"
     bordercolor="#666666"
     borderopacity="1.0"
     inkscape:pageopacity="0.0"
     inkscape:pageshadow="2"
     inkscape:zoom="1.1303702"
     inkscape:cx="253.10938"
     inkscape:cy="673.24632"
     inkscape:document-units="px"
     inkscape:current-layer="layer1"
     showgrid="false"
     inkscape:window-width="1228"
     inkscape:window-height="767"
     inkscape:window-x="2015"
     inkscape:window-y="120"
     inkscape:window-maximized="0" />
  <metadata
     id="metadata7195">
    <rdf:RDF>
      <cc:Work
         rdf:about="">
        <dc:format>image/svg+xml</dc:format>
        <dc:type
           rdf:resource="http://purl.org/dc/dcmitype/StillImage" />
        <dc:title />
      </cc:Work>
    </rdf:RDF>
  </metadata>
  <g
     inkscape:label="Layer 1"
     inkscape:groupmode="layer"
     id="layer1">
    <g
       id="g4201"
       inkscape:export-xdpi="72.982399"
       inkscape:export-ydpi="72.982399">
      <path
         sodipodi:nodetypes="aacaccccaca"
         inkscape:connector-curvature="0"
         id="rect4194"
         d="m 297.73192,360.42839 c 3.40972,-3.6067 11.28324,-3.40972 14.88994,0 8.63498,8.16339 2.39457,25.89134 2,35.5926 -0.66348,12.14208 -8.63259,23.44887 -8,35.5926 0.65132,12.5034 11.61546,24.89493 12,35.5926 0.0928,6.81275 -6,19.53969 -6,19.53969 l -14.88994,0 c 0,0 6.09284,-12.72694 6,-19.53969 -0.90908,-11.95869 -11.34868,-23.0892 -12,-35.5926 -0.63259,-12.14373 7.33652,-23.45052 8,-35.5926 0.43993,-9.23976 -10.16339,-26.95762 -2,-35.5926 z"
         style="opacity:1;fill:#ac6f27;fill-opacity:1;fill-rule:nonzero;stroke:#000000;stroke-width:3;stroke-linecap:round;stroke-linejoin:round;stroke-miterlimit:4;stroke-dasharray:none;stroke-opacity:1" />
      <g
         inkscape:export-ydpi="72.982399"
         inkscape:export-xdpi="72.982399"
         id="g8169">
        <g
           id="g8105"
           inkscape:export-xdpi="72.982399"
           inkscape:export-ydpi="72.982399">
          <path
             sodipodi:nodetypes="ccccccccccssc"
             inkscape:connector-curvature="0"
             id="path7738"
             d="m 308.0915,469.40973 c -18.03095,0.0209 -35.56311,2.53788 -49.94729,10.8737 -4.60708,0.51688 -13.13723,4.4263 -17.47275,10.82873 4.842,-2.17554 5.57972,-2.85054 8.59232,-2.90866 -11.74204,9.86263 -20.46273,19.10367 -27.30613,33.14731 0.73041,-0.5104 3.0836,-1.86445 5.16996,-3.05144 -0.99647,2.47418 -1.51327,4.32525 -1.79033,6.08331 -1.32858,1.68789 -2.3872,3.48369 -2.96489,5.34982 0.92227,-0.92187 1.81489,-1.72492 2.68946,-2.47049 -0.0605,1.64822 -0.0109,3.4522 -0.0111,5.8134 -6e-4,35.16234 23.28975,66.69729 83.04075,63.66763 74.17661,-3.76113 83.04293,-28.50482 83.04233,-63.66763 -8.1e-4,-35.16205 -37.18004,-63.66609 -83.04233,-63.66568 z"
             style="opacity:1;fill:#ac6f27;fill-opacity:1;fill-rule:nonzero;stroke:#000000;stroke-width:3;stroke-linecap:round;stroke-linejoin:round;stroke-miterlimit:4;stroke-dasharray:none;stroke-opacity:1" />
          <path
             id="rect7742"
             d="m 272.97638,502.8421 c -0.40016,-0.007 -0.79599,-0.005 -1.18884,0.006 -4.91917,0.13152 -9.25152,1.6726 -12.6167,5.70249 -14.63962,17.53135 -17.02709,52.55678 -2.38747,70.08813 23.93016,28.65702 88.34634,24.22176 112.2765,-4.43527 11.04148,-13.22245 8.98784,-32.72826 1.03534,-49.04213 2.92161,0.21078 6.57445,0.96725 10.89223,2.84732 -2.18402,-3.12561 -6.23032,-5.17454 -10.3517,-6.52382 1.32144,-0.5109 3.14094,-0.95036 4.94641,-0.48499 -2.29325,-3.28192 -4.96595,-3.37179 -9.29678,-4.71491 -1.71968,-2.74423 -3.59125,-5.34492 -5.58655,-7.73433 -11.96507,-14.32851 -26.58655,2.82386 -45.98578,2.82386 -13.50746,0 -29.33179,-8.31795 -41.73666,-8.53221 z"
             style="opacity:1;fill:#ffe8b6;fill-opacity:1;fill-rule:nonzero;stroke:#000000;stroke-width:2;stroke-linecap:round;stroke-linejoin:round;stroke-miterlimit:4;stroke-dasharray:none;stroke-opacity:1"
             inkscape:connector-curvature="0" />
          <ellipse
             ry="12.979708"
             rx="12.723754"
             cy="542.69843"
             cx="285.36111"
             id="path7747-3"
             style="opacity:1;fill:#432b0f;fill-opacity:1;fill-rule:nonzero;stroke:none;stroke-width:1;stroke-linecap:round;stroke-linejoin:round;stroke-miterlimit:4;stroke-dasharray:none;stroke-opacity:1" />
          <ellipse
             ry="12.849747"
             rx="12.596355"
             cy="542.82837"
             cx="337.64233"
             id="path7747"
             style="opacity:1;fill:#432b0f;fill-opacity:1;fill-rule:nonzero;stroke:none;stroke-width:1;stroke-linecap:round;stroke-linejoin:round;stroke-miterlimit:4;stroke-dasharray:none;stroke-opacity:1" />
          <ellipse
             ry="5.0681477"
             rx="6.0227108"
             cy="538.48462"
             cx="287.84619"
             id="path7749"
             style="opacity:1;fill:#fff8e7;fill-opacity:1;fill-rule:nonzero;stroke:none;stroke-width:1;stroke-linecap:round;stroke-linejoin:round;stroke-miterlimit:4;stroke-dasharray:none;stroke-opacity:1" />
          <ellipse
             ry="3.8345141"
             rx="4.4027843"
             cy="535.65033"
             cx="340.22519"
             id="path7749-3"
             style="opacity:1;fill:#fff8e7;fill-opacity:1;fill-rule:nonzero;stroke:none;stroke-width:1;stroke-linecap:round;stroke-linejoin:round;stroke-miterlimit:4;stroke-dasharray:none;stroke-opacity:1" />
          <path
             sodipodi:nodetypes="cscacscac"
             inkscape:connector-curvature="0"
             id="rect7766-0"
             d="m 328.59583,523.99272 c 0,0 0.78507,-12.92628 10.43357,-12.3369 7.04525,0.43036 9.07695,11.77305 9.07695,11.77305 0,0 -0.61197,2.42618 -1.30452,2.48637 -0.6107,0.0531 -1.30453,-1.97918 -1.30453,-1.97918 0,0 -0.65161,-8.80446 -6.4679,-8.93106 -5.81359,-0.12663 -7.82452,8.93106 -7.82452,8.93106 0,0 -0.64831,2.25476 -1.30452,2.26111 -0.64704,0.007 -1.30453,-2.20445 -1.30453,-2.20445 z"
             style="opacity:1;fill:#432b0f;fill-opacity:1;fill-rule:nonzero;stroke:none;stroke-width:1;stroke-linecap:round;stroke-linejoin:round;stroke-miterlimit:4;stroke-dasharray:none;stroke-opacity:1" />
          <g
             transform="matrix(1.2205315,0,0,1.2205315,-65.864851,-123.71682)"
             id="g8070">
            <path
               style="opacity:1;fill:#d64850;fill-opacity:1;fill-rule:nonzero;stroke:none;stroke-width:2;stroke-linecap:round;stroke-linejoin:round;stroke-miterlimit:4;stroke-dasharray:none;stroke-opacity:1"
               d="m 302.56364,563.19335 11.61317,0 c 0,0 3.23493,15.0903 0,18.96422 -3.23493,3.87392 -8.37823,3.87392 -11.61317,0 -3.23493,-3.87392 0,-18.96422 0,-18.96422 z"
               id="rect7961"
               inkscape:connector-curvature="0"
               sodipodi:nodetypes="cczzc" />
            <path
               style="opacity:1;fill:#ffe8b6;fill-opacity:1;fill-rule:nonzero;stroke:none;stroke-width:2;stroke-linecap:round;stroke-linejoin:round;stroke-miterlimit:4;stroke-dasharray:none;stroke-opacity:1"
               d="m 296.35046,562.11528 0,0.91913 c 0.37162,-0.32424 0.7598,-0.41074 1.12841,-0.15645 -0.80454,0 1.41885,0.23033 0.48174,2.53444 -0.93711,2.30411 -3.01857,9.10723 2.75817,8.99373 5.77947,-0.11355 6.41251,-0.49987 6.42756,-8.99373 0.002,-1.07064 2.6162,-1.0678 2.68141,0 0.50868,8.33198 0.70656,8.93006 6.71007,8.99373 6.15515,0.0653 3.49612,-8.02533 2.03638,-8.99373 -1.44334,-0.95751 -0.45395,-2.17049 0.10124,-2.53444 0.70376,-0.46133 1.37625,-0.31097 1.95799,0.23858 l 0,-1.00126 z"
               id="rect7988-1"
               inkscape:connector-curvature="0"
               sodipodi:nodetypes="cccssscsssccc" />
            <path
               style="opacity:1;fill:#432b0f;fill-opacity:1;fill-rule:nonzero;stroke:none;stroke-width:1;stroke-linecap:round;stroke-linejoin:round;stroke-miterlimit:4;stroke-dasharray:none;stroke-opacity:1"
               d="m 297.5941,562.44738 c -2.73112,-1.88415 -6.5714,14.4347 3.68784,14.5319 3.88776,0.0368 5.53208,-0.54493 7.45244,-2.92838 1.5884,2.16889 4.01475,3.11217 7.91869,2.92838 9.13744,-0.43019 6.11926,-17.14162 2.1382,-14.5319 -0.55519,0.36395 -1.54586,1.57778 -0.10253,2.53529 1.45974,0.9684 4.11946,9.05804 -2.03569,8.99281 -6.00351,-0.0637 -6.20082,-0.66083 -6.7095,-8.99281 -0.0652,-1.0678 -2.68008,-1.07064 -2.68198,0 -0.0151,8.49386 -0.64809,8.87925 -6.42756,8.99281 -5.77674,0.1135 -3.69527,-6.6887 -2.75817,-8.99281 0.93711,-2.30411 -1.2863,-2.53529 -0.48175,-2.53529 z"
               id="rect7766-0-4-6"
               inkscape:connector-curvature="0"
               sodipodi:nodetypes="cscssssssszsc" />
          </g>
          <path
             sodipodi:nodetypes="cscacscac"
             inkscape:connector-curvature="0"
             id="rect7766-0-3"
             d="m 274.86779,525.66585 c 0,0 0.81019,-13.3398 10.76733,-12.73159 7.27064,0.44414 9.36733,12.14971 9.36733,12.14971 0,0 -0.63155,2.50379 -1.34625,2.56589 -0.63022,0.0548 -1.34625,-2.04249 -1.34625,-2.04249 0,0 -0.67247,-9.08613 -6.67483,-9.21678 -5.99955,-0.13068 -8.07483,9.21678 -8.07483,9.21678 0,0 -0.66906,2.3269 -1.34625,2.33344 -0.66775,0.007 -1.34625,-2.27496 -1.34625,-2.27496 z"
             style="opacity:1;fill:#432b0f;fill-opacity:1;fill-rule:nonzero;stroke:none;stroke-width:1;stroke-linecap:round;stroke-linejoin:round;stroke-miterlimit:4;stroke-dasharray:none;stroke-opacity:1" />
          <ellipse
             ry="2.1929834"
             rx="3.0369632"
             cy="545.89099"
             cx="293.81967"
             id="path7749-7"
             style="opacity:1;fill:#fff8e7;fill-opacity:1;fill-rule:nonzero;stroke:none;stroke-width:1;stroke-linecap:round;stroke-linejoin:round;stroke-miterlimit:4;stroke-dasharray:none;stroke-opacity:1" />
          <ellipse
             ry="2.1929834"
             rx="3.0369632"
             cy="541.46765"
             cx="345.24088"
             id="path7749-7-9"
             style="opacity:1;fill:#fff8e7;fill-opacity:1;fill-rule:nonzero;stroke:none;stroke-width:1;stroke-linecap:round;stroke-linejoin:round;stroke-miterlimit:4;stroke-dasharray:none;stroke-opacity:1" />
        </g>
        <path
           style="fill:#e3b581;fill-opacity:1;fill-rule:evenodd;stroke:none;stroke-width:1px;stroke-linecap:butt;stroke-linejoin:miter;stroke-opacity:1"
           d="m 256.99814,513.16326 c -21.8066,44.06959 -0.94215,65.78524 11.2768,74.08584 18.38586,12.48991 49.96173,10.54827 65.90761,6.52441 -48.69418,0.97633 -91.85038,-6.5016 -77.18441,-80.61025 z"
           id="path8121"
           inkscape:connector-curvature="0"
           sodipodi:nodetypes="cccc" />
        <path
           style="fill:#6b4418;fill-opacity:1;fill-rule:evenodd;stroke:none;stroke-width:1px;stroke-linecap:butt;stroke-linejoin:miter;stroke-opacity:1"
           d="m 250.61914,489.38086 c -8.36325,4.92154 -22.08194,20.93567 -26.03711,28.19141 1.71862,-0.42274 2.7433,-0.54027 3.30649,-0.34344 0.56319,0.19683 0.66489,0.70801 0.53756,1.54267 -0.12733,0.83467 -1.81298,5.66795 -2.16591,7.15871 -0.35293,1.49077 0.62688,-0.36097 0.51327,1.80417 -2.98711,29.07596 16.51022,61.51638 46.30664,64.73242 -7.28047,-3.60661 -17.52254,-7.70146 -26.41797,-18.21289 0.46399,0.40129 0.93445,0.79448 1.41406,1.17578 -4.19007,-6.88553 -10.43597,-16.04133 -12.23242,-29.81055 -1.79646,-13.76922 1.16805,-30.90018 14.77539,-56.23828 z"
           id="path8121-0"
           inkscape:connector-curvature="0"
           sodipodi:nodetypes="ccsssccccsc" />
        <path
           style="fill:#d49142;fill-opacity:1;fill-rule:evenodd;stroke:none;stroke-width:1px;stroke-linecap:butt;stroke-linejoin:miter;stroke-opacity:1"
           d="m 375.4797,516.27293 c -6.45338,-37.02112 -42.98672,-44.06733 -79.9994,-35.25764 48.69418,-0.97633 57.44495,6.5016 79.9994,35.25764 z"
           id="path8121-1"
           inkscape:connector-curvature="0"
           sodipodi:nodetypes="ccc" />
      </g>
      <ellipse
         transform="matrix(0.95612036,0.29297416,-0.31817137,0.94803322,0,0)"
         ry="16.003057"
         rx="7.6112466"
         cy="482.35733"
         cx="410.2002"
         id="path4152-2"
         style="opacity:1;fill:#000000;fill-opacity:1;fill-rule:nonzero;stroke:none;stroke-width:2;stroke-linecap:round;stroke-linejoin:round;stroke-miterlimit:4;stroke-dasharray:none;stroke-opacity:1" />
      <ellipse
         transform="matrix(0.95223493,0.3053664,-0.3053664,0.95223493,0,0)"
         ry="15.013278"
         rx="5.9427562"
         cy="473.99707"
         cx="404.5502"
         id="path4152"
         style="opacity:1;fill:#ac6f27;fill-opacity:1;fill-rule:nonzero;stroke:none;stroke-width:2;stroke-linecap:round;stroke-linejoin:round;stroke-miterlimit:4;stroke-dasharray:none;stroke-opacity:1" />
      <ellipse
         transform="matrix(-0.95518817,0.29599925,0.31496748,0.94910246,0,0)"
         ry="15.551899"
         rx="7.3293338"
         cy="663.40173"
         cx="-183.68396"
         id="path4152-2-6"
         style="opacity:1;fill:#000000;fill-opacity:1;fill-rule:nonzero;stroke:none;stroke-width:2;stroke-linecap:round;stroke-linejoin:round;stroke-miterlimit:4;stroke-dasharray:none;stroke-opacity:1" />
      <ellipse
         transform="matrix(-0.95223493,0.3053664,0.3053664,0.95223493,0,0)"
         ry="15.013278"
         rx="5.9427562"
         cy="662.81891"
         cx="-190.62537"
         id="path4152-1"
         style="opacity:1;fill:#ac6f27;fill-opacity:1;fill-rule:nonzero;stroke:none;stroke-width:2;stroke-linecap:round;stroke-linejoin:round;stroke-miterlimit:4;stroke-dasharray:none;stroke-opacity:1" />
    </g>
  </g>
</svg>
