<?xml version="1.0" encoding="UTF-8" standalone="no"?>
<!-- Created with Inkscape (http://www.inkscape.org/) -->

<svg
   xmlns:dc="http://purl.org/dc/elements/1.1/"
   xmlns:cc="http://creativecommons.org/ns#"
   xmlns:rdf="http://www.w3.org/1999/02/22-rdf-syntax-ns#"
   xmlns:svg="http://www.w3.org/2000/svg"
   xmlns="http://www.w3.org/2000/svg"
   xmlns:xlink="http://www.w3.org/1999/xlink"
   xmlns:sodipodi="http://sodipodi.sourceforge.net/DTD/sodipodi-0.dtd"
   xmlns:inkscape="http://www.inkscape.org/namespaces/inkscape"
   width="210mm"
   height="297mm"
   viewBox="0 0 744.09448819 1052.3622047"
   id="svg2"
   version="1.1"
   inkscape:version="0.91 r13725"
   sodipodi:docname="saucer.svg">
  <defs
     id="defs4">
    <path
       style="opacity:1;fill:#5e0000;fill-opacity:1;fill-rule:nonzero;stroke:none;stroke-width:1.90530252;stroke-linecap:round;stroke-linejoin:round;stroke-miterlimit:4;stroke-dasharray:none;stroke-dashoffset:0;stroke-opacity:1"
       d="m 479.64483,770.57777 c 34.9752,11.99746 53.72492,9.79824 87.6759,0 14.41548,-4.1603 14.2684,21.86661 0,31.48092 -23.05722,15.53639 -70.64473,8.73996 -87.6759,0 -8.64532,-4.43657 -9.1073,-34.60497 0,-31.48092 z"
       id="rect4433-7-2-5"
       inkscape:connector-curvature="0"
       sodipodi:nodetypes="sssss" />
    <path
       style="opacity:1;fill:#5e0000;fill-opacity:1;fill-rule:nonzero;stroke:none;stroke-width:1.90530252;stroke-linecap:round;stroke-linejoin:round;stroke-miterlimit:4;stroke-dasharray:none;stroke-dashoffset:0;stroke-opacity:1"
       d="m 479.64483,770.57777 c 34.9752,11.99746 53.72492,9.79824 87.6759,0 14.41548,-4.1603 14.2684,21.86661 0,31.48092 -23.05722,15.53639 -70.64473,8.73996 -87.6759,0 -8.64532,-4.43657 -9.1073,-34.60497 0,-31.48092 z"
       id="rect4433-7-2-5-4"
       inkscape:connector-curvature="0"
       sodipodi:nodetypes="sssss" />
  </defs>
  <sodipodi:namedview
     id="base"
     pagecolor="#ffffff"
     bordercolor="#666666"
     borderopacity="1.0"
     inkscape:pageopacity="0.0"
     inkscape:pageshadow="2"
     inkscape:zoom="3.959798"
     inkscape:cx="445.65852"
     inkscape:cy="217.8314"
     inkscape:document-units="px"
     inkscape:current-layer="layer1"
     showgrid="false"
     showguides="true"
     inkscape:window-width="1536"
     inkscape:window-height="801"
     inkscape:window-x="-8"
     inkscape:window-y="-8"
     inkscape:window-maximized="1" />
  <metadata
     id="metadata7">
    <rdf:RDF>
      <cc:Work
         rdf:about="">
        <dc:format>image/svg+xml</dc:format>
        <dc:type
           rdf:resource="http://purl.org/dc/dcmitype/StillImage" />
        <dc:title></dc:title>
      </cc:Work>
    </rdf:RDF>
  </metadata>
  <g
     inkscape:label="Layer 1"
     inkscape:groupmode="layer"
     id="layer1">
    <path
       style="fill:#000000;fill-opacity:1;fill-rule:evenodd;stroke:none;stroke-width:1px;stroke-linecap:butt;stroke-linejoin:miter;stroke-opacity:1"
       d="m 185.97687,424.68712 c -7.71253,64.62016 10.48648,160.00098 22.47715,168.64685 36.26824,26.15118 122.7112,19.75702 147.92482,6.20851 -134.55105,11.89739 -155.17019,25.79284 -170.40197,-174.85536 z"
       id="path4141-0"
       inkscape:connector-curvature="0"
       sodipodi:nodetypes="cscc"
       inkscape:export-xdpi="82.675049"
       inkscape:export-ydpi="82.675049" />
    <rect
       style="opacity:1;fill:#57ff60;fill-opacity:1;fill-rule:nonzero;stroke:none;stroke-width:3;stroke-linecap:round;stroke-linejoin:round;stroke-miterlimit:4;stroke-dasharray:none;stroke-dashoffset:0;stroke-opacity:1"
       id="rect4159"
       width="419.21332"
       height="348.50262"
       x="511.40393"
       y="210.28877" />
    <path
       style="opacity:1;fill:#ffe8df;fill-opacity:1;fill-rule:nonzero;stroke:#000000;stroke-width:3;stroke-linecap:round;stroke-linejoin:round;stroke-miterlimit:4;stroke-dasharray:none;stroke-dashoffset:0;stroke-opacity:1"
       d="m 191.42857,402.36221 c 14.78444,-30.81579 194.71465,-29.26904 202.85715,0 16.66752,56.56854 -4.14332,175.1855 -20.70812,189.16317 -27.49539,23.2011 -116.04269,41.64735 -162.45105,0 -17.74421,-15.92384 -33.83241,-159.70222 -19.69798,-189.16317 z"
       id="rect4136"
       inkscape:connector-curvature="0"
       sodipodi:nodetypes="scsss"
       inkscape:export-xdpi="82.675049"
       inkscape:export-ydpi="82.675049" />
    <path
       style="fill:#ffc0ad;fill-opacity:1;fill-rule:evenodd;stroke:none;stroke-width:1px;stroke-linecap:butt;stroke-linejoin:miter;stroke-opacity:1"
       d="m 188.26347,425.73406 c -6.95492,62.34732 12.16219,156.81421 23.19018,164.81511 0.46528,0.33756 0.96495,0.64773 1.45263,0.9975 57.01914,40.89496 123.26218,19.54286 148.4758,5.99435 -134.55105,11.89739 -157.88683,28.84124 -173.11861,-171.80696 z"
       id="path4141"
       inkscape:connector-curvature="0"
       sodipodi:nodetypes="csscc"
       inkscape:export-xdpi="82.675049"
       inkscape:export-ydpi="82.675049" />
    <path
       style="opacity:1;fill:#ffe8df;fill-opacity:1;fill-rule:nonzero;stroke:#000000;stroke-width:3;stroke-linecap:round;stroke-linejoin:round;stroke-miterlimit:4;stroke-dasharray:none;stroke-dashoffset:0;stroke-opacity:1"
       d="m 395.22219,410.15771 c -0.30717,12.54881 -3.3849,54.05934 -141.00475,44.74874 -50.71548,-3.43112 -73.54968,-22.68588 -63.55116,-50.30458 5.78665,-15.98432 46.89771,-23.9583 103.24479,-23.9583 56.34707,0 101.8162,8.88035 101.31112,29.51414 z"
       id="path4139"
       inkscape:connector-curvature="0"
       sodipodi:nodetypes="sssss"
       inkscape:export-xdpi="82.675049"
       inkscape:export-ydpi="82.675049" />
    <path
       style="fill:#f9fffe;fill-opacity:1;fill-rule:evenodd;stroke:none;stroke-width:1px;stroke-linecap:butt;stroke-linejoin:miter;stroke-opacity:1"
       d="m 378.00027,437.52337 c 7.41141,-2.41784 22.88146,-27.6028 12.13451,-37.20976 -26.84659,-23.99883 -179.67905,-25.72952 -194.97212,2.10697 75.08097,-18.62182 195.53477,-21.37152 182.83761,35.10279 z"
       id="path4141-2"
       inkscape:connector-curvature="0"
       sodipodi:nodetypes="cscc"
       inkscape:export-xdpi="82.675049"
       inkscape:export-ydpi="82.675049" />
    <path
       style="opacity:1;fill:#ffbead;fill-opacity:1;fill-rule:nonzero;stroke:none;stroke-width:1;stroke-linecap:round;stroke-linejoin:round;stroke-miterlimit:4;stroke-dasharray:none;stroke-dashoffset:0;stroke-opacity:1"
       d="m 253.6047,521.44133 c 28.15686,-6.63857 39.46129,-3.17359 39.46129,-3.17359 0,0 17.30004,-3.15336 33.28862,3.8625 0.34223,9.56403 -17.13088,15.12253 -31.79678,5.84212 -28.59448,13.66603 -43.40541,3.70132 -40.95313,-6.53103 z"
       id="rect4195"
       inkscape:connector-curvature="0"
       sodipodi:nodetypes="ccccc"
       inkscape:export-xdpi="82.675049"
       inkscape:export-ydpi="82.675049" />
    <ellipse
       style="opacity:1;fill:#f7fffd;fill-opacity:1;fill-rule:nonzero;stroke:#000000;stroke-width:0.87737584;stroke-linecap:round;stroke-linejoin:round;stroke-miterlimit:4;stroke-dasharray:none;stroke-dashoffset:0;stroke-opacity:1"
       id="path4161"
       cx="272.7897"
       cy="516.87946"
       rx="20.418455"
       ry="14.801341"
       inkscape:export-xdpi="82.675049"
       inkscape:export-ydpi="82.675049" />
    <ellipse
       style="opacity:1;fill:#f7fffd;fill-opacity:1;fill-rule:nonzero;stroke:#000000;stroke-width:0.73101932;stroke-linecap:round;stroke-linejoin:round;stroke-miterlimit:4;stroke-dasharray:none;stroke-dashoffset:0;stroke-opacity:1"
       id="path4161-6"
       cx="310.80267"
       cy="518.07812"
       rx="17.713715"
       ry="11.844061"
       inkscape:export-xdpi="82.675049"
       inkscape:export-ydpi="82.675049" />
    <ellipse
       style="opacity:1;fill:#000000;fill-opacity:1;fill-rule:nonzero;stroke:none;stroke-width:1;stroke-linecap:round;stroke-linejoin:round;stroke-miterlimit:4;stroke-dasharray:none;stroke-dashoffset:0;stroke-opacity:1"
       id="path4178"
       cx="271.98358"
       cy="521.52704"
       rx="3.2829955"
       ry="2.7779193"
       inkscape:export-xdpi="82.675049"
       inkscape:export-ydpi="82.675049" />
    <path
       style="fill:#c7c7c7;fill-opacity:1;fill-rule:evenodd;stroke:none;stroke-width:1px;stroke-linecap:butt;stroke-linejoin:miter;stroke-opacity:1"
       d="m 294.28986,521.32159 c 1.70214,3.90277 5.41949,6.43828 11.78635,7.94336 6.69618,1.58293 14.71875,-0.91976 17.04633,-3.40926 -10.9585,3.36594 -19.61967,3.26391 -28.83268,-4.5341 z"
       id="path4216-7"
       inkscape:connector-curvature="0"
       sodipodi:nodetypes="cscc"
       inkscape:export-xdpi="82.675049"
       inkscape:export-ydpi="82.675049" />
    <ellipse
       style="opacity:1;fill:#000000;fill-opacity:1;fill-rule:nonzero;stroke:none;stroke-width:1;stroke-linecap:round;stroke-linejoin:round;stroke-miterlimit:4;stroke-dasharray:none;stroke-dashoffset:0;stroke-opacity:1"
       id="path4178-4"
       cx="306.25699"
       cy="522.62384"
       rx="3.2829955"
       ry="2.5253811"
       inkscape:export-xdpi="82.675049"
       inkscape:export-ydpi="82.675049" />
    <path
       style="fill:#c8c8c8;fill-opacity:1;fill-rule:evenodd;stroke:none;stroke-width:1px;stroke-linecap:butt;stroke-linejoin:miter;stroke-opacity:1"
       d="m 253.41567,520.42388 c 2.95214,6.67062 8.03416,9.06826 14.40102,10.57334 6.69618,1.58293 16.86532,-1.42484 20.07679,-4.79822 -15.65737,5.42957 -25.80051,4.61218 -34.47781,-5.77512 z"
       id="path4216"
       inkscape:connector-curvature="0"
       sodipodi:nodetypes="cscc"
       inkscape:export-xdpi="82.675049"
       inkscape:export-ydpi="82.675049" />
    <path
       style="fill:#6c1f00;fill-opacity:1;fill-rule:evenodd;stroke:none;stroke-width:1px;stroke-linecap:butt;stroke-linejoin:miter;stroke-opacity:1"
       d="m 265.67012,565.46868 c -4.502,13.85411 -14.81899,23.43299 -18.68782,16.16244 -8.68756,-16.32622 -19.13972,-9.50321 -18.68782,-18.18275 0.57966,-11.13352 24.51931,-4.4845 26.26396,-20.70812 1.82887,-17.00674 34.88636,0.14631 51.01271,-5.55584 17.7592,-6.27951 19.74988,21.06652 41.41625,18.18274 8.93431,-1.18915 -5.85596,20.74104 -14.64721,22.72843 -5.30912,1.2002 -3.5292,-12.26615 -8.6987,-15.57445 -5.1695,-3.30829 -15.01558,4.80418 -19.0805,-1.59814 -11.43973,-18.01777 -34.8572,-7.86724 -38.89087,4.54569 z"
       id="path4252"
       inkscape:connector-curvature="0"
       sodipodi:nodetypes="ssssssssss"
       inkscape:export-xdpi="82.675049"
       inkscape:export-ydpi="82.675049" />
    <path
       style="fill:#000000;fill-opacity:1;fill-rule:evenodd;stroke:#000000;stroke-width:0.76561487px;stroke-linecap:butt;stroke-linejoin:miter;stroke-opacity:1"
       d="m 239.24365,570.5561 c 23.48574,-37.03856 80.02828,-39.32487 101.21416,-1.19971 -27.42321,-35.20831 -70.48603,-34.55822 -101.21416,1.19971 z"
       id="path4233"
       inkscape:connector-curvature="0"
       sodipodi:nodetypes="ccc"
       inkscape:export-xdpi="82.675049"
       inkscape:export-ydpi="82.675049" />
    <path
       style="fill:#2c0b00;fill-opacity:1;fill-rule:evenodd;stroke:none;stroke-width:1px;stroke-linecap:butt;stroke-linejoin:miter;stroke-opacity:1"
       d="m 110.35091,683.96775 c 44.62791,96.84653 140.54757,68.23694 161.43005,-6.63252 -36.52738,86.12529 -121.77439,73.02856 -161.43005,6.63252 z"
       id="path4233-7"
       inkscape:connector-curvature="0"
       sodipodi:nodetypes="ccc" />
    <path
       style="opacity:1;fill:#6c1f00;fill-opacity:1;fill-rule:nonzero;stroke:none;stroke-width:1;stroke-linecap:round;stroke-linejoin:round;stroke-miterlimit:4;stroke-dasharray:none;stroke-dashoffset:0;stroke-opacity:1"
       d="m 361.63461,541.29265 c 0,2.69434 -6.45573,9.47806 -9.1179,9.47806 -2.66217,0 -0.52266,-6.78372 -0.52266,-9.47806 0,-2.69434 2.15811,-4.87854 4.82027,-4.87854 2.66217,0 4.82029,2.1842 4.82029,4.87854 z"
       id="path4254"
       inkscape:connector-curvature="0"
       sodipodi:nodetypes="sssss"
       inkscape:export-xdpi="82.675049"
       inkscape:export-ydpi="82.675049" />
    <ellipse
       style="opacity:1;fill:#6c1f00;fill-opacity:1;fill-rule:nonzero;stroke:none;stroke-width:1;stroke-linecap:round;stroke-linejoin:round;stroke-miterlimit:4;stroke-dasharray:none;stroke-dashoffset:0;stroke-opacity:1"
       id="path4256"
       cx="352.29071"
       cy="568.24658"
       rx="2.2728431"
       ry="2.7779195"
       inkscape:export-xdpi="82.675049"
       inkscape:export-ydpi="82.675049" />
    <circle
       style="opacity:1;fill:#6c1f00;fill-opacity:1;fill-rule:nonzero;stroke:none;stroke-width:1;stroke-linecap:round;stroke-linejoin:round;stroke-miterlimit:4;stroke-dasharray:none;stroke-dashoffset:0;stroke-opacity:1"
       id="path4258"
       cx="224.25386"
       cy="569.00421"
       r="2.5253813"
       inkscape:export-xdpi="82.675049"
       inkscape:export-ydpi="82.675049" />
    <path
       style="opacity:1;fill:#6c1f00;fill-opacity:1;fill-rule:nonzero;stroke:none;stroke-width:1;stroke-linecap:round;stroke-linejoin:round;stroke-miterlimit:4;stroke-dasharray:none;stroke-dashoffset:0;stroke-opacity:1"
       d="m 219.2287,533.5858 c 1.13706,2.23825 3.18566,8.6879 1.19611,9.69862 -1.98956,1.01072 -7.26386,-3.80022 -8.40093,-6.03846 -1.13706,-2.23825 -0.44598,-4.87206 1.54358,-5.88278 1.98955,-1.01073 4.52418,-0.0156 5.66124,2.22262 z"
       id="path4260"
       inkscape:connector-curvature="0"
       sodipodi:nodetypes="sssss"
       inkscape:export-xdpi="82.675049"
       inkscape:export-ydpi="82.675049" />
    <rect
       style="opacity:1;fill:#916f6f;fill-opacity:1;fill-rule:nonzero;stroke:#000000;stroke-width:2;stroke-linecap:round;stroke-linejoin:round;stroke-miterlimit:4;stroke-dasharray:none;stroke-dashoffset:0;stroke-opacity:1"
       id="rect4250-7"
       width="20.07073"
       height="29.381071"
       x="320.32181"
       y="651.95734" />
    <path
       style="opacity:1;fill:#720000;fill-opacity:1;fill-rule:nonzero;stroke:#000000;stroke-width:2;stroke-linecap:round;stroke-linejoin:round;stroke-miterlimit:4;stroke-dasharray:none;stroke-dashoffset:0;stroke-opacity:1"
       d="m 663.89274,774.43134 c 0,0 1.70301,9.18879 10.53571,44.13716 1.62342,6.42339 -23.34947,8.37216 -23.87607,1.76777 -2.78103,-34.87832 -12.34409,-45.65239 -12.34409,-45.65239 z"
       id="rect4250-0"
       inkscape:connector-curvature="0"
       sodipodi:nodetypes="csscc" />
    <path
       style="opacity:1;fill:#916f6f;fill-opacity:1;fill-rule:nonzero;stroke:#000000;stroke-width:2.34536171;stroke-linecap:round;stroke-linejoin:round;stroke-miterlimit:4;stroke-dasharray:none;stroke-dashoffset:0;stroke-opacity:1"
       d="m 455.75699,655.53436 c 0,0 -9.80358,28.23048 10.41865,61.37855 4.26599,6.99275 -14.51266,5.70868 -19.65522,0 -11.74048,-13.03296 -10.41864,-61.37855 -10.41864,-61.37855 z"
       id="rect4250-0-1"
       inkscape:connector-curvature="0"
       sodipodi:nodetypes="csscc" />
    <g
       id="g4393"
       transform="translate(2.5000002,32.5)">
      <ellipse
         ry="35.543743"
         rx="40.695011"
         cy="591.80511"
         cx="440.26028"
         id="path4315"
         style="opacity:1;fill:none;fill-opacity:1;fill-rule:nonzero;stroke:#000000;stroke-width:2.88470984;stroke-linecap:round;stroke-linejoin:round;stroke-miterlimit:4;stroke-dasharray:none;stroke-dashoffset:0;stroke-opacity:1" />
      <path
         sodipodi:nodetypes="ssssszs"
         inkscape:connector-curvature="0"
         id="path4317"
         d="m 406.12091,574.76425 c 4.53701,-6.16919 11.04405,4.01067 18.70172,4.07096 7.33518,0.0577 12.69957,-3.4726 20.03373,-3.33683 7.60057,0.14063 12.80104,4.70381 20.39797,4.42958 4.51565,-0.163 7.11267,-6.48402 10.1106,-3.10319 9.56419,10.78573 4.90717,49.6935 -33.78683,49.45714 -38.69398,-0.23634 -47.89781,-34.60153 -35.45719,-51.51766 z"
         style="opacity:0.98000004;fill:#5e0000;fill-opacity:1;fill-rule:evenodd;stroke:none;stroke-width:1px;stroke-linecap:butt;stroke-linejoin:miter;stroke-opacity:1" />
    </g>
    <ellipse
       style="opacity:1;fill:#ffdfdf;fill-opacity:0.39215686;fill-rule:nonzero;stroke:#000000;stroke-width:2.88470984;stroke-linecap:round;stroke-linejoin:round;stroke-miterlimit:4;stroke-dasharray:none;stroke-dashoffset:0;stroke-opacity:1"
       id="path4315-5"
       cx="512.56055"
       cy="647.33929"
       rx="40.695011"
       ry="35.543743" />
    <path
       style="fill:#000000;fill-opacity:0.19607843;fill-rule:evenodd;stroke:none;stroke-width:1px;stroke-linecap:butt;stroke-linejoin:miter;stroke-opacity:1"
       d="m 474.43315,637.14432 c -3.08969,15.53556 1.59414,27.71485 11.3328,35.28619 14.37722,11.17759 36.58294,12.77544 52.54292,0.77269 -46.62791,4.22373 -54.86205,-17.59607 -63.87572,-36.05888 z"
       id="path4334"
       inkscape:connector-curvature="0"
       sodipodi:nodetypes="cscc" />
    <path
       style="fill:#fffafa;fill-opacity:0.71202536;fill-rule:evenodd;stroke:none;stroke-width:1px;stroke-linecap:butt;stroke-linejoin:miter;stroke-opacity:1"
       d="m 547.88205,648.00544 c -3.60696,-16.82338 -3.9122,-18.05622 -13.65087,-25.62756 -14.37722,-11.17758 -21.90182,-6.85149 -42.36916,-2.0605 26.79552,6.85149 45.33219,11.67211 56.02003,27.68806 z"
       id="path4334-1"
       inkscape:connector-curvature="0"
       sodipodi:nodetypes="cscc" />
    <rect
       style="opacity:1;fill:#916f6f;fill-opacity:1;fill-rule:nonzero;stroke:#000000;stroke-width:2;stroke-linecap:round;stroke-linejoin:round;stroke-miterlimit:4;stroke-dasharray:none;stroke-dashoffset:0;stroke-opacity:1"
       id="rect4310"
       width="32.829956"
       height="16.162441"
       x="582.08533"
       y="637.03107" />
    <path
       style="opacity:0.98000004;fill:#000000;fill-opacity:1;fill-rule:nonzero;stroke:none;stroke-width:2;stroke-linecap:round;stroke-linejoin:round;stroke-miterlimit:4;stroke-dasharray:none;stroke-dashoffset:0;stroke-opacity:1"
       d="m 290.92392,749.31647 c 15.39879,-17.3975 54.39299,-17.47785 69.70052,0 21.03731,24.02001 -12.62691,94.95434 -12.62691,94.95434 l -45.45686,0 c 0,0 -32.75123,-71.07669 -11.61675,-94.95434 z"
       id="rect4408"
       inkscape:connector-curvature="0"
       sodipodi:nodetypes="ssccs" />
    <path
       style="opacity:0.98000004;fill:#9e5858;fill-opacity:1;fill-rule:nonzero;stroke:none;stroke-width:2;stroke-linecap:round;stroke-linejoin:round;stroke-miterlimit:4;stroke-dasharray:none;stroke-dashoffset:0;stroke-opacity:1"
       d="m 292.73832,750.26902 c 14.7485,-16.6628 52.09599,-16.73976 66.75709,0 20.14891,23.00566 -12.09368,90.94445 -12.09368,90.94445 l -43.53723,0 c 0,0 -31.36816,-68.07514 -11.12618,-90.94445 z"
       id="rect4408-6"
       inkscape:connector-curvature="0"
       sodipodi:nodetypes="ssccs" />
    <rect
       style="opacity:0.98000004;fill:#251515;fill-opacity:1;fill-rule:nonzero;stroke:none;stroke-width:2;stroke-linecap:round;stroke-linejoin:round;stroke-miterlimit:4;stroke-dasharray:none;stroke-dashoffset:0;stroke-opacity:1"
       id="rect4428"
       width="19.192898"
       height="33.335033"
       x="315.1676"
       y="844.27075" />
    <ellipse
       style="opacity:1;fill:none;fill-opacity:1;fill-rule:nonzero;stroke:#000000;stroke-width:2;stroke-linecap:round;stroke-linejoin:round;stroke-miterlimit:4;stroke-dasharray:none;stroke-dashoffset:0;stroke-opacity:1"
       id="path4431"
       cx="629.57764"
       cy="785.55566"
       rx="13.637059"
       ry="12.500638" />
    <rect
       style="opacity:1;fill:#000000;fill-opacity:1;fill-rule:nonzero;stroke:none;stroke-width:1.96011353;stroke-linecap:round;stroke-linejoin:round;stroke-miterlimit:4;stroke-dasharray:none;stroke-dashoffset:0;stroke-opacity:1"
       id="rect4436-4"
       width="23.93429"
       height="10.488492"
       x="562.18463"
       y="739.08221" />
    <rect
       style="opacity:1;fill:#242424;fill-opacity:1;fill-rule:nonzero;stroke:none;stroke-width:1.96011353;stroke-linecap:round;stroke-linejoin:round;stroke-miterlimit:4;stroke-dasharray:none;stroke-dashoffset:0;stroke-opacity:1"
       id="rect4436"
       width="19.737862"
       height="11.202778"
       x="564.36688"
       y="739.11835" />
    <text
       y="-1498.9653"
       x="-957.24121"
       xml:space="preserve"
       style="font-style:normal;font-variant:normal;font-weight:normal;font-stretch:semi-expanded;font-size:25px;line-height:125%;font-family:Chiller;-inkscape-font-specification:'Chiller, Semi-Expanded';text-align:start;letter-spacing:0px;word-spacing:0px;writing-mode:lr-tb;text-anchor:start;fill:#ffff00;fill-opacity:1;stroke:none;stroke-width:1px;stroke-linecap:butt;stroke-linejoin:miter;stroke-opacity:1"
       id="text4510-6"
       sodipodi:linespacing="125%"
       transform="translate(306.16986,344.43678)"><textPath
         xlink:href="#rect4433-7-2-5-4"
         id="textPath4531-4"><tspan
   style="fill:#ffff00;fill-opacity:1"
   id="tspan4514-1">CHOCO FTW</tspan></textPath></text>
    <path
       style="fill:#323232;fill-opacity:1;fill-rule:evenodd;stroke:#000000;stroke-width:1;stroke-linecap:butt;stroke-linejoin:miter;stroke-miterlimit:4;stroke-dasharray:none;stroke-opacity:1"
       d="m 435.62829,853.10962 c 0,0 19.88166,-10.39654 29.1222,-14.89976 1.56197,17.81821 -1.09047,26.76905 -1.09047,26.76905 l 7.35687,2.21683 3.24973,-1.71175 1.24737,-27.04216 37.44251,-20.37341 c 0,0 3.64648,6.17512 3.7623,10.19699 2.51493,1.30709 4.77245,1.73697 4.77245,1.73697 l 8.14436,-10.48034 -6.88166,-4.0406 5.55583,-9.09138 c 0,0 11.95111,-3.37605 16.20671,-4.76187 4.2556,-1.38581 0.8157,-0.78139 3.87379,-2.92196 -3.10146,-6.55399 -1.61505,-18.66721 -6.4592,-21.33575 -7.10292,-3.91285 -16.47807,17.89775 -16.47807,17.89775 l -6.40755,2.3722 -6.89812,6.72933 -79.41426,40.04896 c 0,0 -4.39119,1.84809 -1.24212,4.93872 -1.98074,2.2188 0.73978,5.09222 4.13733,3.75218 z"
       id="path4644"
       inkscape:connector-curvature="0"
       sodipodi:nodetypes="ccccccccccccscscccccc"
       inkscape:export-xdpi="214.39449"
       inkscape:export-ydpi="214.39449" />
    <path
       style="fill:#101010;fill-opacity:1;fill-rule:evenodd;stroke:none;stroke-width:1px;stroke-linecap:butt;stroke-linejoin:miter;stroke-opacity:1"
       d="m 510.41797,801.39648 c -5.28318,2.89286 -43.68856,26.31473 -60.1582,34.74414 5.9326,-2.08332 6.77343,-2.43636 9.46171,-1.07421 0.78439,0.39745 5.96372,3.67478 -26.04479,16.48416 l 1.05959,1.55321 c 13.38307,-5.97878 24.25631,-12.17897 40.252,-20.78542 5.58676,-2.36262 18.08217,-4.92898 24.50586,-8.23242 29.7355,-15.64242 18.92835,-19.64293 10.92383,-22.68946 z m -35.42969,30.92188 c 0.62425,-0.0615 0.96969,-0.18796 0.82227,-0.44141 -0.29495,0.15867 -0.53068,0.28452 -0.82227,0.44141 z"
       id="path4655-2"
       inkscape:connector-curvature="0"
       sodipodi:nodetypes="ccscccccccc"
       inkscape:export-xdpi="214.39449"
       inkscape:export-ydpi="214.39449" />
    <path
       style="opacity:1;fill:#171717;fill-opacity:1;fill-rule:nonzero;stroke:#000000;stroke-width:1;stroke-linecap:round;stroke-linejoin:round;stroke-miterlimit:4;stroke-dasharray:none;stroke-dashoffset:0;stroke-opacity:1"
       d="m 510.82977,815.252 2.21311,2.67516 -37.05811,20.37695 -4.38136,-3.75589 z"
       id="rect4657-3"
       inkscape:connector-curvature="0"
       sodipodi:nodetypes="ccccc"
       inkscape:export-xdpi="214.39449"
       inkscape:export-ydpi="214.39449" />
    <path
       style="fill:#111111;fill-opacity:1;fill-rule:evenodd;stroke:none;stroke-width:1px;stroke-linecap:butt;stroke-linejoin:miter;stroke-opacity:1"
       d="m 476.11602,833.1253 c 0,0 14.93791,-8.05489 34.38982,-17.20193 l 2.26201,1.90672 c -6.11372,0.49816 -36.65183,15.29521 -36.65183,15.29521 z"
       id="path4800"
       inkscape:connector-curvature="0"
       sodipodi:nodetypes="cccc"
       inkscape:export-xdpi="214.39449"
       inkscape:export-ydpi="214.39449" />
    <path
       style="fill:#101010;fill-opacity:1;fill-rule:evenodd;stroke:none;stroke-width:1px;stroke-linecap:butt;stroke-linejoin:miter;stroke-opacity:1"
       d="m 470.47672,866.20148 c 1.11431,-13.17773 1.09343,-31.22865 1.09343,-31.22865 l -5.95731,2.57506 c 2.07119,12.88072 2.40495,9.77775 4.86388,28.65359 z"
       id="path4655"
       inkscape:connector-curvature="0"
       sodipodi:nodetypes="cccc"
       inkscape:export-xdpi="214.39449"
       inkscape:export-ydpi="214.39449" />
    <path
       style="opacity:1;fill:#0f0f0f;fill-opacity:1;fill-rule:nonzero;stroke:#000000;stroke-width:1;stroke-linecap:round;stroke-linejoin:round;stroke-miterlimit:4;stroke-dasharray:none;stroke-dashoffset:0;stroke-opacity:1"
       d="m 471.51786,835.1559 c 4.05484,-2.57769 4.05484,-2.57769 4.05484,-2.57769 l -1.28698,32.73043 -3.48214,1.51786 c 0,0 1.83424,-26.82079 0.71428,-31.6706 z"
       id="rect4657"
       inkscape:connector-curvature="0"
       sodipodi:nodetypes="ccccc"
       inkscape:export-xdpi="214.39449"
       inkscape:export-ydpi="214.39449" />
    <path
       transform="matrix(0.88269855,-0.46993964,0.46993964,0.88269855,0,0)"
       style="opacity:1;fill:#000000;fill-opacity:1;fill-rule:nonzero;stroke:none;stroke-width:0.40000001;stroke-linecap:round;stroke-linejoin:round;stroke-miterlimit:4;stroke-dasharray:none;stroke-dashoffset:0;stroke-opacity:1"
       d="m -3.5572863,957.70477 37.2050803,0.36765 -0.01884,1.14758 -37.4243855,-0.62746 z"
       id="rect4714"
       inkscape:connector-curvature="0"
       sodipodi:nodetypes="ccccc"
       inkscape:export-xdpi="214.39449"
       inkscape:export-ydpi="214.39449" />
    <path
       style="fill:#5c5c5c;fill-opacity:1;fill-rule:evenodd;stroke:none;stroke-width:1px;stroke-linecap:butt;stroke-linejoin:miter;stroke-opacity:1"
       d="m 434.26205,845.20419 c 1.16755,-1.16407 16.57184,-8.7623 17.47247,-8.8704 0.28896,-0.0347 0.74576,0.28922 0.66291,0.56821 -0.13733,0.46243 -16.46048,8.81685 -17.20415,8.98089 -0.35287,0.0778 -1.1871,-0.42359 -0.93123,-0.6787 z"
       id="path4722-4"
       inkscape:connector-curvature="0"
       sodipodi:nodetypes="sssss"
       inkscape:export-xdpi="214.39449"
       inkscape:export-ydpi="214.39449" />
    <path
       style="fill:#282828;fill-opacity:1;fill-rule:evenodd;stroke:#000000;stroke-width:0.87371165;stroke-linecap:butt;stroke-linejoin:miter;stroke-miterlimit:4;stroke-dasharray:none;stroke-opacity:1"
       d="m 431.03997,845.6596 c -1.44105,0.833 -0.25317,3.41721 0.35616,4.38424 0.71985,1.14227 0.71924,5.27433 4.81635,2.89965 1.05763,-0.613 0.26626,-2.878 -1.24195,-5.11787 -1.2219,-1.8147 -1.34502,-3.66058 -3.93056,-2.16602 z"
       id="path4720"
       inkscape:connector-curvature="0"
       sodipodi:nodetypes="sssss"
       inkscape:export-xdpi="214.39449"
       inkscape:export-ydpi="214.39449" />
    <path
       style="opacity:1;fill:#323232;fill-opacity:1;fill-rule:nonzero;stroke:#000000;stroke-width:1;stroke-linecap:round;stroke-linejoin:round;stroke-miterlimit:4;stroke-dasharray:none;stroke-dashoffset:0;stroke-opacity:1"
       d="m 426.45527,852.20724 c 3.29906,-2.16825 3.39975,-1.79865 5.1139,-2.90419 2.16058,-0.34661 4.22016,2.14648 2.96732,4.29315 -1.38677,0.74042 -2.43433,1.54604 -5.1139,2.77791 -1.54927,0.71224 -4.46703,-3.18121 -2.96732,-4.16687 z"
       id="rect4717"
       inkscape:connector-curvature="0"
       sodipodi:nodetypes="sccss"
       inkscape:export-xdpi="214.39449"
       inkscape:export-ydpi="214.39449" />
    <path
       style="fill:#5c5c5c;fill-opacity:1;fill-rule:evenodd;stroke:none;stroke-width:1px;stroke-linecap:butt;stroke-linejoin:miter;stroke-opacity:1"
       d="m 428.08325,852.09311 c 1.16755,-1.16407 2.27187,-1.43869 3.1725,-1.54679 0.28896,-0.0347 0.74576,0.28922 0.66291,0.56821 -0.13733,0.46243 -2.16051,1.49324 -2.90418,1.65728 -0.35287,0.0778 -1.1871,-0.42359 -0.93123,-0.6787 z"
       id="path4722"
       inkscape:connector-curvature="0"
       sodipodi:nodetypes="sssss"
       inkscape:export-xdpi="214.39449"
       inkscape:export-ydpi="214.39449" />
    <path
       style="fill:#101010;fill-opacity:1;fill-rule:evenodd;stroke:none;stroke-width:1px;stroke-linecap:butt;stroke-linejoin:miter;stroke-opacity:1"
       d="m 434.45302,852.21358 -0.008,1.01464 c 0,0 -1.20509,0.70736 -4.67327,2.4814 3.63004,-2.62328 4.68159,-3.49604 4.68159,-3.49604 z"
       id="path4764"
       inkscape:connector-curvature="0"
       sodipodi:nodetypes="cccc"
       inkscape:export-xdpi="214.39449"
       inkscape:export-ydpi="214.39449" />
    <path
       style="fill:#282828;fill-opacity:1;fill-rule:evenodd;stroke:#000000;stroke-width:0.87371165;stroke-linecap:butt;stroke-linejoin:miter;stroke-miterlimit:4;stroke-dasharray:none;stroke-opacity:1"
       d="m 426.30852,852.31503 c -0.86138,0.55422 0.15393,2.22677 0.64633,2.88871 0.41513,0.55807 1.79783,1.62712 2.87438,1.04698 0.63687,-0.34321 -0.4231,-2.35139 -0.8848,-2.88573 -0.78109,-0.90399 -1.7942,-1.59152 -2.63591,-1.04996 z"
       id="path4720-2"
       inkscape:connector-curvature="0"
       sodipodi:nodetypes="sssss"
       inkscape:export-xdpi="214.39449"
       inkscape:export-ydpi="214.39449" />
    <path
       style="fill:#101010;fill-opacity:1;fill-rule:evenodd;stroke:none;stroke-width:1px;stroke-linecap:butt;stroke-linejoin:miter;stroke-opacity:1"
       d="m 521.69427,829.54528 c -1.2848,-6.99054 -5.66197,-12.8565 -5.66197,-12.8565 l -2.86371,1.24923 c 2.32372,5.05204 5.68794,4.91639 8.52568,11.60727 z"
       id="path4655-22"
       inkscape:connector-curvature="0"
       sodipodi:nodetypes="cccc"
       inkscape:export-xdpi="214.39449"
       inkscape:export-ydpi="214.39449" />
    <path
       style="opacity:1;fill:#0f0f0f;fill-opacity:1;fill-rule:nonzero;stroke:#000000;stroke-width:1;stroke-linecap:round;stroke-linejoin:round;stroke-miterlimit:4;stroke-dasharray:none;stroke-dashoffset:0;stroke-opacity:1"
       d="m 516.09604,817.03428 4.11797,-3.1459 c 0,0 9.18966,-0.45842 9.70029,5.51419 0.31702,3.70803 -7.96655,10.55135 -7.96655,10.55135 0,0 -2.01697,-9.77446 -5.85171,-12.91964 z"
       id="rect4657-1"
       inkscape:connector-curvature="0"
       sodipodi:nodetypes="ccscc"
       inkscape:export-xdpi="214.39449"
       inkscape:export-ydpi="214.39449" />
    <g
       id="g4861"
       transform="translate(25,33.75)">
      <path
         sodipodi:nodetypes="sssss"
         inkscape:connector-curvature="0"
         id="rect4433"
         d="m 428.71217,781.03418 c 16.3017,-10.41177 29.5933,-16.14933 52.40193,-20.50114 9.46316,-1.80553 15.93576,11.88495 7.40652,18.93141 -13.93997,11.51654 -40.53696,19.42507 -52.40194,20.50114 -8.18051,0.74192 -17.76393,-12.3162 -7.40651,-18.93141 z"
         style="opacity:1;fill:none;fill-opacity:1;fill-rule:nonzero;stroke:#000000;stroke-width:1.2145493;stroke-linecap:round;stroke-linejoin:round;stroke-miterlimit:4;stroke-dasharray:none;stroke-dashoffset:0;stroke-opacity:1" />
      <path
         sodipodi:nodetypes="sssss"
         inkscape:connector-curvature="0"
         id="rect4433-7"
         d="m 427.10446,783.08172 c 20.89446,-17.17371 47.1604,-21.02419 54.19158,-22.02969 9.44619,-1.35087 15.35282,11.06706 7.08963,18.12145 -12.12321,10.34974 -39.23348,18.68938 -52.04817,20.36275 -6.80664,0.88883 -16.77411,-10.25631 -9.23304,-16.45451 z"
         style="opacity:1;fill:#5e0000;fill-opacity:1;fill-rule:nonzero;stroke:none;stroke-width:1.90530252;stroke-linecap:round;stroke-linejoin:round;stroke-miterlimit:4;stroke-dasharray:none;stroke-dashoffset:0;stroke-opacity:1" />
      <path
         sodipodi:nodetypes="cccc"
         inkscape:connector-curvature="0"
         id="path4334-2"
         d="m 490.89948,766.68871 c 2.75002,1.6504 1.44225,6.35774 -0.18037,11.043 -9.86649,7.41633 -29.8533,18.44781 -50.70135,21.92894 34.01591,-10.97952 45.85724,-18.64532 50.88172,-32.97194 z"
         style="fill:#000000;fill-opacity:0.19607843;fill-rule:evenodd;stroke:none;stroke-width:1px;stroke-linecap:butt;stroke-linejoin:miter;stroke-opacity:1" />
      <path
         sodipodi:nodetypes="ccsc"
         inkscape:connector-curvature="0"
         id="path4493"
         d="m 475.16577,764.23352 c -4.17291,5.26702 -22.94971,13.25198 -35.54039,13.71074 -0.64368,-1.23962 7.52088,-5.39562 15.05045,-8.56821 11.44783,-4.82356 19.84627,-6.38215 20.48994,-5.14253 z"
         style="opacity:1;fill:#f9f9f9;fill-opacity:0.79746836;fill-rule:nonzero;stroke:none;stroke-width:2;stroke-linecap:round;stroke-linejoin:round;stroke-miterlimit:4;stroke-dasharray:none;stroke-dashoffset:0;stroke-opacity:1" />
      <text
         transform="matrix(0.49978811,-0.19553147,0.19553147,0.49978811,49.893545,502.0259)"
         sodipodi:linespacing="125%"
         id="text4510"
         style="font-style:normal;font-variant:normal;font-weight:normal;font-stretch:semi-expanded;font-size:25px;line-height:125%;font-family:Chiller;-inkscape-font-specification:'Chiller, Semi-Expanded';text-align:start;letter-spacing:0px;word-spacing:0px;writing-mode:lr-tb;text-anchor:start;fill:#ffff00;fill-opacity:1;stroke:none;stroke-width:1px;stroke-linecap:butt;stroke-linejoin:miter;stroke-opacity:1"
         xml:space="preserve"
         x="-480.79965"
         y="-753.59052"><textPath
           id="textPath4531"
           xlink:href="#rect4433-7-2-5"><tspan
   id="tspan4514"
   style="fill:#ffff00;fill-opacity:1">CHOCO FTW</tspan></textPath></text>
      <path
         sodipodi:nodetypes="ccsc"
         inkscape:connector-curvature="0"
         id="path4827"
         d="m 427.75254,782.60839 c 6.95896,-2.43042 10.12227,6.97922 10.97503,12.17241 -0.0311,-4.90833 -1.4764,-8.52515 -1.4764,-8.52515 -2.26362,-3.02461 -5.94311,-6.76917 -9.49863,-3.64726 z"
         style="fill:#b48d8d;fill-opacity:0.60784314;fill-rule:evenodd;stroke:none;stroke-width:1px;stroke-linecap:butt;stroke-linejoin:miter;stroke-opacity:1" />
      <path
         sodipodi:nodetypes="cccsc"
         inkscape:connector-curvature="0"
         id="path4829"
         d="m 424.375,788.34434 c 2.29911,5.35715 13.89964,13.72132 14.07498,5.64798 0.84497,3.13203 -1.97677,5.42346 -1.97677,5.42346 0,0 -2.34582,1.23441 -7.94642,-2.85715 -2.41876,-1.76704 -4.09348,-4.08265 -4.15179,-8.21429 z"
         style="fill:#4c0000;fill-opacity:1;fill-rule:evenodd;stroke:none;stroke-width:1px;stroke-linecap:butt;stroke-linejoin:miter;stroke-opacity:1" />
    </g>
  </g>
</svg>
