<?xml version="1.0" encoding="UTF-8" standalone="no"?>
<!-- Created with Inkscape (http://www.inkscape.org/) -->

<svg
   xmlns:dc="http://purl.org/dc/elements/1.1/"
   xmlns:cc="http://creativecommons.org/ns#"
   xmlns:rdf="http://www.w3.org/1999/02/22-rdf-syntax-ns#"
   xmlns:svg="http://www.w3.org/2000/svg"
   xmlns="http://www.w3.org/2000/svg"
   xmlns:sodipodi="http://sodipodi.sourceforge.net/DTD/sodipodi-0.dtd"
   xmlns:inkscape="http://www.inkscape.org/namespaces/inkscape"
   width="744.09448819"
   height="1052.3622047"
   id="svg3065"
   version="1.1"
   inkscape:version="0.48.4 r9939"
   sodipodi:docname="New document 3">
  <defs
     id="defs3067" />
  <sodipodi:namedview
     id="base"
     pagecolor="#ffffff"
     bordercolor="#666666"
     borderopacity="1.0"
     inkscape:pageopacity="0.0"
     inkscape:pageshadow="2"
     inkscape:zoom="1.4"
     inkscape:cx="156.88255"
     inkscape:cy="780.87481"
     inkscape:document-units="px"
     inkscape:current-layer="layer1"
     showgrid="false"
     inkscape:window-width="1280"
     inkscape:window-height="782"
     inkscape:window-x="0"
     inkscape:window-y="18"
     inkscape:window-maximized="1" />
  <metadata
     id="metadata3070">
    <rdf:RDF>
      <cc:Work
         rdf:about="">
        <dc:format>image/svg+xml</dc:format>
        <dc:type
           rdf:resource="http://purl.org/dc/dcmitype/StillImage" />
        <dc:title></dc:title>
      </cc:Work>
    </rdf:RDF>
  </metadata>
  <g
     inkscape:label="Layer 1"
     inkscape:groupmode="layer"
     id="layer1">
    <path
       style="fill:#ffffbe;stroke:#000000;stroke-opacity:1;fill-opacity:1"
       d="m 122.14285,98.790753 75.71429,37.142857 57.14286,-25 -36.07143,41.42857 56.78571,60.71428 -80.35714,-39.64285 -51.78572,19.64285 33.21429,-35.71428 z"
       id="rect3073"
       inkscape:connector-curvature="0"
       sodipodi:nodetypes="ccccccccc"
       inkscape:export-filename="/home/ruijan/Pixelnos/MallowsVsDango/Resources/res/turret/animation/bullet_cut.png"
       inkscape:export-xdpi="89.875404"
       inkscape:export-ydpi="89.875404" />
    <path
       style="fill:#00ffff;stroke:#000000;stroke-width:1px;stroke-linecap:butt;stroke-linejoin:miter;stroke-opacity:1"
       d="M 177.14286,288.07647 C 188.33412,272.64671 156.48499,235.46314 175,230.93361 c 19.44911,-4.75805 5.9854,50.8684 25.71429,54.28571 6.30376,1.0919 7.23413,-14.44804 13.57142,-13.57142 6.75782,0.93479 3.34231,16.36815 10,17.85714 21.98673,4.91733 38.86497,-55.01014 55,-39.28572 14.61359,14.2417 -36.23069,30.40173 -34.28571,50.71429 0.67399,7.03887 16.79887,8.16157 15,15 -1.13156,4.30164 -12.19777,-0.82741 -12.85714,3.57143 -1.50782,10.05905 28.56685,6.66533 25.71428,16.42857 -2.87127,9.82723 -29.86289,-10.20263 -30.71428,0 -2.38923,28.63119 86.931,-14.38003 85,14.28571 -2.00133,29.70981 -59.83904,-1.5668 -89.28572,2.85715 -8.05373,1.20996 -18.70539,-0.10199 -23.57143,6.42857 -5.97661,8.02102 10.30358,27.15357 0.71429,30 -9.12151,2.70757 -5.66375,-26.12073 -15,-24.28572 -15.63197,3.07241 8.07342,47.26703 -7.85714,47.14286 -17.57664,-0.137 7.68879,-43.94038 -7.85715,-52.14286 -14.03328,-7.40436 -33.60588,33.60504 -42.85714,20.71429 -10.50385,-14.63611 43.99281,-16.63331 37.85714,-33.57143 -8.96454,-24.74747 -78.74159,13.46341 -78.57142,-12.85714 0.14215,-21.98696 66.93666,5.55297 65.71428,-5.71429 -1.90189,-17.53065 -51.2885,3.99219 -52.85714,-13.57142 -0.58582,-6.55928 18.48109,2.25033 19.28571,-4.28572 0.45535,-3.69886 -10.56612,-1.31647 -10,-5 0.9157,-5.95814 14.61984,2.22791 17.85715,-2.85714 1.86176,-2.92438 -4.96986,-7.25144 -2.85715,-10 7.98191,-10.38417 32.66399,24.14374 39.28572,12.14285 3.18145,-5.76591 -16.40603,-6.4236 -15,-12.85714 1.11025,-5.08017 11.94688,-0.0763 15,-4.28571 z"
       id="path3918"
       inkscape:connector-curvature="0"
       sodipodi:nodetypes="assssssssssssssssssssssssssaaa" />
  </g>
</svg>
