<?xml version="1.0" encoding="UTF-8" standalone="no"?>
<!-- Created with Inkscape (http://www.inkscape.org/) -->

<svg
   xmlns:dc="http://purl.org/dc/elements/1.1/"
   xmlns:cc="http://creativecommons.org/ns#"
   xmlns:rdf="http://www.w3.org/1999/02/22-rdf-syntax-ns#"
   xmlns:svg="http://www.w3.org/2000/svg"
   xmlns="http://www.w3.org/2000/svg"
   xmlns:sodipodi="http://sodipodi.sourceforge.net/DTD/sodipodi-0.dtd"
   xmlns:inkscape="http://www.inkscape.org/namespaces/inkscape"
   width="210mm"
   height="297mm"
   viewBox="0 0 744.09448819 1052.3622047"
   id="svg2"
   version="1.1"
   inkscape:version="0.91 r13725"
   sodipodi:docname="hand.svg">
  <defs
     id="defs4" />
  <sodipodi:namedview
     id="base"
     pagecolor="#ffffff"
     bordercolor="#666666"
     borderopacity="1.0"
     inkscape:pageopacity="0.0"
     inkscape:pageshadow="2"
     inkscape:zoom="1.3936402"
     inkscape:cx="372.04724"
     inkscape:cy="529.5218"
     inkscape:document-units="px"
     inkscape:current-layer="layer1"
     showgrid="false"
     inkscape:window-width="1680"
     inkscape:window-height="971"
     inkscape:window-x="1911"
     inkscape:window-y="-9"
     inkscape:window-maximized="1" />
  <metadata
     id="metadata7">
    <rdf:RDF>
      <cc:Work
         rdf:about="">
        <dc:format>image/svg+xml</dc:format>
        <dc:type
           rdf:resource="http://purl.org/dc/dcmitype/StillImage" />
        <dc:title />
      </cc:Work>
    </rdf:RDF>
  </metadata>
  <g
     inkscape:label="Layer 1"
     inkscape:groupmode="layer"
     id="layer1">
    <path
       style="opacity:1;fill:#ffe198;fill-opacity:1;fill-rule:nonzero;stroke:#000000;stroke-width:3;stroke-linecap:round;stroke-linejoin:round;stroke-miterlimit:4;stroke-dasharray:none;stroke-opacity:1"
       d="m 164.28516,333.21875 c -11.42858,0 -22.85743,3.81064 -22.85743,11.42969 l 0,172.33203 -2.02734,0 -3.57143,26.30748 c 0,0 7.55537,-35.47754 0.82399,-42.56907 -6.73138,-7.09152 -24.17809,-20.22559 -44.18225,-23.82435 -38.092485,-6.85286 -57.583313,38.99098 -34.265622,44.25977 27.679228,6.2543 30.120915,14.08856 43.499942,30.2164 6.68951,8.06391 9.68478,22.4155 17.43624,34.03683 7.75147,11.62133 26.12519,9.34307 32.25913,20.51239 11.01437,20.0561 0,68.64453 0,68.64453 l 152.89844,0 c 0,0 -3.54798,-26.75237 0,-39.39599 4.1545,-14.80505 19.8455,-24.59095 24,-39.396 2.9833,-7.83033 6.08646,-78.79199 -1.38672,-78.79199 l 0,-68.89453 c 0,-25.95239 -45.71289,-23.2381 -45.71289,-8 l 0,76.89453 -0.75391,0 0,-86.89453 c 0,-15.2381 -45.71289,-15.2381 -45.71289,0 l 0,86.89453 -0.7539,0 0,-94.79966 c 0,-15.23811 -45.7129,-12.80953 -45.7129,2.42857 l 0,92.37109 -1.12304,0 0,-172.33203 c 0,-7.61905 -11.42885,-11.42969 -22.85742,-11.42969 z"
       id="rect4136"
       inkscape:connector-curvature="0"
       sodipodi:nodetypes="sscccssssssccsccssccssccssccss"
       inkscape:export-xdpi="72.982399"
       inkscape:export-ydpi="72.982399" />
    <g
       inkscape:export-filename="C:\Users\MSI-GP60\Documents\Pixelnos\MallowsVsDango\Resources\res\buttons\hand.png"
       inkscape:export-xdpi="72.982399"
       inkscape:export-ydpi="72.982399"
       id="g4165">
      <path
         inkscape:export-ydpi="72.982399"
         inkscape:export-xdpi="72.982399"
         sodipodi:nodetypes="sccsccccss"
         inkscape:connector-curvature="0"
         id="rect4136-5"
         d="m 458.08435,326.66929 c 8.0923,65.17512 17.87258,111.38164 34.40123,180.21094 0,0 -6.01606,-36.19183 -12.74744,-43.28336 -44.87654,8.49876 -41.30585,29.08033 -11.08312,86.11723 12.98204,24.49994 17.59682,26.46841 44.40199,51.22667 -42.13636,77.16504 250.99458,-36.21263 139.04129,-54.29031 14.09766,-47.56426 28.06077,-75.772 10.75614,-124.97224 C 653.5328,395.17508 523.6398,400.18309 544.20795,436.0588 525.87613,390.29213 515.3946,309.36677 497.37063,302.38357 c -25.04839,-9.70473 -42.56201,-2.09689 -39.28628,24.28572 z"
         style="opacity:1;fill:#ffffff;fill-opacity:1;fill-rule:nonzero;stroke:#000000;stroke-width:3;stroke-linecap:round;stroke-linejoin:round;stroke-miterlimit:4;stroke-dasharray:none;stroke-opacity:1" />
      <path
         sodipodi:nodetypes="csccccccccc"
         inkscape:connector-curvature="0"
         id="path4149"
         d="m 462.86041,305.95319 c 29.30666,120.39163 54.58816,187.6021 84.13959,208.55187 27.95704,19.81946 116.00001,-5.85714 116.00001,-5.85714 l -12.28572,38 L 515,600.26267 c 0,0 -30.59814,-24.06346 -39.91334,-42.43872 8.46418,-22.21968 18.64724,-24.12323 -15.80095,-85.46174 3.88361,-5.94736 19.28572,-7.14286 19.28572,-7.14286 l 13.57143,43.57142 3.57143,-2.14285 c 0,0 -44.32266,-168.43212 -32.85388,-200.69473 z"
         style="fill:#f0f7f9;fill-opacity:1;fill-rule:evenodd;stroke:none;stroke-width:1px;stroke-linecap:butt;stroke-linejoin:miter;stroke-opacity:1" />
      <path
         id="path4153"
         d="M 650 546.64844 L 516.42773 598.79102 C 501.5735 620.42901 517.53696 628.21484 535.35742 626.64844 C 572.98587 621.37674 648.28176 605.29246 675 565.21875 C 682.38606 553.12291 658.83889 549.59473 650 546.64844 z M 588.37891 579.12695 A 13.34023 22.49324 75.08988 0 1 604.77734 587.49219 A 13.34023 22.49324 75.08988 0 1 586.42773 606.15625 A 13.34023 22.49324 75.08988 0 1 561.29297 599.01758 A 13.34023 22.49324 75.08988 0 1 579.64453 580.35352 A 13.34023 22.49324 75.08988 0 1 588.37891 579.12695 z "
         style="fill:#f0f7f9;fill-opacity:1;fill-rule:evenodd;stroke:none;stroke-width:1px;stroke-linecap:butt;stroke-linejoin:miter;stroke-opacity:1" />
      <ellipse
         transform="matrix(0.97514507,-0.22156734,0.22156734,0.97514507,0,0)"
         ry="14.285714"
         rx="5"
         cy="563.76416"
         cx="529.09943"
         id="path4157"
         style="opacity:1;fill:#a0cdd9;fill-opacity:1;fill-rule:nonzero;stroke:none;stroke-width:3;stroke-linecap:round;stroke-linejoin:round;stroke-miterlimit:4;stroke-dasharray:none;stroke-opacity:1" />
      <ellipse
         transform="matrix(0.9877979,-0.15574113,0.15574113,0.9877979,0,0)"
         ry="12.857142"
         rx="7.1428571"
         cy="520.74786"
         cx="529.49872"
         id="path4159"
         style="opacity:1;fill:#a5cfdb;fill-opacity:1;fill-rule:nonzero;stroke:none;stroke-width:3;stroke-linecap:round;stroke-linejoin:round;stroke-miterlimit:4;stroke-dasharray:none;stroke-opacity:1" />
      <path
         sodipodi:nodetypes="cccc"
         inkscape:connector-curvature="0"
         id="path4161"
         d="m 650.51023,546.63292 c -27.82089,22.8301 -101.9974,44.08957 -101.9974,44.08957 0,0 71.32788,-10.40185 112.78258,-41.06174 -3.06811,-0.94801 -4.40977,-0.83487 -10.78518,-3.02783 z"
         style="fill:#a5cfdb;fill-opacity:1;fill-rule:evenodd;stroke:none;stroke-width:1px;stroke-linecap:butt;stroke-linejoin:miter;stroke-opacity:1" />
      <path
         sodipodi:nodetypes="cccc"
         inkscape:connector-curvature="0"
         id="path4163"
         d="m 464.28572,469.14792 c 6.95771,-3.9926 14.28571,-4.28572 14.28571,-4.28572 6.51169,6.22506 13.21429,42.5 13.21429,42.5 0,0 -15.40956,-31.21343 -27.5,-38.21428 z"
         style="fill:#a5cfdb;fill-opacity:1;fill-rule:evenodd;stroke:none;stroke-width:1px;stroke-linecap:butt;stroke-linejoin:miter;stroke-opacity:1" />
    </g>
  </g>
</svg>
