<?xml version="1.0" encoding="UTF-8" standalone="no"?>
<!-- Created with Inkscape (http://www.inkscape.org/) -->

<svg
   xmlns:dc="http://purl.org/dc/elements/1.1/"
   xmlns:cc="http://creativecommons.org/ns#"
   xmlns:rdf="http://www.w3.org/1999/02/22-rdf-syntax-ns#"
   xmlns:svg="http://www.w3.org/2000/svg"
   xmlns="http://www.w3.org/2000/svg"
   xmlns:xlink="http://www.w3.org/1999/xlink"
   xmlns:sodipodi="http://sodipodi.sourceforge.net/DTD/sodipodi-0.dtd"
   xmlns:inkscape="http://www.inkscape.org/namespaces/inkscape"
   width="95.787674"
   height="104.3055"
   id="svg5355"
   version="1.1"
   inkscape:version="0.48.4 r9939"
   sodipodi:docname="New document 35">
  <defs
     id="defs5357">
    <linearGradient
       inkscape:collect="always"
       xlink:href="#linearGradient5298"
       id="linearGradient5322"
       gradientUnits="userSpaceOnUse"
       x1="1388.5081"
       y1="2917.2263"
       x2="1404.1379"
       y2="2943.5132" />
    <linearGradient
       id="linearGradient5298">
      <stop
         id="stop5300"
         offset="0"
         style="stop-color:#b2321a;stop-opacity:1;" />
      <stop
         id="stop5302"
         offset="1"
         style="stop-color:#610a0a;stop-opacity:1;" />
    </linearGradient>
    <linearGradient
       y2="2943.5132"
       x2="1404.1379"
       y1="2917.2263"
       x1="1388.5081"
       gradientUnits="userSpaceOnUse"
       id="linearGradient5353"
       xlink:href="#linearGradient5298"
       inkscape:collect="always" />
  </defs>
  <sodipodi:namedview
     id="base"
     pagecolor="#ffffff"
     bordercolor="#666666"
     borderopacity="1.0"
     inkscape:pageopacity="0.0"
     inkscape:pageshadow="2"
     inkscape:zoom="0.35"
     inkscape:cx="-168.47797"
     inkscape:cy="-22.082933"
     inkscape:document-units="px"
     inkscape:current-layer="layer1"
     showgrid="false"
     fit-margin-top="0"
     fit-margin-left="0"
     fit-margin-right="0"
     fit-margin-bottom="0"
     inkscape:window-width="438"
     inkscape:window-height="409"
     inkscape:window-x="842"
     inkscape:window-y="18"
     inkscape:window-maximized="0" />
  <metadata
     id="metadata5360">
    <rdf:RDF>
      <cc:Work
         rdf:about="">
        <dc:format>image/svg+xml</dc:format>
        <dc:type
           rdf:resource="http://purl.org/dc/dcmitype/StillImage" />
        <dc:title></dc:title>
      </cc:Work>
    </rdf:RDF>
  </metadata>
  <g
     inkscape:label="Layer 1"
     inkscape:groupmode="layer"
     id="layer1"
     transform="translate(-543.47797,-405.97375)">
    <g
       style="display:inline"
       id="g5306"
       transform="translate(-800.55404,-2448.3145)">
      <path
         sodipodi:nodetypes="ssccs"
         inkscape:connector-curvature="0"
         id="rect5205"
         d="m 1357.9182,2914.7513 c 18.3683,-17.1262 41.6836,-22.7689 68.1312,-24.2365 14.0607,-0.7803 12.1934,46.3868 12.1934,46.3868 l -61.5752,20.1191 c 0,0 -29.0493,-32.666 -18.7494,-42.2694 z"
         style="fill:#5a0300;fill-opacity:1;stroke:#000000;stroke-width:2.72799993;stroke-miterlimit:4;stroke-opacity:1" />
      <g
         style="stroke:#000000;stroke-opacity:1"
         transform="matrix(-0.2545654,-0.50985846,0.58488682,-0.29202603,107.78829,4908.0977)"
         id="g5228">
        <path
           style="fill:#ca9b00;fill-opacity:1;stroke:#000000;stroke-opacity:1"
           d="m 2106.6045,3078.6036 c 58.9922,2.4686 98.6872,-2.5243 98.6872,-2.5243 l 0,8.4494 0,8.4494 c 0,0 5.1932,-2.546 -98.1188,-0.6513 -35.3512,-1.0132 -33.3071,-6.5735 -0.5684,-13.7232 z"
           id="path5230"
           inkscape:connector-curvature="0"
           sodipodi:nodetypes="cccccc" />
        <rect
           style="fill:#5a0300;fill-opacity:1;stroke:#000000;stroke-opacity:1"
           id="rect5232"
           width="16.898787"
           height="21.592896"
           x="2188.3931"
           y="3074.2017" />
      </g>
      <g
         id="g5234"
         transform="matrix(-0.2545654,-0.50985846,0.58488682,-0.29202603,119.15078,4894.5085)"
         style="stroke:#000000;stroke-opacity:1">
        <path
           sodipodi:nodetypes="cccccc"
           inkscape:connector-curvature="0"
           id="path5236"
           d="m 2106.6045,3078.6036 c 58.9922,2.4686 98.6872,-2.5243 98.6872,-2.5243 l 0,8.4494 0,8.4494 c 0,0 5.1932,-2.546 -98.1188,-0.6513 -35.3512,-1.0132 -33.3071,-6.5735 -0.5684,-13.7232 z"
           style="fill:#ca9b00;fill-opacity:1;stroke:#000000;stroke-opacity:1" />
        <rect
           y="3074.2017"
           x="2188.3931"
           height="21.592896"
           width="16.898787"
           id="rect5238"
           style="fill:#5a0300;fill-opacity:1;stroke:#000000;stroke-opacity:1" />
      </g>
      <g
         style="stroke:#000000;stroke-opacity:1"
         transform="matrix(-0.2545654,-0.50985846,0.58488682,-0.29202603,136.9457,4897.5832)"
         id="g5240">
        <path
           style="fill:#ca9b00;fill-opacity:1;stroke:#000000;stroke-opacity:1"
           d="m 2106.6045,3078.6036 c 58.9922,2.4686 98.6872,-2.5243 98.6872,-2.5243 l 0,8.4494 0,8.4494 c 0,0 5.1932,-2.546 -98.1188,-0.6513 -35.3512,-1.0132 -33.3071,-6.5735 -0.5684,-13.7232 z"
           id="path5242"
           inkscape:connector-curvature="0"
           sodipodi:nodetypes="cccccc" />
        <rect
           style="fill:#5a0300;fill-opacity:1;stroke:#000000;stroke-opacity:1"
           id="rect5244"
           width="16.898787"
           height="21.592896"
           x="2188.3931"
           y="3074.2017" />
      </g>
      <g
         id="g5246"
         transform="matrix(-0.2545654,-0.50985846,0.58488682,-0.29202603,150.98538,4883.1192)"
         style="stroke:#000000;stroke-opacity:1">
        <path
           sodipodi:nodetypes="cccccc"
           inkscape:connector-curvature="0"
           id="path5248"
           d="m 2106.6045,3078.6036 c 58.9922,2.4686 98.6872,-2.5243 98.6872,-2.5243 l 0,8.4494 0,8.4494 c 0,0 5.1932,-2.546 -98.1188,-0.6513 -35.3512,-1.0132 -33.3071,-6.5735 -0.5684,-13.7232 z"
           style="fill:#ca9b00;fill-opacity:1;stroke:#000000;stroke-opacity:1" />
        <rect
           y="3074.2017"
           x="2188.3931"
           height="21.592896"
           width="16.898787"
           id="rect5250"
           style="fill:#5a0300;fill-opacity:1;stroke:#000000;stroke-opacity:1" />
      </g>
      <path
         style="fill:url(#linearGradient5353);fill-opacity:1;stroke:#000000;stroke-width:2.51927066;stroke-miterlimit:4;stroke-opacity:1"
         d="m 1365.4559,2922.9931 c 18.9184,-15.6429 38.2583,-24.5279 61.7432,-20.174 13.7545,2.55 11.1596,34.1545 11.1596,34.1545 l -61.7432,20.174 c 0,0 -21.7678,-25.3829 -11.1596,-34.1545 z"
         id="path5208"
         inkscape:connector-curvature="0"
         sodipodi:nodetypes="ssccs" />
    </g>
  </g>
</svg>
