<?xml version="1.0" encoding="UTF-8" standalone="no"?>
<!-- Created with Inkscape (http://www.inkscape.org/) -->

<svg
   xmlns:dc="http://purl.org/dc/elements/1.1/"
   xmlns:cc="http://creativecommons.org/ns#"
   xmlns:rdf="http://www.w3.org/1999/02/22-rdf-syntax-ns#"
   xmlns:svg="http://www.w3.org/2000/svg"
   xmlns="http://www.w3.org/2000/svg"
   xmlns:xlink="http://www.w3.org/1999/xlink"
   xmlns:sodipodi="http://sodipodi.sourceforge.net/DTD/sodipodi-0.dtd"
   xmlns:inkscape="http://www.inkscape.org/namespaces/inkscape"
   width="314.52765"
   height="274.13559"
   id="svg4944"
   version="1.1"
   inkscape:version="0.48.4 r9939"
   sodipodi:docname="New document 4">
  <defs
     id="defs4946">
    <linearGradient
       inkscape:collect="always"
       xlink:href="#linearGradient4899"
       id="linearGradient4905"
       x1="1484.9633"
       y1="3528.7407"
       x2="1455.5094"
       y2="3499.7551"
       gradientUnits="userSpaceOnUse" />
    <linearGradient
       inkscape:collect="always"
       id="linearGradient4899">
      <stop
         style="stop-color:#b3b3b3;stop-opacity:1;"
         offset="0"
         id="stop4901" />
      <stop
         style="stop-color:#b3b3b3;stop-opacity:0;"
         offset="1"
         id="stop4903" />
    </linearGradient>
    <linearGradient
       inkscape:collect="always"
       xlink:href="#linearGradient4889"
       id="linearGradient4895"
       x1="1273.8247"
       y1="3307.8435"
       x2="1307.8308"
       y2="3343.3293"
       gradientUnits="userSpaceOnUse" />
    <linearGradient
       inkscape:collect="always"
       id="linearGradient4889">
      <stop
         style="stop-color:#1a1a1a;stop-opacity:1;"
         offset="0"
         id="stop4891" />
      <stop
         style="stop-color:#e6e6e6;stop-opacity:1"
         offset="1"
         id="stop4893" />
    </linearGradient>
    <linearGradient
       y2="3343.3293"
       x2="1307.8308"
       y1="3307.8435"
       x1="1273.8247"
       gradientUnits="userSpaceOnUse"
       id="linearGradient4942"
       xlink:href="#linearGradient4889"
       inkscape:collect="always" />
  </defs>
  <sodipodi:namedview
     id="base"
     pagecolor="#ffffff"
     bordercolor="#666666"
     borderopacity="1.0"
     inkscape:pageopacity="0.0"
     inkscape:pageshadow="2"
     inkscape:zoom="0.35"
     inkscape:cx="157.28254"
     inkscape:cy="137.06824"
     inkscape:document-units="px"
     inkscape:current-layer="layer1"
     showgrid="false"
     fit-margin-top="0"
     fit-margin-left="0"
     fit-margin-right="0"
     fit-margin-bottom="0"
     inkscape:window-width="438"
     inkscape:window-height="409"
     inkscape:window-x="696"
     inkscape:window-y="370"
     inkscape:window-maximized="0" />
  <metadata
     id="metadata4949">
    <rdf:RDF>
      <cc:Work
         rdf:about="">
        <dc:format>image/svg+xml</dc:format>
        <dc:type
           rdf:resource="http://purl.org/dc/dcmitype/StillImage" />
        <dc:title></dc:title>
      </cc:Work>
    </rdf:RDF>
  </metadata>
  <g
     inkscape:label="Layer 1"
     inkscape:groupmode="layer"
     id="layer1"
     transform="translate(-217.71746,-395.29485)">
    <g
       transform="translate(-1007.2252,-2879.1739)"
       style="display:inline"
       id="g4907">
      <path
         sodipodi:nodetypes="sssss"
         inkscape:connector-curvature="0"
         id="path3952"
         d="m 1507.6625,3539.4751 c -81.022,7.1282 -97.5644,0.7639 -126.3672,4.1946 -23.314,2.7768 -82.4395,4.4039 -53.2256,-8.6255 38.0393,-16.9654 149.0614,-58.7149 191.6016,-65.4719 18.0312,-2.8642 6.1431,68.3058 -12.0088,69.9028 z"
         style="fill:#eff4eb;fill-opacity:1;stroke:#282d19;stroke-width:6;stroke-miterlimit:4;stroke-opacity:1;stroke-dasharray:none" />
      <path
         style="opacity:0.41176471;fill:url(#linearGradient4905);fill-opacity:1;stroke:none"
         d="m 1507.0582,3537.7991 c -80.0132,6.5609 -98.0802,-3.1905 -126.5244,-0.033 -23.0237,2.5558 -81.4131,4.0534 -52.5629,-7.9391 37.5657,-15.6153 147.2055,-54.0423 189.2161,-60.2616 17.8067,-2.6363 7.7971,66.7636 -10.1288,68.2335 z"
         id="path4897"
         inkscape:connector-curvature="0"
         sodipodi:nodetypes="sssss" />
      <path
         sodipodi:nodetypes="sssss"
         inkscape:connector-curvature="0"
         id="rect3912"
         d="m 1257.2083,3487.9126 c 139.9697,-37.8701 179.7737,-95.6087 257.8445,-72.681 46.7995,13.744 4.6217,71.5203 -48.454,84.7945 -82.8204,20.7133 -131.7188,51.7141 -209.3905,43.2625 -33.26,-3.6191 -32.2952,-46.6382 0,-55.376 z"
         style="fill:#ffd5d5;fill-opacity:1;stroke:#282d19;stroke-width:6;stroke-miterlimit:4;stroke-opacity:1;stroke-dasharray:none" />
      <path
         style="fill:#f6ffd5;fill-opacity:1;stroke:#282d19;stroke-width:6;stroke-miterlimit:4;stroke-opacity:1;stroke-dasharray:none"
         d="m 1257.2083,3429.0756 c 139.9697,-37.8701 191.4112,-79.3944 244.0005,-86.525 42.5678,-5.7718 44.3338,68.6526 6.922,72.681 -76.3008,8.2158 -181.9033,67.2886 -259.575,81.3335 -32.9224,5.9532 -23.6427,-58.7517 8.6525,-67.4895 z"
         id="path3918"
         inkscape:connector-curvature="0"
         sodipodi:nodetypes="sssss" />
      <path
         sodipodi:nodetypes="sssss"
         inkscape:connector-curvature="0"
         id="path3922"
         d="m 1258.9388,3366.7776 c 139.9697,-37.8701 191.4112,-79.3944 244.0005,-86.525 42.5678,-5.7718 44.3338,68.6526 6.922,72.681 -76.3008,8.2158 -181.9033,67.2886 -259.575,81.3335 -32.9224,5.9532 -23.6427,-58.7517 8.6525,-67.4895 z"
         style="fill:#ccffaa;fill-opacity:1;stroke:#282d19;stroke-width:6;stroke-miterlimit:4;stroke-opacity:1;stroke-dasharray:none" />
      <path
         style="fill:#d7f4ee;fill-opacity:1;stroke:#282d19;stroke-width:6;stroke-miterlimit:4;stroke-opacity:1;stroke-dasharray:none"
         d="m 1257.1677,3285.1162 c 96.4324,-8.8973 116.1212,-0.9535 150.4022,-5.2355 27.7484,-3.466 98.1196,-5.4969 63.3492,10.7661 -45.2743,21.1759 -177.4129,73.287 -228.0442,81.721 -21.4608,3.575 -7.3116,-85.2583 14.2928,-87.2516 z"
         id="path3949"
         inkscape:connector-curvature="0"
         sodipodi:nodetypes="sssss" />
      <path
         sodipodi:nodetypes="sssss"
         inkscape:connector-curvature="0"
         id="path4879"
         d="m 1256.9151,3287.6062 c 90.7261,-7.5221 112.9208,-0.8062 145.1732,-4.4263 26.1064,-2.9302 92.3135,-4.6472 59.6006,9.102 -42.5953,17.9027 -173.0329,69.3009 -220.6681,76.4312 -20.1909,3.0224 -4.4316,-79.4217 15.8943,-81.1069 z"
         style="opacity:0.15508022;fill:url(#linearGradient4942);fill-opacity:1;stroke:none" />
    </g>
  </g>
</svg>
