<?xml version="1.0" encoding="UTF-8" standalone="no"?>
<!-- Created with Inkscape (http://www.inkscape.org/) -->

<svg
   xmlns:dc="http://purl.org/dc/elements/1.1/"
   xmlns:cc="http://creativecommons.org/ns#"
   xmlns:rdf="http://www.w3.org/1999/02/22-rdf-syntax-ns#"
   xmlns:svg="http://www.w3.org/2000/svg"
   xmlns="http://www.w3.org/2000/svg"
   xmlns:xlink="http://www.w3.org/1999/xlink"
   xmlns:sodipodi="http://sodipodi.sourceforge.net/DTD/sodipodi-0.dtd"
   xmlns:inkscape="http://www.inkscape.org/namespaces/inkscape"
   width="153.18082"
   height="168.57446"
   id="svg5072"
   version="1.1"
   inkscape:version="0.48.4 r9939"
   sodipodi:docname="New document 8">
  <defs
     id="defs5074">
    <linearGradient
       inkscape:collect="always"
       xlink:href="#linearGradient4776"
       id="linearGradient4871"
       gradientUnits="userSpaceOnUse"
       x1="1258.8066"
       y1="3590.3831"
       x2="1258.8584"
       y2="3595.5835" />
    <linearGradient
       inkscape:collect="always"
       id="linearGradient4776">
      <stop
         style="stop-color:#ff7f2a;stop-opacity:1;"
         offset="0"
         id="stop4778" />
      <stop
         style="stop-color:#ff7f2a;stop-opacity:0;"
         offset="1"
         id="stop4780" />
    </linearGradient>
    <linearGradient
       inkscape:collect="always"
       xlink:href="#linearGradient4776"
       id="linearGradient4873"
       gradientUnits="userSpaceOnUse"
       x1="1286.156"
       y1="3596.1572"
       x2="1302.6001"
       y2="3596.1572" />
  </defs>
  <sodipodi:namedview
     id="base"
     pagecolor="#ffffff"
     bordercolor="#666666"
     borderopacity="1.0"
     inkscape:pageopacity="0.0"
     inkscape:pageshadow="2"
     inkscape:zoom="0.35"
     inkscape:cx="76.431133"
     inkscape:cy="84.847867"
     inkscape:document-units="px"
     inkscape:current-layer="layer1"
     showgrid="false"
     fit-margin-top="0"
     fit-margin-left="0"
     fit-margin-right="0"
     fit-margin-bottom="0"
     inkscape:window-width="438"
     inkscape:window-height="409"
     inkscape:window-x="696"
     inkscape:window-y="370"
     inkscape:window-maximized="0" />
  <metadata
     id="metadata5077">
    <rdf:RDF>
      <cc:Work
         rdf:about="">
        <dc:format>image/svg+xml</dc:format>
        <dc:type
           rdf:resource="http://purl.org/dc/dcmitype/StillImage" />
        <dc:title></dc:title>
      </cc:Work>
    </rdf:RDF>
  </metadata>
  <g
     inkscape:label="Layer 1"
     inkscape:groupmode="layer"
     id="layer1"
     transform="translate(-298.56887,-448.63559)">
    <g
       transform="matrix(-0.4870452,-0.40692435,-0.39723149,0.53455576,2430.3399,-745.37155)"
       id="g4851"
       style="stroke-width:9.23628044;stroke-miterlimit:4;stroke-dasharray:none;display:inline">
      <g
         id="g4853"
         transform="translate(29.36756,-118.69389)"
         style="stroke-width:9.23628044;stroke-miterlimit:4;stroke-dasharray:none">
        <path
           sodipodi:nodetypes="cccc"
           inkscape:connector-curvature="0"
           id="path4855"
           d="m 1297.8751,3588.2816 c 0,0 186.0212,-20.305 244.0005,-36.3405 -102.9572,58.376 -151.7981,42.0006 -242.27,53.6455 z"
           style="fill:#e3dbdb;fill-opacity:1;stroke:#282d19;stroke-width:9.23628044;stroke-miterlimit:4;stroke-opacity:1;stroke-dasharray:none" />
        <path
           style="fill:#ffffff;fill-opacity:1;stroke:none"
           d="m 1498.1186,3568.0102 c -78.9462,33.1744 -116.3968,23.8684 -185.7695,30.4861 31.9585,-10.2103 139.8357,-21.6755 185.7695,-30.4861 z"
           id="path4857"
           inkscape:connector-curvature="0"
           sodipodi:nodetypes="ccc" />
      </g>
      <g
         id="g4859"
         transform="translate(29.36756,-118.69389)"
         style="stroke-width:9.23628044;stroke-miterlimit:4;stroke-dasharray:none">
        <path
           sodipodi:nodetypes="ccccc"
           inkscape:connector-curvature="0"
           id="path4861"
           d="m 1222.709,3589.9159 68.8819,-0.8716 c -0.4356,10.7352 -1.2957,18.5849 -1.2957,18.5849 l -66.9383,-1.7432 z"
           style="fill:#552200;fill-opacity:1;stroke:#282d19;stroke-width:9.23628044;stroke-miterlimit:4;stroke-opacity:1;stroke-dasharray:none" />
        <path
           style="opacity:0.38043482;fill:url(#linearGradient4871);fill-opacity:1;stroke:none"
           d="m 1222.709,3589.9159 68.8819,-0.8716 c -0.4356,10.7352 -1.2957,18.5849 -1.2957,18.5849 l -66.9383,-1.7432 z"
           id="path4863"
           inkscape:connector-curvature="0"
           sodipodi:nodetypes="ccccc" />
      </g>
      <g
         id="g4865"
         transform="translate(29.36756,-118.69389)"
         style="stroke-width:9.23628044;stroke-miterlimit:4;stroke-dasharray:none">
        <path
           style="fill:#ffff00;fill-opacity:1;stroke:#282d19;stroke-width:9.23628044;stroke-miterlimit:4;stroke-opacity:1;stroke-dasharray:none"
           d="m 1297.1867,3560.1262 c 8.4743,9.2476 4.4664,71.8458 4.4664,71.8458 -9.8763,9.1103 -5.037,9.665 -12.9518,-0.4853 1.1315,-15.6673 0.9636,-54.5526 -2.5453,-69.9394 7.0451,-10.6578 2.5564,-10.6688 11.0307,-1.4211 z"
           id="path4867"
           inkscape:connector-curvature="0"
           sodipodi:nodetypes="zcccz" />
        <path
           sodipodi:nodetypes="zcccz"
           inkscape:connector-curvature="0"
           id="path4869"
           d="m 1297.1867,3560.1262 c 8.4743,9.2476 4.4664,71.8458 4.4664,71.8458 -9.8763,9.1103 -5.037,9.665 -12.9518,-0.4853 1.1315,-15.6673 0.9636,-54.5526 -2.5453,-69.9394 7.0451,-10.6578 2.5564,-10.6688 11.0307,-1.4211 z"
           style="opacity:0.39130435;fill:url(#linearGradient4873);fill-opacity:1;stroke:none" />
      </g>
    </g>
    <path
       sodipodi:nodetypes="sscsssscs"
       inkscape:connector-curvature="0"
       id="path4877"
       d="m 430.31375,565.06388 c -6.4294,-3.8158 -9.6788,1.6483 -16.4839,6.9769 -4.5164,3.5366 -18.2987,18.845 -12.2151,26.2806 4.7791,5.0714 15.2086,-13.7874 16.2462,-12.6683 1.0086,1.0877 -15.9672,12.9131 -7.7578,20.6356 7.1302,6.7077 18.5696,-12.4562 18.7767,-10.4199 0.2078,2.036 -19.2277,13.6801 -7.323,17.9753 10.5191,3.7954 27.7641,-23.0282 27.1475,-26.5235 -1.1143,-7.195 -11.9611,-18.4408 -18.3906,-22.2567 z"
       style="fill:#ffffff;fill-opacity:1;stroke:#000000;stroke-width:6;stroke-miterlimit:4;stroke-opacity:0.98692812;stroke-dasharray:none;display:inline" />
  </g>
</svg>
