<?xml version="1.0" encoding="UTF-8" standalone="no"?>
<!-- Created with Inkscape (http://www.inkscape.org/) -->

<svg
   xmlns:dc="http://purl.org/dc/elements/1.1/"
   xmlns:cc="http://creativecommons.org/ns#"
   xmlns:rdf="http://www.w3.org/1999/02/22-rdf-syntax-ns#"
   xmlns:svg="http://www.w3.org/2000/svg"
   xmlns="http://www.w3.org/2000/svg"
   xmlns:sodipodi="http://sodipodi.sourceforge.net/DTD/sodipodi-0.dtd"
   xmlns:inkscape="http://www.inkscape.org/namespaces/inkscape"
   width="81.727417"
   height="31.217007"
   id="svg5346"
   version="1.1"
   inkscape:version="0.48.4 r9939"
   sodipodi:docname="New document 24">
  <defs
     id="defs5348" />
  <sodipodi:namedview
     id="base"
     pagecolor="#ffffff"
     bordercolor="#666666"
     borderopacity="1.0"
     inkscape:pageopacity="0.0"
     inkscape:pageshadow="2"
     inkscape:zoom="0.35"
     inkscape:cx="40.863597"
     inkscape:cy="15.603276"
     inkscape:document-units="px"
     inkscape:current-layer="layer1"
     showgrid="false"
     fit-margin-top="0"
     fit-margin-left="0"
     fit-margin-right="0"
     fit-margin-bottom="0"
     inkscape:window-width="438"
     inkscape:window-height="389"
     inkscape:window-x="135"
     inkscape:window-y="18"
     inkscape:window-maximized="0" />
  <metadata
     id="metadata5351">
    <rdf:RDF>
      <cc:Work
         rdf:about="">
        <dc:format>image/svg+xml</dc:format>
        <dc:type
           rdf:resource="http://purl.org/dc/dcmitype/StillImage" />
        <dc:title></dc:title>
      </cc:Work>
    </rdf:RDF>
  </metadata>
  <g
     inkscape:label="Layer 1"
     inkscape:groupmode="layer"
     id="layer1"
     transform="translate(-334.1364,-516.74845)">
    <g
       style="display:inline"
       id="g4973"
       transform="matrix(0.57935235,0,0,0.82255089,135.56722,-1870.9206)">
      <path
         sodipodi:nodetypes="ccccccc"
         inkscape:connector-curvature="0"
         id="rect4968"
         d="m 359.48967,2916.0762 c 18.37728,-0.2871 84.72518,2.2199 105.04775,0.9487 9.9821,-21.6776 28.36882,1.5607 3.87779,5.8796 20.41283,3.7388 4.8346,26.1114 -2.22256,7.977 -27.0985,-0.9383 -79.78455,-0.9419 -105.10762,-1.8249 -5.46414,19.61 -30.56754,-8.0958 -3.82934,-6.7449 -27.01195,-3.1821 3.12206,-32.0764 2.23398,-6.2355 z"
         style="fill:#ffffff;fill-opacity:1;stroke:#5a2912;stroke-width:4;stroke-miterlimit:4;stroke-opacity:1;stroke-dasharray:none" />
      <path
         style="opacity:0.64171125;fill:#98f3eb;fill-opacity:1;stroke:#98f3eb;stroke-width:5;stroke-miterlimit:4;stroke-opacity:1;stroke-dasharray:none"
         d="m 359.22371,2913.52 c 18.54331,-0.3249 85.49065,2.5128 105.99682,1.0739 8.12548,-16.3177 29.49038,3.7134 3.91283,6.6553 20.59725,4.2321 1.8499,29.5564 -2.24264,9.0295 -27.34333,1.3173 -80.07275,-0.4173 -105.6246,-1.4168 -5.51351,22.1973 -29.54584,-7.217 -4.29657,-8.2837 -28.55386,-1.4388 4.23183,-28.5211 2.25416,-7.0582 z"
         id="path4971"
         inkscape:connector-curvature="0"
         sodipodi:nodetypes="ccccccc" />
    </g>
  </g>
</svg>
