<?xml version="1.0" encoding="UTF-8" standalone="no"?>
<!-- Created with Inkscape (http://www.inkscape.org/) -->

<svg
   xmlns:dc="http://purl.org/dc/elements/1.1/"
   xmlns:cc="http://creativecommons.org/ns#"
   xmlns:rdf="http://www.w3.org/1999/02/22-rdf-syntax-ns#"
   xmlns:svg="http://www.w3.org/2000/svg"
   xmlns="http://www.w3.org/2000/svg"
   xmlns:sodipodi="http://sodipodi.sourceforge.net/DTD/sodipodi-0.dtd"
   xmlns:inkscape="http://www.inkscape.org/namespaces/inkscape"
   width="101.208"
   height="33.943363"
   id="svg5550"
   version="1.1"
   inkscape:version="0.48.4 r9939"
   sodipodi:docname="New document 37">
  <defs
     id="defs5552" />
  <sodipodi:namedview
     id="base"
     pagecolor="#ffffff"
     bordercolor="#666666"
     borderopacity="1.0"
     inkscape:pageopacity="0.0"
     inkscape:pageshadow="2"
     inkscape:zoom="0.35"
     inkscape:cx="50.604"
     inkscape:cy="16.97168"
     inkscape:document-units="px"
     inkscape:current-layer="layer1"
     showgrid="false"
     fit-margin-top="0"
     fit-margin-left="0"
     fit-margin-right="0"
     fit-margin-bottom="0"
     inkscape:window-width="438"
     inkscape:window-height="389"
     inkscape:window-x="842"
     inkscape:window-y="390"
     inkscape:window-maximized="0" />
  <metadata
     id="metadata5555">
    <rdf:RDF>
      <cc:Work
         rdf:about="">
        <dc:format>image/svg+xml</dc:format>
        <dc:type
           rdf:resource="http://purl.org/dc/dcmitype/StillImage" />
        <dc:title></dc:title>
      </cc:Work>
    </rdf:RDF>
  </metadata>
  <g
     inkscape:label="Layer 1"
     inkscape:groupmode="layer"
     id="layer1"
     transform="translate(-324.396,-515.3905)">
    <path
       style="fill:#000000;fill-opacity:1;stroke:none;display:inline"
       id="path5044"
       d="m 328.60197,545.35541 c 5.17103,0.8344 10.42135,0.9406 15.64198,1.0632 6.53163,0.082 13.06499,0.2167 19.59543,0.027 3.60631,-0.1442 6.59951,-1.2296 9.83491,-2.7676 0.44308,-0.2106 -1.60087,1.0558 -1.33073,0.6285 0.52137,-0.8248 1.46937,-1.2371 2.14814,-1.9216 0.65095,-0.6565 1.22242,-1.396 1.83364,-2.0939 2.86883,-3.7158 3.92302,-8.1855 4.35908,-12.8521 0.0702,-3.4441 1.08159,-5.0112 -1.91933,-7.1112 -3.55128,-1.5957 -7.51669,-1.6748 -11.32082,-1.8048 -1.34415,0.1525 -2.78792,-0.2396 -4.12815,0 -0.31883,0.056 -1.19162,0.5228 -0.91,0.3548 4.32193,-2.5778 4.51619,-3.0527 3.02316,-1.1566 -1.29881,2.3273 -1.60165,5.0371 -1.76619,7.6849 -0.0913,1.713 -0.0587,3.4294 -0.049,5.1439 -0.0358,2.9407 3.67665,3.7641 5.75029,4.5045 4.73066,1.4443 9.65103,1.8618 14.5452,2.1192 5.78971,0.2502 11.57161,0.3474 17.3427,-0.2425 5.82059,-0.9858 11.22446,-3.5203 16.56827,-6.0356 5.62029,-2.9091 -1.212,0.6491 3.62793,-1.9323 0.45638,-0.2434 1.81245,-0.9952 1.37984,-0.7072 -1.05413,0.7016 -4.31939,2.6251 -3.24906,1.9514 0.89285,-0.5619 4.17473,-2.5571 6.02474,-3.6823 0,0 -4.01662,3.439 -4.01662,3.439 l 0,0 c -1.86448,1.1101 -0.95026,0.5701 2.71202,-1.677 -3.3521,1.9945 -6.62103,4.0927 -10.16184,5.6953 -5.31008,2.4319 -10.6773,4.8889 -16.45569,5.7494 -5.85734,0.5649 -11.72988,0.6063 -17.60661,0.3587 -4.93138,-0.2888 -9.8623,-0.8268 -14.64479,-2.2 -2.30812,-0.717 -6.39306,-1.5986 -6.45371,-4.8353 -0.0102,-1.7486 0.002,-3.498 0.13278,-5.2422 0.24898,-2.7103 0.50969,-5.4635 1.63564,-7.9545 2.99076,-4.7075 6.34477,-4.6409 10.67534,-4.3631 3.87904,0.2294 7.93443,0.383 11.55698,1.9799 3.32097,2.3667 2.3092,3.8578 2.09029,7.6694 -0.60453,4.7784 -1.51997,9.408 -4.48238,13.2574 -5.38499,6.3104 -12.19794,10.2436 -20.25398,10.7644 -6.56674,0.2901 -13.14062,0.1377 -19.71089,0.028 -5.41113,-0.1366 -10.82704,-0.2345 -16.22454,-0.6971 0,0 4.20602,-3.1397 4.20602,-3.1397 z"
       inkscape:connector-curvature="0" />
  </g>
</svg>
