<?xml version="1.0" encoding="UTF-8" standalone="no"?>
<!-- Created with Inkscape (http://www.inkscape.org/) -->

<svg
   xmlns:dc="http://purl.org/dc/elements/1.1/"
   xmlns:cc="http://creativecommons.org/ns#"
   xmlns:rdf="http://www.w3.org/1999/02/22-rdf-syntax-ns#"
   xmlns:svg="http://www.w3.org/2000/svg"
   xmlns="http://www.w3.org/2000/svg"
   xmlns:sodipodi="http://sodipodi.sourceforge.net/DTD/sodipodi-0.dtd"
   xmlns:inkscape="http://www.inkscape.org/namespaces/inkscape"
   width="210mm"
   height="297mm"
   viewBox="0 0 744.09448819 1052.3622047"
   id="svg35377"
   version="1.1"
   inkscape:version="0.91 r13725"
   sodipodi:docname="spaceship.svg">
  <defs
     id="defs35379">
    <filter
       inkscape:collect="always"
       id="filter4304-9"
       x="-0.45415086"
       width="1.9083017"
       y="-0.50195694"
       height="2.0039139"
       style="color-interpolation-filters:sRGB">
      <feGaussianBlur
         inkscape:collect="always"
         stdDeviation="3.7315067"
         id="feGaussianBlur4306-3" />
    </filter>
    <filter
       inkscape:collect="always"
       id="filter4304-4"
       x="-0.45415086"
       width="1.9083017"
       y="-0.50195694"
       height="2.0039139"
       style="color-interpolation-filters:sRGB">
      <feGaussianBlur
         inkscape:collect="always"
         stdDeviation="3.7315067"
         id="feGaussianBlur4306-9" />
    </filter>
  </defs>
  <sodipodi:namedview
     id="base"
     pagecolor="#ffffff"
     bordercolor="#666666"
     borderopacity="1.0"
     inkscape:pageopacity="0.0"
     inkscape:pageshadow="2"
     inkscape:zoom="0.98994949"
     inkscape:cx="263.78784"
     inkscape:cy="440.68594"
     inkscape:document-units="px"
     inkscape:current-layer="layer1"
     showgrid="true"
     inkscape:window-width="1920"
     inkscape:window-height="1001"
     inkscape:window-x="-9"
     inkscape:window-y="-9"
     inkscape:window-maximized="1">
    <inkscape:grid
       type="xygrid"
       id="grid35927" />
  </sodipodi:namedview>
  <metadata
     id="metadata35382">
    <rdf:RDF>
      <cc:Work
         rdf:about="">
        <dc:format>image/svg+xml</dc:format>
        <dc:type
           rdf:resource="http://purl.org/dc/dcmitype/StillImage" />
        <dc:title></dc:title>
      </cc:Work>
    </rdf:RDF>
  </metadata>
  <g
     inkscape:label="Layer 1"
     inkscape:groupmode="layer"
     id="layer1">
    <path
       style="fill:#f10000;fill-opacity:1;fill-rule:evenodd;stroke:#000000;stroke-width:5;stroke-linecap:butt;stroke-linejoin:miter;stroke-miterlimit:4;stroke-dasharray:none;stroke-opacity:1"
       d="m 99.086273,665.98439 20.505077,48.5863 c 0,0 -55.505077,-13.5863 -30.505077,201.4137 -105.000003,-205 10,-250 10,-250 z"
       id="path35931"
       inkscape:connector-curvature="0"
       sodipodi:nodetypes="cccc" />
    <path
       style="fill:#f10000;fill-opacity:1;fill-rule:evenodd;stroke:#000000;stroke-width:5;stroke-linecap:butt;stroke-linejoin:miter;stroke-miterlimit:4;stroke-dasharray:none;stroke-opacity:1"
       d="m 412.84653,663.84154 -20.50508,48.5863 c 0,0 55.50508,-13.5863 30.50508,201.4137 105,-205 -10,-250 -10,-250 z"
       id="path35931-0"
       inkscape:connector-curvature="0"
       sodipodi:nodetypes="cccc" />
    <path
       style="fill:#ffffff;fill-opacity:1;fill-rule:evenodd;stroke:#000000;stroke-width:5;stroke-linecap:butt;stroke-linejoin:miter;stroke-miterlimit:4;stroke-dasharray:none;stroke-opacity:1"
       d="m 250.09642,239.1733 c -60,38.23966 -299.999997,218.23966 -78.57143,578.23966 115.71428,0 91.42857,0 161.42857,1.42858 C 570.09642,457.41296 310.09642,277.41296 250.09642,239.1733 Z"
       id="path35925"
       inkscape:connector-curvature="0"
       sodipodi:nodetypes="cccc" />
    <path
       style="fill:#f10000;fill-opacity:1;fill-rule:evenodd;stroke:#000000;stroke-width:5;stroke-linecap:butt;stroke-linejoin:miter;stroke-miterlimit:4;stroke-dasharray:none;stroke-opacity:1"
       d="m 110.09642,397.41296 287.14286,-0.35714 c 0,0 -27.14286,-79.64286 -147.14286,-159.64286 -115,80 -140,160 -140,160 z"
       id="path35929"
       inkscape:connector-curvature="0"
       sodipodi:nodetypes="cccc" />
    <rect
       style="opacity:1;fill:#f10000;fill-opacity:1;fill-rule:nonzero;stroke:#000000;stroke-width:5;stroke-linecap:round;stroke-linejoin:round;stroke-miterlimit:4;stroke-dasharray:none;stroke-opacity:1"
       id="rect35948"
       width="10"
       height="260"
       x="251.20808"
       y="657.41296" />
    <g
       id="g36012"
       transform="matrix(0.5129984,0,0,0.5129984,575.81503,175.64199)">
      <path
         style="fill:#ffb8b8;fill-opacity:1;stroke:#000000;stroke-width:4.81242895;stroke-miterlimit:4;stroke-dasharray:none;stroke-opacity:1"
         d="m 58.171621,441.50219 c -37.34527,-0.1733 -55.53264,-36.3729 -47.4029,-76.1063 8.12974,-39.7334 60.487,-72.0496 97.569699,-66.7961 62.3,8.8259 86.2079,58.0395 78.0782,97.7729 -4.0601,19.8429 -25.0235,37.9682 -41.3768,43.203 -27.5018,8.8038 -57.878199,2.0609 -86.868199,1.9265 z"
         id="path4430"
         inkscape:connector-curvature="0"
         sodipodi:nodetypes="ssssss" />
      <path
         sodipodi:open="true"
         sodipodi:end="1.7876863"
         sodipodi:start="1.7893773"
         d="m 1016.4837,2981.5154 a 9.857626,8.9188042 0 0 1 -7.4864,-10.6369 9.857626,8.9188042 0 0 1 11.7534,-6.7779 9.857626,8.9188042 0 0 1 7.4964,10.6312 9.857626,8.9188042 0 0 1 -11.7471,6.7869"
         sodipodi:ry="8.9188042"
         sodipodi:rx="9.857626"
         sodipodi:cy="2972.8088"
         sodipodi:cx="1018.6213"
         id="path4436-8"
         style="fill:#ff5c69;fill-opacity:1;stroke:none;filter:url(#filter4304-4)"
         sodipodi:type="arc"
         transform="matrix(0.86278444,0,0,0.85557656,-702.99017,-2154.4563)" />
      <path
         sodipodi:nodetypes="csccc"
         inkscape:connector-curvature="0"
         id="path4140"
         d="m 14.130291,362.75285 c -6.01128,8.68556 -5.44864,60.10518 21.89511,71.70123 20.72472,8.78902 81.733809,13.42912 115.635509,-0.0201 -70.203249,5.04821 -134.555059,-6.79523 -137.530619,-71.6811 z"
         style="fill:#ff9595;fill-opacity:1;fill-rule:evenodd;stroke:none;stroke-width:1px;stroke-linecap:butt;stroke-linejoin:miter;stroke-opacity:1" />
      <path
         inkscape:export-ydpi="22.5"
         inkscape:export-xdpi="22.5"
         inkscape:export-filename="/home/ruijan/Pixelnos/MallowsVsDango/Resources/res/dango/eyes.png"
         style="fill:#000000;fill-opacity:1;stroke:none"
         d="m 155.29779,356.28051 c 4.2901,4.15148 13.22259,20.73395 10.21448,27.21312 -4.2339,3.2431 -20.56397,-32.61442 -10.21448,-27.21312 z"
         id="path4432-8"
         inkscape:connector-curvature="0"
         sodipodi:nodetypes="ccc" />
      <path
         inkscape:export-ydpi="22.5"
         inkscape:export-xdpi="22.5"
         inkscape:export-filename="/home/ruijan/Pixelnos/MallowsVsDango/Resources/res/dango/eyes.png"
         sodipodi:nodetypes="ccc"
         inkscape:connector-curvature="0"
         id="path4438-0"
         d="m 131.95398,364.03355 c 4.74541,4.34258 14.61531,21.68089 11.27503,28.44883 -4.69367,3.38479 -22.7295,-34.10391 -11.27503,-28.44883 z"
         style="fill:#000000;fill-opacity:1;stroke:none" />
      <path
         sodipodi:type="arc"
         style="fill:#ff5c69;fill-opacity:1;stroke:none;filter:url(#filter4304-9)"
         id="path4434-8"
         sodipodi:cx="133.23532"
         sodipodi:cy="406.19678"
         sodipodi:rx="9.857626"
         sodipodi:ry="8.9188042"
         d="m 131.09775,414.90337 a 9.857626,8.9188042 0 0 1 -7.48641,-10.63691 9.857626,8.9188042 0 0 1 11.75342,-6.77791 9.857626,8.9188042 0 0 1 7.49634,10.63118 9.857626,8.9188042 0 0 1 -11.74708,6.7869"
         sodipodi:start="1.7893773"
         sodipodi:end="1.7876863"
         sodipodi:open="true" />
      <path
         transform="matrix(0.06431573,0.9979296,-0.98034773,0.1972773,0,0)"
         d="m 336.63865,-39.562989 a 18.675274,32.526062 0 0 1 -14.18291,-38.791903 18.675274,32.526062 0 0 1 22.26689,-24.718278 18.675274,32.526062 0 0 1 14.20175,38.770976 18.675274,32.526062 0 0 1 -22.25486,24.751101"
         sodipodi:open="true"
         sodipodi:end="1.7876884"
         sodipodi:start="1.7893814"
         sodipodi:ry="32.526062"
         sodipodi:rx="18.675274"
         sodipodi:cy="-71.315102"
         sodipodi:cx="340.68835"
         sodipodi:type="arc"
         id="path4238"
         style="opacity:1;fill:#ffebeb;fill-opacity:1;fill-rule:nonzero;stroke:none;stroke-width:4;stroke-linecap:round;stroke-linejoin:round;stroke-miterlimit:4;stroke-dasharray:none;stroke-dashoffset:0;stroke-opacity:1" />
    </g>
    <path
       style="opacity:1;fill:#797979;fill-opacity:1;fill-rule:nonzero;stroke:#000000;stroke-width:6.48148155;stroke-linecap:round;stroke-linejoin:round;stroke-miterlimit:4;stroke-dasharray:none;stroke-opacity:1"
       d="m 628.54818,444.21365 a 84.259262,84.259262 0 0 0 -84.25976,84.25976 84.259262,84.259262 0 0 0 84.25976,84.25977 84.259262,84.259262 0 0 0 84.25977,-84.25977 84.259262,84.259262 0 0 0 -84.25977,-84.25976 z m 0,28.08789 a 56.17284,56.17284 0 0 1 56.17383,56.17187 56.17284,56.17284 0 0 1 -56.17383,56.17383 56.17284,56.17284 0 0 1 -56.17187,-56.17383 56.17284,56.17284 0 0 1 56.17187,-56.17187 z"
       id="path35950"
       inkscape:connector-curvature="0" />
    <path
       style="opacity:1;fill:#ffffff;fill-opacity:1;fill-rule:nonzero;stroke:none;stroke-width:5;stroke-linecap:round;stroke-linejoin:round;stroke-miterlimit:4;stroke-dasharray:none;stroke-opacity:1"
       d="m 178.33197,339.17764 c -28.83926,35.57262 -58.99317,56.21502 -62.17712,54.92987 -6.06649,-2.44864 13.16727,-34.27672 42.00651,-69.84933 28.83925,-35.5726 61.93507,-66.84521 66.7228,-63.51617 5.37121,3.73476 -17.71293,42.863 -46.55219,78.43563 z"
       id="path35967"
       inkscape:connector-curvature="0"
       sodipodi:nodetypes="sssss" />
    <circle
       style="opacity:1;fill:#00eef2;fill-opacity:0.43902438;fill-rule:nonzero;stroke:#000000;stroke-width:5.83333349;stroke-linecap:round;stroke-linejoin:round;stroke-miterlimit:4;stroke-dasharray:none;stroke-opacity:1"
       id="path35950-8-3"
       cx="629.30457"
       cy="528.67432"
       r="56.17284" />
  </g>
</svg>
