<?xml version="1.0" encoding="UTF-8" standalone="no"?>
<!-- Created with Inkscape (http://www.inkscape.org/) -->

<svg
   xmlns:dc="http://purl.org/dc/elements/1.1/"
   xmlns:cc="http://creativecommons.org/ns#"
   xmlns:rdf="http://www.w3.org/1999/02/22-rdf-syntax-ns#"
   xmlns:svg="http://www.w3.org/2000/svg"
   xmlns="http://www.w3.org/2000/svg"
   xmlns:xlink="http://www.w3.org/1999/xlink"
   xmlns:sodipodi="http://sodipodi.sourceforge.net/DTD/sodipodi-0.dtd"
   xmlns:inkscape="http://www.inkscape.org/namespaces/inkscape"
   width="210mm"
   height="297mm"
   viewBox="0 0 744.09448819 1052.3622047"
   id="svg2"
   version="1.1"
   inkscape:version="0.91 r13725"
   sodipodi:docname="music.svg">
  <defs
     id="defs4">
    <linearGradient
       inkscape:collect="always"
       id="linearGradient4296">
      <stop
         style="stop-color:#fff91a;stop-opacity:1"
         offset="0"
         id="stop4298" />
      <stop
         style="stop-color:#ff8e1a;stop-opacity:1"
         offset="1"
         id="stop4300" />
    </linearGradient>
    <filter
       inkscape:collect="always"
       style="color-interpolation-filters:sRGB"
       id="filter4272"
       x="-0.22930693"
       width="1.4586139"
       y="-0.25173914"
       height="1.5034783">
      <feGaussianBlur
         inkscape:collect="always"
         stdDeviation="9.7479725"
         id="feGaussianBlur4274" />
    </filter>
    <clipPath
       clipPathUnits="userSpaceOnUse"
       id="clipPath4282">
      <rect
         y="696.78851"
         x="91.378197"
         height="92.934036"
         width="102.02541"
         id="rect4284"
         style="fill:#952000;fill-opacity:1;filter:url(#filter4272)" />
    </clipPath>
    <clipPath
       clipPathUnits="userSpaceOnUse"
       id="clipPath4286">
      <rect
         y="696.78851"
         x="91.378197"
         height="92.934036"
         width="102.02541"
         id="rect4288"
         style="fill:#952000;fill-opacity:1;filter:url(#filter4272)" />
    </clipPath>
    <radialGradient
       inkscape:collect="always"
       xlink:href="#linearGradient4296"
       id="radialGradient4302"
       cx="330.87317"
       cy="737.65143"
       fx="330.87317"
       fy="737.65143"
       r="45"
       gradientUnits="userSpaceOnUse"
       gradientTransform="translate(68.179591,3.3203124)" />
    <filter
       inkscape:collect="always"
       style="color-interpolation-filters:sRGB"
       id="filter4414"
       x="-0.29272131"
       width="1.5854426"
       y="-0.28342857"
       height="1.5668571">
      <feGaussianBlur
         inkscape:collect="always"
         stdDeviation="15.03107"
         id="feGaussianBlur4416" />
    </filter>
  </defs>
  <sodipodi:namedview
     id="base"
     pagecolor="#ffffff"
     bordercolor="#666666"
     borderopacity="1.0"
     inkscape:pageopacity="0.0"
     inkscape:pageshadow="2"
     inkscape:zoom="1.8101934"
     inkscape:cx="291.95857"
     inkscape:cy="263.21558"
     inkscape:document-units="px"
     inkscape:current-layer="layer1"
     showgrid="false"
     inkscape:window-width="1536"
     inkscape:window-height="801"
     inkscape:window-x="-8"
     inkscape:window-y="-8"
     inkscape:window-maximized="1" />
  <metadata
     id="metadata7">
    <rdf:RDF>
      <cc:Work
         rdf:about="">
        <dc:format>image/svg+xml</dc:format>
        <dc:type
           rdf:resource="http://purl.org/dc/dcmitype/StillImage" />
        <dc:title />
      </cc:Work>
    </rdf:RDF>
  </metadata>
  <g
     inkscape:label="Layer 1"
     inkscape:groupmode="layer"
     id="layer1">
    <path
       style="fill:#000000;fill-rule:evenodd;stroke:#000000;stroke-width:1px;stroke-linecap:butt;stroke-linejoin:miter;stroke-opacity:1;fill-opacity:1"
       d="m 86.873119,568.357 c -1.033307,-45.05798 79.306801,-45.16638 97.984801,-19.05076 1.5054,-47.62552 2.0203,-169.70563 2.0203,-169.70563 20.77189,-31.49936 84.729,-28.07778 100.0051,1.01015 13.02441,24.80037 46.46702,70.71068 46.46702,70.71068 0,0 -36.79932,-36.65207 -60.60915,-44.44671 -19.84038,-6.49516 -54.52071,-19.23736 -62.62946,-10e-6 0,0 -1.07286,136.83358 -2.02031,176.7767 -40.3434,28.83144 -120.280664,25.5918 -121.218301,-15.29442 z"
       id="path3336"
       inkscape:connector-curvature="0"
       sodipodi:nodetypes="scsscsscs"
       inkscape:export-xdpi="10.964108"
       inkscape:export-ydpi="10.964108" />
    <path
       style="fill:#ed0000;fill-opacity:1"
       d="m 514.67264,427.07713 a 96.469695,83.842606 0 0 0 -96.46871,83.84334 96.469695,83.842606 0 0 0 96.46871,83.84333 96.469695,83.842606 0 0 0 96.4687,-83.84333 96.469695,83.842606 0 0 0 -96.4687,-83.84334 z m 0.79328,17.1518 c 23.25269,0.14142 46.9127,8.37817 61.80452,25.01357 22.63783,25.35946 18.71521,63.24057 -2.90798,86.21245 L 480.58151,450.62854 c 10.63661,-4.32619 22.70444,-6.47368 34.88441,-6.39961 z m -62.64723,27.60943 91.14941,101.88514 c -29.81561,8.69487 -67.58564,1.04613 -88.38527,-22.17823 -20.74088,-23.24094 -19.77728,-56.7278 -2.76414,-79.70691 z"
       id="path4138"
       inkscape:connector-curvature="0"
       inkscape:export-xdpi="13.954597"
       inkscape:export-ydpi="13.954597" />
    <rect
       style="fill:#603100;fill-opacity:1;filter:url(#filter4414)"
       id="rect4304"
       width="123.23861"
       height="127.27922"
       x="82.832512"
       y="674.56512"
       transform="matrix(0.82140744,0,0,0.86189153,25.292936,103.46756)"
       inkscape:export-xdpi="22.49885"
       inkscape:export-ydpi="22.49885" />
    <g
       id="g4290"
       inkscape:export-xdpi="22.49885"
       inkscape:export-ydpi="22.49885"
       transform="matrix(0.99994888,0,0,1.076032,0.00477451,-59.967407)">
      <rect
         clip-path="url(#clipPath4286)"
         y="694.76819"
         x="93.944183"
         height="92.934036"
         width="102.02541"
         id="rect4135"
         style="fill:#531200;fill-opacity:1" />
      <rect
         transform="matrix(0.98019802,0,0,1,3.8297705,-1.0101527)"
         clip-path="url(#clipPath4282)"
         y="696.78851"
         x="91.378197"
         height="92.934036"
         width="102.02541"
         id="rect4135-1"
         style="fill:#952000;fill-opacity:1;filter:url(#filter4272)" />
    </g>
    <path
       style="fill:url(#radialGradient4302);fill-opacity:1"
       d="m 354.05277,695.97175 c 3.48165,-3.79236 85.23508,-4.65506 90,0 4.26563,4.16728 3.64223,87.74362 0,90 -5.14013,3.18434 -86.40081,4.0786 -90,0 -2.79934,-3.17222 -5.13329,-84.40862 0,-90 z"
       id="rect4294"
       inkscape:connector-curvature="0"
       sodipodi:nodetypes="sssss"
       inkscape:export-xdpi="22.49885"
       inkscape:export-ydpi="22.49885" />
  </g>
</svg>
