<?xml version="1.0" encoding="UTF-8" standalone="no"?>
<!-- Created with Inkscape (http://www.inkscape.org/) -->

<svg
   xmlns:dc="http://purl.org/dc/elements/1.1/"
   xmlns:cc="http://creativecommons.org/ns#"
   xmlns:rdf="http://www.w3.org/1999/02/22-rdf-syntax-ns#"
   xmlns:svg="http://www.w3.org/2000/svg"
   xmlns="http://www.w3.org/2000/svg"
   xmlns:sodipodi="http://sodipodi.sourceforge.net/DTD/sodipodi-0.dtd"
   xmlns:inkscape="http://www.inkscape.org/namespaces/inkscape"
   width="350.01495"
   height="419.92688"
   id="svg3922"
   version="1.1"
   inkscape:version="0.48.4 r9939"
   sodipodi:docname="New document 5">
  <defs
     id="defs3924">
    <clipPath
       clipPathUnits="userSpaceOnUse"
       id="clipPath3844">
      <path
         inkscape:connector-curvature="0"
         style="fill:#ffb380;fill-opacity:0.78431373;stroke:none;filter:url(#filter3834)"
         d="m 285.56566,454.25517 c -44.11069,96.63864 10.125,381.84376 10.125,381.84376 0,0 62.00159,5.6595 131.90624,4.0625 l -1.71875,-1.0625 21.375,-3.8125 0.75,4.1875 c 49.75823,-2.1893 100.83434,-8.5462 134.5625,-23.5938 -7.65155,-30.6966 -12.36201,-62.0921 -14.96875,-92.8437 l -13.9375,-8.68751 13.09375,-2.34375 c -1.33521,-19.31809 -1.86849,-38.31632 -1.8125,-56.65625 l -8.46875,2.1875 8.59375,-12.96875 c 1.54003,-98.95954 19.53125,-176.1875 19.53125,-176.1875 0,0 -28.37885,2.29629 -68.1875,3.84375 l -1.59375,5.625 -2.6875,-5.46875 c -31.5475,1.15693 -69.62243,1.80771 -106.43749,0.46875 l -3,10.5625 -5.34375,-10.875 c -20.86557,-0.93928 -41.12435,-2.5616 -59.28125,-5.125 l -9.0625,10.0625 0,-11.46875 c -17.24124,-2.86399 -32.2018,-6.68103 -43.4375,-11.75 z"
         id="path3846" />
    </clipPath>
    <clipPath
       clipPathUnits="userSpaceOnUse"
       id="clipPath3840">
      <path
         inkscape:connector-curvature="0"
         style="fill:#ffb380;fill-opacity:0.78431373;stroke:none;filter:url(#filter3834)"
         d="m 285.56566,454.25517 c -44.11069,96.63864 10.125,381.84376 10.125,381.84376 0,0 62.00159,5.6595 131.90624,4.0625 l -1.71875,-1.0625 21.375,-3.8125 0.75,4.1875 c 49.75823,-2.1893 100.83434,-8.5462 134.5625,-23.5938 -7.65155,-30.6966 -12.36201,-62.0921 -14.96875,-92.8437 l -13.9375,-8.68751 13.09375,-2.34375 c -1.33521,-19.31809 -1.86849,-38.31632 -1.8125,-56.65625 l -8.46875,2.1875 8.59375,-12.96875 c 1.54003,-98.95954 19.53125,-176.1875 19.53125,-176.1875 0,0 -28.37885,2.29629 -68.1875,3.84375 l -1.59375,5.625 -2.6875,-5.46875 c -31.5475,1.15693 -69.62243,1.80771 -106.43749,0.46875 l -3,10.5625 -5.34375,-10.875 c -20.86557,-0.93928 -41.12435,-2.5616 -59.28125,-5.125 l -9.0625,10.0625 0,-11.46875 c -17.24124,-2.86399 -32.2018,-6.68103 -43.4375,-11.75 z"
         id="path3842" />
    </clipPath>
    <filter
       color-interpolation-filters="sRGB"
       inkscape:collect="always"
       id="filter3834">
      <feGaussianBlur
         inkscape:collect="always"
         stdDeviation="8.7813307"
         id="feGaussianBlur3836" />
    </filter>
    <filter
       color-interpolation-filters="sRGB"
       inkscape:collect="always"
       id="filter3858">
      <feGaussianBlur
         inkscape:collect="always"
         stdDeviation="8.8007917"
         id="feGaussianBlur3860" />
    </filter>
    <clipPath
       clipPathUnits="userSpaceOnUse"
       id="clipPath3900">
      <path
         inkscape:connector-curvature="0"
         style="fill:#ffb380;fill-opacity:0.78431373;stroke:none;filter:url(#filter3834)"
         d="m 285.56566,454.25517 c -44.11069,96.63864 10.125,381.84376 10.125,381.84376 0,0 62.00159,5.6595 131.90624,4.0625 l -1.71875,-1.0625 21.375,-3.8125 0.75,4.1875 c 49.75823,-2.1893 100.83434,-8.5462 134.5625,-23.5938 -7.65155,-30.6966 -12.36201,-62.0921 -14.96875,-92.8437 l -13.9375,-8.68751 13.09375,-2.34375 c -1.33521,-19.31809 -1.86849,-38.31632 -1.8125,-56.65625 l -8.46875,2.1875 8.59375,-12.96875 c 1.54003,-98.95954 19.53125,-176.1875 19.53125,-176.1875 0,0 -28.37885,2.29629 -68.1875,3.84375 l -1.59375,5.625 -2.6875,-5.46875 c -31.5475,1.15693 -69.62243,1.80771 -106.43749,0.46875 l -3,10.5625 -5.34375,-10.875 c -20.86557,-0.93928 -41.12435,-2.5616 -59.28125,-5.125 l -9.0625,10.0625 0,-11.46875 c -17.24124,-2.86399 -32.2018,-6.68103 -43.4375,-11.75 z"
         id="path3902" />
    </clipPath>
    <clipPath
       clipPathUnits="userSpaceOnUse"
       id="clipPath3904">
      <path
         inkscape:connector-curvature="0"
         style="fill:#ffb380;fill-opacity:0.78431373;stroke:none;filter:url(#filter3834)"
         d="m 285.56566,454.25517 c -44.11069,96.63864 10.125,381.84376 10.125,381.84376 0,0 62.00159,5.6595 131.90624,4.0625 l -1.71875,-1.0625 21.375,-3.8125 0.75,4.1875 c 49.75823,-2.1893 100.83434,-8.5462 134.5625,-23.5938 -7.65155,-30.6966 -12.36201,-62.0921 -14.96875,-92.8437 l -13.9375,-8.68751 13.09375,-2.34375 c -1.33521,-19.31809 -1.86849,-38.31632 -1.8125,-56.65625 l -8.46875,2.1875 8.59375,-12.96875 c 1.54003,-98.95954 19.53125,-176.1875 19.53125,-176.1875 0,0 -28.37885,2.29629 -68.1875,3.84375 l -1.59375,5.625 -2.6875,-5.46875 c -31.5475,1.15693 -69.62243,1.80771 -106.43749,0.46875 l -3,10.5625 -5.34375,-10.875 c -20.86557,-0.93928 -41.12435,-2.5616 -59.28125,-5.125 l -9.0625,10.0625 0,-11.46875 c -17.24124,-2.86399 -32.2018,-6.68103 -43.4375,-11.75 z"
         id="path3906" />
    </clipPath>
    <filter
       color-interpolation-filters="sRGB"
       inkscape:collect="always"
       id="filter3878">
      <feGaussianBlur
         inkscape:collect="always"
         stdDeviation="7.0250167"
         id="feGaussianBlur3880" />
    </filter>
  </defs>
  <sodipodi:namedview
     id="base"
     pagecolor="#ffffff"
     bordercolor="#666666"
     borderopacity="1.0"
     inkscape:pageopacity="0.0"
     inkscape:pageshadow="2"
     inkscape:zoom="0.35"
     inkscape:cx="175.00748"
     inkscape:cy="209.96344"
     inkscape:document-units="px"
     inkscape:current-layer="layer1"
     showgrid="false"
     fit-margin-top="0"
     fit-margin-left="0"
     fit-margin-right="0"
     fit-margin-bottom="0"
     inkscape:window-width="438"
     inkscape:window-height="409"
     inkscape:window-x="842"
     inkscape:window-y="18"
     inkscape:window-maximized="0" />
  <metadata
     id="metadata3927">
    <rdf:RDF>
      <cc:Work
         rdf:about="">
        <dc:format>image/svg+xml</dc:format>
        <dc:type
           rdf:resource="http://purl.org/dc/dcmitype/StillImage" />
        <dc:title></dc:title>
      </cc:Work>
    </rdf:RDF>
  </metadata>
  <g
     inkscape:label="Layer 1"
     inkscape:groupmode="layer"
     id="layer1"
     transform="translate(-199.99252,-322.39875)">
    <path
       sodipodi:nodetypes="ccccc"
       inkscape:connector-curvature="0"
       id="path2988"
       d="m 234.14228,339.25879 c 72.39498,32.6609 299.00516,14.14214 299.00516,14.14214 0,0 -42.85591,183.66749 -2.02031,347.49248 -86.44361,38.56609 -286.88332,20.20305 -286.88332,20.20305 0,0 -54.21223,-285.19902 -10.10153,-381.83767 z"
       style="fill:#000000;fill-opacity:1;stroke:none;filter:url(#filter3878)" />
    <g
       id="g3862"
       transform="translate(-52.72074,-116.08293)">
      <g
         id="g3848">
        <path
           style="fill:#803300;fill-opacity:1;stroke:none"
           d="m 284.85138,454.37772 c -44.1107,96.63864 10.125,381.84375 10.125,381.84375 0,0 62.00159,5.6595 131.90625,4.0625 l -1.71875,-1.0625 21.375,-3.8125 0.75,4.1875 c 49.75823,-2.18932 100.83434,-8.54621 134.5625,-23.59375 -7.65155,-30.69662 -12.36201,-62.09219 -14.96875,-92.84375 l -13.9375,-8.6875 13.09375,-2.34375 c -1.33521,-19.31809 -1.86849,-38.31632 -1.8125,-56.65625 l -8.46875,2.1875 8.59375,-12.96875 c 1.54003,-98.95954 19.53125,-176.1875 19.53125,-176.1875 0,0 -28.37885,2.29629 -68.1875,3.84375 l -1.59375,5.625 -2.6875,-5.46875 c -31.5475,1.15693 -69.62243,1.80771 -106.4375,0.46875 l -3,10.5625 -5.34375,-10.875 c -20.86557,-0.93928 -41.12435,-2.5616 -59.28125,-5.125 l -9.0625,10.0625 0,-11.46875 c -17.24124,-2.86399 -32.2018,-6.68103 -43.4375,-11.75 z"
           id="rect2985"
           inkscape:connector-curvature="0"
           clip-path="url(#clipPath3844)" />
        <path
           id="path3800"
           d="m 285.56566,454.25517 c -44.11069,96.63864 10.125,381.84376 10.125,381.84376 0,0 62.00159,5.6595 131.90624,4.0625 l -1.71875,-1.0625 21.375,-3.8125 0.75,4.1875 c 49.75823,-2.1893 100.83434,-8.5462 134.5625,-23.5938 -7.65155,-30.6966 -12.36201,-62.0921 -14.96875,-92.8437 l -13.9375,-8.68751 13.09375,-2.34375 c -1.33521,-19.31809 -1.86849,-38.31632 -1.8125,-56.65625 l -8.46875,2.1875 8.59375,-12.96875 c 1.54003,-98.95954 19.53125,-176.1875 19.53125,-176.1875 0,0 -28.37885,2.29629 -68.1875,3.84375 l -1.59375,5.625 -2.6875,-5.46875 c -31.5475,1.15693 -69.62243,1.80771 -106.43749,0.46875 l -3,10.5625 -5.34375,-10.875 c -20.86557,-0.93928 -41.12435,-2.5616 -59.28125,-5.125 l -9.0625,10.0625 0,-11.46875 c -17.24124,-2.86399 -32.2018,-6.68103 -43.4375,-11.75 z"
           style="fill:#ffb380;fill-opacity:0.78431373;stroke:none;filter:url(#filter3834)"
           inkscape:connector-curvature="0"
           clip-path="url(#clipPath3840)" />
      </g>
      <g
         transform="matrix(0.88147377,0,0,0.91206169,41.957888,61.472578)"
         style="fill:#ffccaa;fill-opacity:0.19607843;filter:url(#filter3858)"
         id="g3852">
        <path
           clip-path="url(#clipPath3844)"
           inkscape:connector-curvature="0"
           id="path3854"
           d="m 284.85138,454.37772 c -44.1107,96.63864 10.125,381.84375 10.125,381.84375 0,0 62.00159,5.6595 131.90625,4.0625 l -1.71875,-1.0625 21.375,-3.8125 0.75,4.1875 c 49.75823,-2.18932 100.83434,-8.54621 134.5625,-23.59375 -7.65155,-30.69662 -12.36201,-62.09219 -14.96875,-92.84375 l -13.9375,-8.6875 13.09375,-2.34375 c -1.33521,-19.31809 -1.86849,-38.31632 -1.8125,-56.65625 l -8.46875,2.1875 8.59375,-12.96875 c 1.54003,-98.95954 19.53125,-176.1875 19.53125,-176.1875 0,0 -28.37885,2.29629 -68.1875,3.84375 l -1.59375,5.625 -2.6875,-5.46875 c -31.5475,1.15693 -69.62243,1.80771 -106.4375,0.46875 l -3,10.5625 -5.34375,-10.875 c -20.86557,-0.93928 -41.12435,-2.5616 -59.28125,-5.125 l -9.0625,10.0625 0,-11.46875 c -17.24124,-2.86399 -32.2018,-6.68103 -43.4375,-11.75 z"
           style="fill:#ffccaa;fill-opacity:0.19607843;stroke:none" />
        <path
           clip-path="url(#clipPath3840)"
           inkscape:connector-curvature="0"
           style="fill:#ffccaa;fill-opacity:0.19607843;stroke:none;filter:url(#filter3834)"
           d="m 285.56566,454.25517 c -44.11069,96.63864 10.125,381.84376 10.125,381.84376 0,0 62.00159,5.6595 131.90624,4.0625 l -1.71875,-1.0625 21.375,-3.8125 0.75,4.1875 c 49.75823,-2.1893 100.83434,-8.5462 134.5625,-23.5938 -7.65155,-30.6966 -12.36201,-62.0921 -14.96875,-92.8437 l -13.9375,-8.68751 13.09375,-2.34375 c -1.33521,-19.31809 -1.86849,-38.31632 -1.8125,-56.65625 l -8.46875,2.1875 8.59375,-12.96875 c 1.54003,-98.95954 19.53125,-176.1875 19.53125,-176.1875 0,0 -28.37885,2.29629 -68.1875,3.84375 l -1.59375,5.625 -2.6875,-5.46875 c -31.5475,1.15693 -69.62243,1.80771 -106.43749,0.46875 l -3,10.5625 -5.34375,-10.875 c -20.86557,-0.93928 -41.12435,-2.5616 -59.28125,-5.125 l -9.0625,10.0625 0,-11.46875 c -17.24124,-2.86399 -32.2018,-6.68103 -43.4375,-11.75 z"
           id="path3856" />
      </g>
    </g>
  </g>
</svg>
