<?xml version="1.0" encoding="UTF-8" standalone="no"?>
<!-- Created with Inkscape (http://www.inkscape.org/) -->

<svg
   xmlns:dc="http://purl.org/dc/elements/1.1/"
   xmlns:cc="http://creativecommons.org/ns#"
   xmlns:rdf="http://www.w3.org/1999/02/22-rdf-syntax-ns#"
   xmlns:svg="http://www.w3.org/2000/svg"
   xmlns="http://www.w3.org/2000/svg"
   xmlns:xlink="http://www.w3.org/1999/xlink"
   xmlns:sodipodi="http://sodipodi.sourceforge.net/DTD/sodipodi-0.dtd"
   xmlns:inkscape="http://www.inkscape.org/namespaces/inkscape"
   width="744.09448819"
   height="1052.3622047"
   id="svg2"
   version="1.1"
   inkscape:version="0.48.4 r9939"
   sodipodi:docname="tree.svg">
  <defs
     id="defs4">
    <linearGradient
       inkscape:collect="always"
       id="linearGradient4491">
      <stop
         style="stop-color:#75ee21;stop-opacity:1;"
         offset="0"
         id="stop4493" />
      <stop
         style="stop-color:#75ee21;stop-opacity:0;"
         offset="1"
         id="stop4495" />
    </linearGradient>
    <linearGradient
       inkscape:collect="always"
       id="linearGradient4475">
      <stop
         style="stop-color:#73de28;stop-opacity:1;"
         offset="0"
         id="stop4477" />
      <stop
         style="stop-color:#73de28;stop-opacity:0;"
         offset="1"
         id="stop4479" />
    </linearGradient>
    <linearGradient
       inkscape:collect="always"
       id="linearGradient4080">
      <stop
         style="stop-color:#73de28;stop-opacity:1;"
         offset="0"
         id="stop4082" />
      <stop
         style="stop-color:#73de28;stop-opacity:0;"
         offset="1"
         id="stop4084" />
    </linearGradient>
    <linearGradient
       inkscape:collect="always"
       xlink:href="#linearGradient4080"
       id="linearGradient4086"
       x1="148.50174"
       y1="515.69435"
       x2="578.57462"
       y2="515.69435"
       gradientUnits="userSpaceOnUse" />
    <linearGradient
       inkscape:collect="always"
       xlink:href="#linearGradient4080"
       id="linearGradient4114"
       gradientUnits="userSpaceOnUse"
       x1="148.50174"
       y1="515.69435"
       x2="578.57462"
       y2="515.69435" />
    <linearGradient
       inkscape:collect="always"
       xlink:href="#linearGradient4080"
       id="linearGradient4148"
       gradientUnits="userSpaceOnUse"
       x1="148.50174"
       y1="515.69435"
       x2="578.57462"
       y2="515.69435" />
    <linearGradient
       inkscape:collect="always"
       xlink:href="#linearGradient4080"
       id="linearGradient4158"
       gradientUnits="userSpaceOnUse"
       x1="148.50174"
       y1="515.69435"
       x2="578.57462"
       y2="515.69435" />
    <linearGradient
       inkscape:collect="always"
       xlink:href="#linearGradient4080"
       id="linearGradient4208"
       gradientUnits="userSpaceOnUse"
       x1="148.50174"
       y1="515.69435"
       x2="578.57462"
       y2="515.69435" />
    <linearGradient
       inkscape:collect="always"
       xlink:href="#linearGradient4080"
       id="linearGradient4216"
       gradientUnits="userSpaceOnUse"
       x1="148.50174"
       y1="515.69435"
       x2="578.57462"
       y2="515.69435" />
    <linearGradient
       inkscape:collect="always"
       xlink:href="#linearGradient4080"
       id="linearGradient4218"
       gradientUnits="userSpaceOnUse"
       x1="148.50174"
       y1="515.69435"
       x2="578.57462"
       y2="515.69435" />
    <linearGradient
       inkscape:collect="always"
       xlink:href="#linearGradient4080"
       id="linearGradient4246"
       gradientUnits="userSpaceOnUse"
       x1="148.50174"
       y1="515.69435"
       x2="578.57462"
       y2="515.69435" />
    <linearGradient
       inkscape:collect="always"
       xlink:href="#linearGradient4475"
       id="linearGradient4481"
       x1="265.46646"
       y1="389.8844"
       x2="541.56714"
       y2="559.75574"
       gradientUnits="userSpaceOnUse"
       gradientTransform="matrix(0.94127974,0,0,0.92026653,19.167585,24.910017)" />
    <linearGradient
       inkscape:collect="always"
       xlink:href="#linearGradient4491"
       id="linearGradient4497"
       x1="257.16147"
       y1="382.6973"
       x2="460.32831"
       y2="505.93591"
       gradientUnits="userSpaceOnUse"
       gradientTransform="matrix(1.0808087,0,0,1.3286137,-25.914435,-129.71588)" />
  </defs>
  <sodipodi:namedview
     id="base"
     pagecolor="#ffffff"
     bordercolor="#666666"
     borderopacity="1.0"
     inkscape:pageopacity="0.0"
     inkscape:pageshadow="2"
     inkscape:zoom="0.49497475"
     inkscape:cx="80.046804"
     inkscape:cy="326.30927"
     inkscape:document-units="px"
     inkscape:current-layer="layer1"
     showgrid="false"
     showguides="true"
     inkscape:guide-bbox="true"
     inkscape:window-width="1280"
     inkscape:window-height="782"
     inkscape:window-x="0"
     inkscape:window-y="18"
     inkscape:window-maximized="1" />
  <metadata
     id="metadata7">
    <rdf:RDF>
      <cc:Work
         rdf:about="">
        <dc:format>image/svg+xml</dc:format>
        <dc:type
           rdf:resource="http://purl.org/dc/dcmitype/StillImage" />
        <dc:title />
      </cc:Work>
    </rdf:RDF>
  </metadata>
  <g
     inkscape:label="Layer 1"
     inkscape:groupmode="layer"
     id="layer1">
    <g
       id="g3035"
       transform="translate(-472.75139,70.710678)">
      <path
         sodipodi:nodetypes="cscsccscc"
         inkscape:connector-curvature="0"
         id="rect2985"
         d="m 489.7846,789.31257 c 22.80901,7.17401 37.42544,-25.86035 41.29538,-5.86575 3.86994,19.99459 21.98133,14.10359 38.4356,13.38362 29.48652,-18.93506 28.51951,5.66513 32.34037,-13.00811 3.82085,-18.67323 9.98392,-3.134 31.93259,0.49001 -26.54732,52.25003 0,173.50886 0,173.50886 -34.08307,-2.64869 -36.23428,3.27859 -68.73889,9.23558 -24.29476,4.45241 -44.42932,1.44895 -60.00868,-3.85281 24.1032,-32.57637 27.18146,-132.52265 -15.25637,-173.8914 z"
         style="fill:#56210c;fill-opacity:1;stroke:#411a0b;stroke-width:1.29700279;stroke-miterlimit:4;stroke-opacity:1" />
      <path
         style="fill:#836615;fill-opacity:1;stroke:#411a0b;stroke-width:1.19369507;stroke-miterlimit:4;stroke-opacity:1"
         d="m 497.5901,795.8474 c 20.09067,6.89888 32.96515,-24.8686 36.37387,-5.6408 3.40873,19.22779 12.60067,8.46151 27.09395,7.76915 25.97237,-18.20889 31.88159,10.54908 35.24708,-7.40803 3.3655,-17.95711 8.79406,-3.01381 28.12694,0.47122 -23.38347,50.24621 0,166.85471 0,166.85471 -30.02112,-2.54711 -30.59432,2.98954 -59.4449,8.68771 -21.99667,4.34448 -49.40087,0.46215 -56.62809,-3.51137 21.23063,-31.32706 26.61132,-127.44035 -10.76885,-167.22259 z"
         id="path4506"
         inkscape:connector-curvature="0"
         sodipodi:nodetypes="cscsccscc" />
      <path
         inkscape:connector-curvature="0"
         id="path4508"
         d="m 631.36806,798.13119 c -0.016,0.0241 -0.0437,0.0384 -0.0596,0.0625 -10.239,0.12422 -20.49381,0.30355 -30.73172,0.5 0.003,-0.0215 0.0265,-0.041 0.0298,-0.0625 10.25416,-0.19659 20.50627,-0.37595 30.76152,-0.5 z m -85.45861,1.75 c 0.004,0.02 -0.004,0.0425 0,0.0625 -0.29829,0.008 -0.59593,0.0234 -0.89423,0.0312 -7.4269,0.19448 -14.86976,0.37819 -22.29614,0.59375 -0.38785,0.0113 -0.7746,0.021 -1.1625,0.0312 -0.002,-0.01 0.002,-0.0215 0,-0.0312 7.78956,-0.21846 15.57641,-0.45219 23.36922,-0.65625 0.3281,-0.009 0.65555,-0.0227 0.98365,-0.0312 z m -21.93845,2.8125 c 0.70689,0.005 1.43823,0.25945 2.17596,0.90625 -0.0894,3.9e-4 -0.17886,-3.9e-4 -0.26826,0 0.8829,1.10836 1.32581,1.88406 1.46057,2.40625 -1.16894,-0.0948 -2.32537,-0.19855 -3.5173,-0.3125 -0.38685,-0.037 -0.77767,-0.0622 -1.1625,-0.125 -0.16275,-0.811 -0.33181,-1.61031 -0.50673,-2.40625 0.59866,-0.28746 1.20383,-0.47304 1.81826,-0.46875 z m 3.36827,3.3125 c 5.62074,0.45588 11.00623,0.7209 16.39422,0.875 -0.87556,-0.009 -1.74745,-0.0277 -2.62307,-0.0312 -5.1357,-0.0207 -10.27492,0.2805 -15.41057,0.3125 -0.6973,0.004 -1.41234,0.0541 -2.11635,0.0937 0.93739,0.19351 1.94419,0.4065 2.86154,0.59375 7.39316,1.6113 14.75816,3.3719 22.08749,5.28125 0.002,0.01 -0.002,0.0213 0,0.0312 -7.2325,-1.8658 -14.48881,-3.55988 -21.78941,-5.09375 -1.18443,-0.20659 -2.47694,-0.43261 -3.72596,-0.65625 -0.0961,-0.51377 -0.1973,-1.02308 -0.29808,-1.53125 2.80442,1.03019 4.9978,1.58819 4.62019,0.125 z m 16.39422,0.875 c 1.16408,0.0117 2.32351,0.0121 3.4875,0.0312 0.002,0.0121 0.0275,0.0191 0.0298,0.0312 -1.16828,-0.0258 -2.35222,-0.0292 -3.5173,-0.0625 z m -17.58653,-3.28125 c 6.69536,-0.0292 13.39506,-0.0339 20.09038,-0.0625 -3.62265,0.026 -6.34073,0.0359 -7.24327,0.0625 -4.05325,0.11948 -8.11309,0.47973 -12.16153,0.71875 -0.23619,-0.28536 -0.45314,-0.51496 -0.68558,-0.71875 z m 102.03168,-0.28125 c -0.0225,0.0401 -0.0371,0.0849 -0.0596,0.125 -0.23835,-10e-6 -0.47702,3e-5 -0.71538,0 -9.18003,-10e-4 -18.36226,-0.0164 -27.54229,-0.0312 0.004,-0.0214 -0.004,-0.0411 0,-0.0625 9.44147,-0.0186 18.87572,-0.0355 28.31729,-0.0312 z m -29.00287,4.4375 c 8.8354,0.1121 17.66338,0.25902 26.49902,0.34375 -0.004,0.008 0.004,0.023 0,0.0312 -8.83757,-0.0851 -17.6915,-0.20061 -26.52883,-0.3125 0.004,-0.0217 0.0262,-0.0408 0.0298,-0.0625 z m -47.33459,18.75 c 0.007,0.022 0.0236,0.0405 0.0298,0.0625 -8.43377,-0.007 -17.21397,0.0118 -26.34998,0.0312 -0.002,-0.0213 -0.0281,-0.0412 -0.0298,-0.0625 9.13207,-0.0194 17.92195,-0.0388 26.34998,-0.0312 z m 43.93652,0.28125 c 5.99046,0.0834 11.98346,0.17816 17.97402,0.25 2.59006,0.0261 2.50752,0.0394 4.70962,0.0625 -0.01,0.0314 -0.0207,0.0623 -0.0298,0.0937 -1.53794,-0.017 -3.08224,-0.047 -4.62019,-0.0625 -6.01043,-0.0721 -12.02331,-0.16635 -18.03365,-0.25 0.006,-0.0301 -0.006,-0.0637 0,-0.0937 z m -0.23847,1.34375 c 2.0393,0.78938 4.08362,1.57953 6.11058,2.40625 6.17201,2.51733 10.50192,4.41126 14.33749,6.1875 -0.005,0.0198 0.005,0.0427 0,0.0625 -6.73722,-3.08376 -13.55789,-5.95854 -20.44807,-8.625 0.002,-0.01 -0.002,-0.0212 0,-0.0312 z m -69.1538,17.09375 c 3.40869,0.18494 6.81449,0.3942 10.22403,0.5625 2.60444,0.12856 5.20518,0.21529 7.80961,0.34375 1.15741,0.0571 2.43108,-0.31146 3.4875,0.1875 0.47352,0.22365 0.84509,0.59049 1.22211,0.96875 1.15132,0.27832 2.16766,0.60312 1.69904,1.34375 -0.0613,0.0969 -0.13456,0.15601 -0.20865,0.21875 0.10344,0.10951 0.19017,0.24139 0.29807,0.34375 -1.56666,0.0462 -3.14236,0.115 -4.70961,0.125 -5.88364,0.0366 -11.76249,-0.1608 -17.64614,-0.125 -0.71603,0.004 -1.43023,0.0232 -2.14616,0.0312 -0.002,-0.41703 0.004,-0.83343 0,-1.25 0.17869,-0.007 0.35785,-0.0244 0.53654,-0.0312 6.38712,-0.2436 10.15212,-0.26371 16.24519,-0.8125 -1.91808,-0.2741 -3.82777,-0.50841 -5.75289,-0.71875 -3.67801,-0.40186 -7.37345,-0.71037 -11.05864,-1 -9.6e-4,-0.0629 9.5e-4,-0.12467 0,-0.1875 z m 0.0596,5.78125 c 11.83628,0.45874 23.66582,0.94532 35.50094,1.4375 0.0109,0.0201 0.0189,0.0424 0.0298,0.0625 -11.84504,-0.49252 -23.68456,-0.97841 -35.53075,-1.4375 10e-6,-0.0209 -10e-6,-0.0416 0,-0.0625 z m 62.77497,2.65625 c 7.91806,0.36306 15.84045,0.68962 23.75671,1.09375 -0.003,0.0205 0.003,0.042 0,0.0625 -7.91645,-0.40398 -15.83847,-0.76205 -23.75671,-1.125 0.003,-0.009 -0.003,-0.0218 0,-0.0312 z m -62.80478,0.59375 c 5.94496,0.33518 11.90851,0.6473 17.8548,0.9375 -5.95173,-0.28772 -11.90217,-0.55814 -17.8548,-0.8125 3.9e-4,-0.0416 -3.7e-4,-0.0834 0,-0.125 z m 24.4423,1.25 c 4.41421,0.20578 8.81935,0.40291 13.23461,0.59375 0.005,0.007 -0.005,0.0239 0,0.0312 -4.41186,-0.20429 -8.82304,-0.41047 -13.23461,-0.625 z m 37.22979,1.5 c 4.54722,0.15516 9.10402,0.32528 13.65191,0.46875 -4.56168,-0.11883 -9.1206,-0.26496 -13.68172,-0.40625 0.008,-0.0213 0.0221,-0.0412 0.0298,-0.0625 z m 13.65191,0.46875 c 3.62038,0.0943 7.22971,0.18678 10.85,0.28125 -3.61847,-0.0918 -7.23184,-0.16711 -10.85,-0.28125 z m 10.73076,1.5 c -0.003,0.031 0.003,0.0628 0,0.0937 -0.85617,0.002 -0.75394,-0.002 -1.72884,0 -6.37802,0.2298 -12.76053,0.40261 -19.13653,0.6875 -0.93661,0.0418 -3.36377,0.1838 -4.6798,0.25 0.009,-0.0212 0.0212,-0.0413 0.0298,-0.0625 1.2741,-0.064 3.64865,-0.20925 4.56057,-0.25 6.37605,-0.28494 12.75846,-0.45764 19.13653,-0.6875 0.60608,-0.016 1.21217,-0.0157 1.81827,-0.0312 z m -45.15862,2 c 0.0258,0.035 0.0635,0.0588 0.0894,0.0937 -6.56116,0.36585 -13.36871,0.72706 -16.6923,0.90625 -8.16515,0.44021 -16.30713,0.83346 -24.4721,1.25 6.3e-4,-0.0208 -6.3e-4,-0.0417 0,-0.0625 8.14083,-0.39495 16.27318,-0.81118 24.41249,-1.25 3.31906,-0.17894 10.1021,-0.57168 16.66249,-0.9375 z m -41.25383,11.78125 c 4.35445,0.27107 8.70135,0.51161 13.05576,0.78125 29.66153,1.83674 44.26546,2.70146 72.31343,3.875 -1.9e-4,0.0104 1.8e-4,0.0208 0,0.0312 -12.20289,-0.5152 -24.406,-1.08186 -36.60383,-1.71875 -17.77531,-0.92811 -32.69256,-1.91575 -48.76536,-2.96875 z m 4.70961,19.03125 c 2.32259,-0.0439 4.72659,0.60432 7.06442,0.6875 5.89339,0.2097 11.77963,0.51765 17.67596,0.59375 1.09319,0.0141 2.18561,0.0246 3.27884,0.0312 -1.06327,0.0122 -2.12624,0.0107 -3.18942,0.0312 -5.30029,0.10245 -10.59487,0.43414 -15.88749,0.75 -1.05022,0.0627 -2.10999,0.21682 -3.15962,0.375 1.20317,0.13566 2.38202,0.28728 3.54712,0.4375 7.58933,0.97853 15.20026,1.86172 22.80287,2.71875 -0.47703,-0.002 -0.95374,-3e-5 -1.43077,0 0.59631,0.008 1.19212,0.0259 1.78846,0.0312 5.03868,0.56697 10.07023,1.12595 15.11249,1.65625 2.57292,0.30317 4.87644,0.58532 7.12404,0.84375 6.2012,0.45714 12.39744,0.93837 18.59999,1.375 3.47919,0.24492 5.39945,0.37663 8.1673,0.5625 9.1e-4,0.0104 -9.1e-4,0.0209 0,0.0312 -8.33837,-0.57309 -16.6721,-1.14532 -25.00864,-1.75 7.63342,0.88382 14.09059,1.65469 22.98172,3.28125 0.73338,0.13417 1.49385,0.29691 2.23557,0.4375 0.008,0.0835 0.0217,0.1666 0.0298,0.25 -5.90069,-1.21724 -11.89983,-2.19517 -18.09325,-3.0625 -2.6522,-0.37141 -5.2973,-0.67591 -7.95865,-0.96875 -0.2783,-0.0203 -0.55633,-0.0422 -0.83462,-0.0625 -11.22237,-0.50674 -17.61491,-0.86199 -28.52595,-1.125 -3.18527,-0.0768 -6.38222,-0.0999 -9.56826,-0.125 -1.92246,-0.0151 -3.80361,0.20827 -5.60384,0 -0.52596,0.50873 -1.53698,0.0422 -2.38462,-0.625 -0.9614,-0.42227 -1.88194,-1.06824 -2.7423,-2.09375 -0.46853,-0.55847 0.69197,-0.23578 1.78846,0.0312 1.55789,-0.46202 3.18887,0.0933 4.82884,0.5 5.05393,0.34732 9.70128,0.6513 15.29134,0.78125 0.24836,0.006 0.49682,-0.005 0.74519,0 -10.11505,-0.92493 -20.24169,-1.75545 -30.37402,-2.4375 -0.0846,-0.4066 -0.36834,-0.93969 -0.59615,-1.4375 -0.95646,-0.44166 -1.88968,-0.93892 -2.86154,-1.3125 0.85847,0.29947 1.72914,0.53169 2.62307,0.75 -0.13481,-0.41781 -0.12217,-0.7415 0.23847,-0.84375 0.75268,-0.21339 1.52099,-0.29787 2.29519,-0.3125 z m 32.49037,5.65625 c -0.0993,-0.0112 -0.19874,-0.0201 -0.29808,-0.0312 1.32184,0.005 2.64258,0.048 3.96443,0.0625 -1.22253,-0.003 -2.44393,-0.0203 -3.66635,-0.0312 z m -4.47115,-4.34375 c 6.04221,-0.0691 12.08004,-0.0507 18.12307,-0.0312 -6.04278,0.0294 -12.08065,0.0681 -18.12307,0.0312 z m 18.12307,-0.0312 c 1.41133,-0.007 2.82138,-0.0299 4.23269,-0.0312 8.92227,-0.008 19.70946,10e-4 30.52306,0 5e-4,0.0104 -5.1e-4,0.0209 0,0.0312 -10.78421,10e-4 -21.53292,-0.008 -30.43364,0 -1.4411,10e-4 -2.88096,0.005 -4.32211,0 z m -17.02019,4.375 c -0.3677,0.002 -0.73518,-0.004 -1.10288,0 -1.96158,0.0187 -3.74973,0.0606 -5.48461,0.125 0.74779,0.0548 1.48791,0.13118 2.23557,0.1875 9.54189,0.71877 19.10291,1.38058 28.64518,2.09375 -1.88735,-0.20407 -3.77783,-0.40616 -5.66346,-0.625 -6.20895,-0.61827 -12.41603,-1.21148 -18.6298,-1.78125 z m 15.26153,0.0312 c 12.26743,0.0792 24.54499,0.15205 36.81248,0.21875 0.002,0.0208 -0.002,0.0417 0,0.0625 -12.24628,-0.0666 -24.47684,-0.13968 -36.72305,-0.21875 -2.74306,-0.0177 -5.48385,-0.0322 -8.22692,-0.0625 2.71339,0.007 5.42425,-0.0175 8.13749,0 z m -51.83554,7 c 1.20913,0.14965 2.4054,0.30544 3.60672,0.34375 5.93325,0.18918 11.85946,0.41025 17.79519,0.46875 1.40761,0.0139 2.82505,0.0279 4.23269,0.0312 -1.38439,0.0127 -2.759,0.006 -4.14327,0.0312 -5.42438,0.0983 -10.85754,0.384 -16.27499,0.6875 -0.79862,0.0447 -1.58669,0.14215 -2.38462,0.25 3.64299,0.28565 7.29032,0.54253 10.93942,0.71875 1.51274,0.073 3.01767,0.15343 4.53077,0.21875 -1.48854,-0.043 -2.9825,-0.11816 -4.47115,-0.15625 -3.96389,-0.1014 -7.92831,-0.12675 -11.89327,-0.15625 -1.38572,-0.0103 -1.41802,-0.0186 -2.20576,-0.0312 0.0864,-0.7865 0.18337,-1.60745 0.26827,-2.40625 z m 18.30191,2.75 c 6.88158,0.19869 13.77711,0.4445 20.65672,0.71875 -6.88633,-0.21461 -13.77434,-0.42166 -20.65672,-0.71875 z m 20.65672,0.71875 c 13.58955,0.42351 27.17491,0.81774 40.74709,1.65625 3.37442,0.17602 6.76031,0.35033 10.13461,0.53125 0.003,0.0218 0.0271,0.0407 0.0298,0.0625 -3.36044,-0.18192 -6.71372,-0.3559 -10.07499,-0.53125 -13.61238,-0.56185 -27.2216,-1.17601 -40.83652,-1.71875 z m -13.32403,-2.625 c 4.14007,-0.0381 8.28927,-0.0425 12.4298,-0.0312 -4.14701,0.0273 -8.28293,0.0411 -12.4298,0.0312 z m 12.4298,-0.0312 c 2.77238,-0.0183 5.544,-0.0578 8.31634,-0.0625 13.87085,-0.0234 28.39757,-0.0244 42.89325,-0.0312 0.002,0.0205 -0.002,0.042 0,0.0625 -14.46562,0.007 -28.96059,0.008 -42.80383,0.0312 -2.80215,0.005 -5.60348,0.008 -8.40576,0 z m 52.67016,11.09375 c 0.003,0.0202 -0.003,0.0423 0,0.0625 -17.65959,0.006 -35.33848,1.2e-4 -52.99805,0 -11.50922,-0.003 -23.00806,0.003 -34.51729,0 -2.34854,-6.7e-4 -2.57494,-1.5e-4 -4.59038,0 0.003,-0.0208 -0.003,-0.0417 0,-0.0625 13.01584,0.0163 26.03265,0.0205 39.04806,0 17.68938,10e-5 35.36825,0.006 53.05766,0 z m -92.37399,2 c 4.21241,0.0534 8.42608,0.13114 12.63846,0.1875 26.77125,0.60334 53.55785,1.04809 80.33168,1.53125 0.004,0.0222 0.0258,0.0403 0.0298,0.0625 -26.75844,-0.48282 -53.51621,-0.95944 -80.27207,-1.5625 -4.24401,-0.0568 -8.48396,-0.12144 -12.72787,-0.1875 9.5e-4,-0.0102 -9.6e-4,-0.021 0,-0.0312 z m -1.43077,10.75 c 6.38677,0.68428 12.77946,1.38018 19.16634,2.0625 27.72395,3.15765 40.90392,4.6846 68.79612,7.8125 2.66508,0.29887 7.76658,0.85076 11.35672,1.25 0.007,0.0216 0.0228,0.0409 0.0298,0.0625 -3.76636,-0.41976 -7.53112,-0.82767 -11.29711,-1.25 -27.90244,-3.12905 -41.09205,-4.65373 -68.82592,-7.8125 -6.41235,-0.67488 -12.81491,-1.37419 -19.22595,-2.0625 0.003,-0.0202 -0.003,-0.0423 0,-0.0625 z m -1.25192,8.46875 c 15.5313,1.96666 31.04869,3.85383 46.5894,5.71875 1.80302,0.21863 3.62131,0.4446 5.425,0.65625 -1.77795,-0.19633 -3.55692,-0.40457 -5.33558,-0.59375 -15.56463,-1.86775 -31.12365,-3.78009 -46.67882,-5.75 0.002,-0.01 -0.002,-0.0213 0,-0.0312 z m 52.0144,6.375 c 2.99272,0.33047 5.98203,0.67631 8.97211,1.03125 -2.98821,-0.3318 -5.98569,-0.68082 -8.97211,-1.03125 z m 8.97211,1.03125 c 2.4054,0.26709 4.80694,0.4946 7.21346,0.75 0.32169,-0.0252 0.7336,-0.0377 1.04326,-0.0625 10.1792,-0.81626 20.32696,-1.96046 30.49326,-2.9375 0.55465,-0.0803 1.03352,-0.14089 1.5798,-0.21875 0.008,0.0214 0.0223,0.0411 0.0298,0.0625 -0.582,0.0835 -0.91187,0.13063 -1.52019,0.21875 -10.16638,0.97717 -20.31397,2.12115 -30.49325,2.9375 -0.22159,0.0178 -0.51741,0.0445 -0.74519,0.0625 3.89687,0.41255 7.78492,0.80439 11.68461,1.1875 4.72478,-0.40814 9.46755,-0.8444 14.18845,-1.3125 2.56929,-0.25476 5.12526,-0.51494 7.69038,-0.8125 0.008,0.0214 0.0217,0.0411 0.0298,0.0625 -2.55035,0.29572 -5.10609,0.55919 -7.66057,0.8125 -4.65141,0.46126 -9.29481,0.87826 -13.94999,1.28125 2.60095,0.25503 5.20746,0.50752 7.80961,0.75 3.03425,0.28275 6.09886,0.64055 9.15095,0.87505 0.70071,-0.0199 1.45085,-0.2922 2.08654,0 0.11068,0.0508 0.22027,0.0995 0.32788,0.1562 0.0797,0.004 0.15876,0.0275 0.23847,0.0312 0.96555,0.8335 2.53958,1.2614 3.07019,2.375 0.54634,0.009 1.09308,0.0219 1.63942,0.0313 0.01,0.021 0.0197,0.0415 0.0298,0.0625 -0.53642,-0.009 -1.0732,-0.0222 -1.60962,-0.0312 0.0903,0.0681 0.14698,0.184 0.23847,0.25 -0.0702,-0.017 -0.13846,-0.0457 -0.20866,-0.0626 0.014,0.0468 0.0491,0.076 0.0596,0.125 0.1895,0.8883 -1.60959,-0.136 -2.56346,-0.3437 -0.98252,-0.016 -1.96881,-0.0163 -2.95096,-0.0313 -0.7954,-0.0378 -1.58918,-0.0577 -2.38462,-0.0937 0.37372,0.0199 1.37514,0.0703 1.81827,0.0937 -12.50998,-0.1866 -24.98329,-0.2969 -37.49805,0.0313 -3.45794,0.1327 -6.91447,0.1179 -10.37308,0.2187 -0.4038,0.012 -0.90795,0.3289 -1.22211,0.0626 -0.55279,-0.4685 -1.58922,-1.1671 -2.05673,-1.8126 -0.0761,-0.0475 -0.1628,-0.0767 -0.23846,-0.125 -16.10985,0.9875 -32.24947,1.7594 -48.37786,2.4063 4.8e-4,-0.003 0.0291,-0.09 0.0298,-0.0937 16.08826,-0.6459 32.18884,-1.3901 48.25863,-2.375 -0.38293,-0.2457 -0.75812,-0.5011 -1.13269,-0.75 -0.39592,-0.2631 0.50158,0.071 1.22211,0.2812 0.0109,-0.1407 0.0962,-0.2616 0.23846,-0.375 1.43507,-1.14389 3.59316,0.1345 5.39519,0.1875 1.01241,0.0298 2.0279,0.0667 3.04038,0.0937 3.17609,-0.2124 6.33387,-0.4539 9.50865,-0.6874 -3.20121,-0.1272 -6.00815,-0.2159 -10.67115,-0.4063 -4.43912,-0.0706 -8.88461,-0.14678 -13.32403,-0.21875 -13.87489,0.83085 -28.23353,1.62785 -37.37882,2.15625 -1.60982,0.093 -3.21906,0.1882 -4.82885,0.2812 0.003,-0.0168 -0.003,-0.0451 0,-0.0624 1.58007,-0.0914 3.15933,-0.19 4.73942,-0.2813 8.94843,-0.517 22.91178,-1.2821 36.51441,-2.09375 -13.56665,-0.21979 -27.14899,-0.46596 -40.71729,-0.625 14.22605,0.0975 28.4607,0.22501 42.68459,0.5 9.97016,-0.59971 19.5635,-1.17989 26.52884,-1.71875 -2.22692,-0.28073 -4.44814,-0.54793 -6.67692,-0.8125 z m 7.03461,0.84375 c -6.79665,0.52894 -16.19931,1.09633 -25.99229,1.6875 3.77919,0.0747 7.54801,0.18343 11.32691,0.28125 4.8745,0.0669 9.76101,0.125 14.63557,0.1875 3.37693,-0.25825 6.75941,-0.52706 10.13461,-0.8125 -3.36473,-0.46985 -6.73476,-0.91749 -10.1048,-1.34375 z m 10.40288,1.375 c -3.21658,0.27261 -6.43954,0.53344 -9.65769,0.78125 4.91405,0.0635 9.81129,0.1316 14.72499,0.2187 1.90033,0.0338 0.56918,0.009 1.81827,0.0313 -2.29553,-0.3454 -4.58708,-0.70932 -6.88557,-1.03125 z m -13.68173,1.09375 c -3.13654,0.232 -6.28138,0.445 -9.41922,0.6562 1.78668,0.047 3.57871,0.1087 5.36538,0.1563 4.30994,0.2136 8.59828,0.3806 12.90672,0.625 30.29952,1.7189 10.13585,0.7372 20.89519,1.3125 -8.94268,-0.3954 -17.87474,-0.6444 -26.82691,-0.5938 8.94013,0.2862 17.8825,0.4415 26.82691,0.5938 0.0665,0.004 0.28872,0.0276 0.35769,0.0312 1.84851,0.0314 3.69507,0.0629 5.54423,0.0938 -6.0295,-0.8202 -8.14076,-1.0994 -15.20192,-1.6562 -8.67516,-0.6842 -14.2469,-0.9694 -20.44807,-1.2188 z m -29.33075,6.7188 c 10.74735,0.3662 21.50301,0.7132 32.25191,1.0312 13.34942,0.0998 26.68287,0.2287 40.03171,0.375 -12.34592,-0.1264 -24.18246,-0.1882 -37.49806,-0.2812 7.32939,0.2154 14.66877,0.4135 21.99806,0.625 9.2992,0.2683 10.10989,0.2969 16.00673,0.4687 0.0121,0.0189 0.0176,0.0436 0.0298,0.0625 -5.89167,-0.1716 -6.69693,-0.201 -15.97692,-0.4688 -8.26018,-0.2383 -16.50992,-0.4742 -24.77018,-0.7187 -1.65059,-0.0117 -2.89433,-0.0187 -4.62019,-0.0313 -8.12141,-0.0456 -16.23142,-0.0901 -24.35287,-0.125 -0.0693,-0.0216 -0.13933,-0.041 -0.20865,-0.0624 8.16516,0.0349 16.33679,0.079 24.50191,0.125 0.65607,0.005 1.31123,0.0264 1.9673,0.0312 -9.69519,-0.2892 -19.39841,-0.6076 -29.09229,-0.9375 -0.0912,-0.0259 -0.17708,-0.0681 -0.26827,-0.0937 z m 16.3048,5.625 c 17.52887,0.0519 35.05184,0.08 52.58074,0.0937 -0.0202,0.017 -0.0394,0.0455 -0.0596,0.0625 -17.46122,-0.0137 -34.91091,-0.0421 -52.37209,-0.0938 -0.0492,-0.0191 -0.0999,-0.0433 -0.14904,-0.0624 z"
         style="fill:#5d4b0f;fill-opacity:1;stroke:none" />
    </g>
    <g
       id="g4690"
       transform="translate(14.142136,-28.284269)">
      <path
         style="fill:#56210c;fill-opacity:1;stroke:#411a0b;stroke-width:1.29700279;stroke-miterlimit:4;stroke-opacity:1"
         d="m 275.63226,621.62725 c 22.80901,7.17401 37.42544,-25.86035 41.29538,-5.86575 3.86994,19.99459 13.90011,90.87518 30.35438,90.15521 29.48652,-18.93506 36.60073,-71.10646 40.42159,-89.7797 3.82085,-18.67323 9.98392,-3.134 31.93259,0.49001 -26.54732,52.25003 0,173.50886 0,173.50886 -34.08307,-2.64869 -36.23428,3.27859 -68.73889,9.23558 -24.29476,4.45241 -44.42932,1.44895 -60.00868,-3.85281 24.1032,-32.57637 27.18146,-132.52265 -15.25637,-173.8914 z"
         id="path4692"
         inkscape:connector-curvature="0"
         sodipodi:nodetypes="cscsccscc" />
      <path
         sodipodi:nodetypes="cscsccscc"
         inkscape:connector-curvature="0"
         id="path4694"
         d="m 283.43776,628.16208 c 20.09067,6.89888 32.96515,-24.8686 36.37387,-5.6408 3.40873,19.22779 12.24353,87.39008 26.73681,86.69772 25.97237,-18.20889 32.23873,-68.37949 35.60422,-86.3366 3.3655,-17.95711 8.79406,-3.01381 28.12694,0.47122 -23.38347,50.24621 0,166.85471 0,166.85471 -30.02112,-2.54711 -30.59432,2.98954 -59.4449,8.68771 -21.99667,4.34448 -49.40087,0.46215 -56.62809,-3.51137 21.23063,-31.32706 26.61132,-127.44035 -10.76885,-167.22259 z"
         style="fill:#836615;fill-opacity:1;stroke:#411a0b;stroke-width:1.19369507;stroke-miterlimit:4;stroke-opacity:1" />
      <path
         style="fill:#5d4b0f;fill-opacity:1;stroke:none"
         d="m 283.82498,636.16016 c 0.0168,0.0241 0.0458,0.0384 0.0625,0.0625 10.73444,0.12422 21.48545,0.30355 32.21875,0.5 -0.003,-0.0215 -0.0278,-0.041 -0.0312,-0.0625 -10.75033,-0.19659 -21.49852,-0.37595 -32.25,-0.5 z m 89.59375,1.75 c -0.004,0.02 0.004,0.0425 0,0.0625 0.31273,0.008 0.62477,0.0234 0.9375,0.0312 7.78627,0.19448 15.58928,0.37819 23.375,0.59375 0.40662,0.0113 0.81208,0.021 1.21875,0.0312 0.002,-0.01 -0.002,-0.0215 0,-0.0312 -8.16648,-0.21846 -16.33011,-0.45219 -24.5,-0.65625 -0.34398,-0.009 -0.68727,-0.0227 -1.03125,-0.0312 z m 23,2.8125 c -0.74109,0.005 -1.50782,0.25945 -2.28125,0.90625 0.0937,3.9e-4 0.18752,-3.9e-4 0.28125,0 -0.92563,1.10836 -1.38997,1.88406 -1.53125,2.40625 1.2255,-0.0948 2.43789,-0.19855 3.6875,-0.3125 0.40556,-0.037 0.8153,-0.0622 1.21875,-0.125 0.17062,-0.811 0.34786,-1.61031 0.53125,-2.40625 -0.62763,-0.28746 -1.26208,-0.47304 -1.90625,-0.46875 z m -3.53125,3.3125 c -5.89271,0.45588 -11.53879,0.7209 -17.1875,0.875 0.91793,-0.009 1.83201,-0.0277 2.75,-0.0312 5.3842,-0.0207 10.7721,0.2805 16.15625,0.3125 0.73104,0.004 1.48068,0.0541 2.21875,0.0937 -0.98274,0.19351 -2.03826,0.4065 -3,0.59375 -7.7509,1.6113 -15.47227,3.3719 -23.15625,5.28125 -0.002,0.01 0.002,0.0213 0,0.0312 7.58246,-1.8658 15.18989,-3.55988 22.84375,-5.09375 1.24174,-0.20659 2.59679,-0.43261 3.90625,-0.65625 0.10077,-0.51377 0.20685,-1.02308 0.3125,-1.53125 -2.94012,1.03019 -5.23963,1.58819 -4.84375,0.125 z m -17.1875,0.875 c -1.2204,0.0117 -2.43594,0.0121 -3.65625,0.0312 -0.002,0.0121 -0.0288,0.0191 -0.0312,0.0312 1.22481,-0.0258 2.46604,-0.0292 3.6875,-0.0625 z m 18.4375,-3.28125 c -7.01933,-0.0292 -14.04321,-0.0339 -21.0625,-0.0625 3.79794,0.026 6.64754,0.0359 7.59375,0.0625 4.24938,0.11948 8.50567,0.47973 12.75,0.71875 0.24762,-0.28536 0.47507,-0.51496 0.71875,-0.71875 z m -106.96875,-0.28125 c 0.0236,0.0401 0.0389,0.0849 0.0625,0.125 0.24989,-10e-6 0.50011,3e-5 0.75,0 9.62423,-10e-4 19.25077,-0.0164 28.875,-0.0312 -0.004,-0.0214 0.004,-0.0411 0,-0.0625 -9.89832,-0.0186 -19.78908,-0.0355 -29.6875,-0.0312 z m 30.40625,4.4375 c -9.26292,0.1121 -18.51807,0.25902 -27.78125,0.34375 0.004,0.008 -0.004,0.023 0,0.0312 9.2652,-0.0851 18.54756,-0.20061 27.8125,-0.3125 -0.004,-0.0217 -0.0275,-0.0408 -0.0312,-0.0625 z m 49.625,18.75 c -0.007,0.022 -0.0247,0.0405 -0.0312,0.0625 8.84186,-0.007 18.04692,0.0118 27.625,0.0312 0.002,-0.0213 0.0294,-0.0412 0.0312,-0.0625 -9.57395,-0.0194 -18.78916,-0.0388 -27.625,-0.0312 z m -46.0625,0.28125 c -6.28033,0.0834 -12.56332,0.17816 -18.84375,0.25 -2.71538,0.0261 -2.62885,0.0394 -4.9375,0.0625 0.01,0.0314 0.0217,0.0623 0.0312,0.0937 1.61235,-0.017 3.23138,-0.047 4.84375,-0.0625 6.30126,-0.0721 12.60509,-0.16635 18.90625,-0.25 -0.006,-0.0301 0.006,-0.0637 0,-0.0937 z m 0.25,1.34375 c -2.13797,0.78938 -4.28121,1.57953 -6.40625,2.40625 -6.47066,2.51733 -11.01009,4.41126 -15.03125,6.1875 0.005,0.0198 -0.005,0.0427 0,0.0625 7.06322,-3.08376 14.21393,-5.95854 21.4375,-8.625 -0.002,-0.01 0.002,-0.0212 0,-0.0312 z m 72.5,17.09375 c -3.57363,0.18494 -7.14423,0.3942 -10.71875,0.5625 -2.73046,0.12856 -5.45705,0.21529 -8.1875,0.34375 -1.21341,0.0571 -2.54871,-0.31146 -3.65625,0.1875 -0.49643,0.22365 -0.88598,0.59049 -1.28125,0.96875 -1.20703,0.27832 -2.27255,0.60312 -1.78125,1.34375 0.0643,0.0969 0.14107,0.15601 0.21875,0.21875 -0.10845,0.10951 -0.19938,0.24139 -0.3125,0.34375 1.64247,0.0462 3.29441,0.115 4.9375,0.125 6.16834,0.0366 12.33165,-0.1608 18.5,-0.125 0.75067,0.004 1.49943,0.0232 2.25,0.0312 0.002,-0.41703 -0.004,-0.83343 0,-1.25 -0.18733,-0.007 -0.37516,-0.0244 -0.5625,-0.0312 -6.69618,-0.2436 -10.64336,-0.26371 -17.03125,-0.8125 2.01089,-0.2741 4.01298,-0.50841 6.03125,-0.71875 3.85598,-0.40186 7.73024,-0.71037 11.59375,-1 0.001,-0.0629 -10e-4,-0.12467 0,-0.1875 z m -0.0625,5.78125 c -12.40901,0.45874 -24.81095,0.94532 -37.21875,1.4375 -0.0114,0.0201 -0.0198,0.0424 -0.0312,0.0625 12.4182,-0.49252 24.8306,-0.97841 37.25,-1.4375 -1e-5,-0.0209 10e-6,-0.0416 0,-0.0625 z m -65.8125,2.65625 c -8.3012,0.36306 -16.60694,0.68962 -24.90625,1.09375 0.003,0.0205 -0.003,0.042 0,0.0625 8.29951,-0.40398 16.60486,-0.76205 24.90625,-1.125 -0.003,-0.009 0.003,-0.0218 0,-0.0312 z m 65.84375,0.59375 c -6.23262,0.33518 -12.48473,0.6473 -18.71875,0.9375 6.23972,-0.28772 12.47809,-0.55814 18.71875,-0.8125 -4e-4,-0.0416 3.9e-4,-0.0834 0,-0.125 z m -25.625,1.25 c -4.62781,0.20578 -9.2461,0.40291 -13.875,0.59375 -0.005,0.007 0.005,0.0239 0,0.0312 4.62534,-0.20429 9.24996,-0.41047 13.875,-0.625 z m -39.03125,1.5 c -4.76725,0.15516 -9.54455,0.32528 -14.3125,0.46875 4.78241,-0.11883 9.56193,-0.26496 14.34375,-0.40625 -0.008,-0.0213 -0.0232,-0.0412 -0.0312,-0.0625 z m -14.3125,0.46875 c -3.79556,0.0943 -7.57954,0.18678 -11.375,0.28125 3.79355,-0.0918 7.58177,-0.16711 11.375,-0.28125 z m -11.25,1.5 c 0.003,0.031 -0.003,0.0628 0,0.0937 0.8976,0.002 0.79043,-0.002 1.8125,0 6.68664,0.2298 13.37798,0.40261 20.0625,0.6875 0.98193,0.0418 3.52654,0.1838 4.90625,0.25 -0.009,-0.0212 -0.0222,-0.0413 -0.0312,-0.0625 -1.33576,-0.064 -3.8252,-0.20925 -4.78125,-0.25 -6.68457,-0.28494 -13.37581,-0.45764 -20.0625,-0.6875 -0.63541,-0.016 -1.27083,-0.0157 -1.90625,-0.0312 z m 47.34375,2 c -0.027,0.035 -0.0666,0.0588 -0.0937,0.0937 6.87864,0.36585 14.01559,0.72706 17.5,0.90625 8.56025,0.44021 17.0962,0.83346 25.65625,1.25 -6.6e-4,-0.0208 6.6e-4,-0.0417 0,-0.0625 -8.53475,-0.39495 -17.0606,-0.81118 -25.59375,-1.25 -3.47967,-0.17894 -10.59092,-0.57168 -17.46875,-0.9375 z m 43.25,11.78125 c -4.56515,0.27107 -9.12239,0.51161 -13.6875,0.78125 -31.09678,1.83674 -46.40736,2.70146 -75.8125,3.875 1.9e-4,0.0104 -1.9e-4,0.0208 0,0.0312 12.79336,-0.5152 25.58695,-1.08186 38.375,-1.71875 18.63542,-0.92811 34.27448,-1.91575 51.125,-2.96875 z m -4.9375,19.03125 c -2.43497,-0.0439 -4.95529,0.60432 -7.40625,0.6875 -6.17855,0.2097 -12.34961,0.51765 -18.53125,0.59375 -1.14609,0.0141 -2.29137,0.0246 -3.4375,0.0312 1.11472,0.0122 2.22912,0.0107 3.34375,0.0312 5.55676,0.10245 11.10753,0.43414 16.65625,0.75 1.10104,0.0627 2.21208,0.21682 3.3125,0.375 -1.26138,0.13566 -2.49728,0.28728 -3.71875,0.4375 -7.95656,0.97853 -15.93577,1.86172 -23.90625,2.71875 0.50011,-0.002 0.99989,-3e-5 1.5,0 -0.62516,0.008 -1.2498,0.0259 -1.875,0.0312 -5.28249,0.56697 -10.5575,1.12595 -15.84375,1.65625 -2.69741,0.30317 -5.1124,0.58532 -7.46875,0.84375 -6.50126,0.45714 -12.99733,0.93837 -19.5,1.375 -3.64754,0.24492 -5.66072,0.37663 -8.5625,0.5625 -9.5e-4,0.0104 9.5e-4,0.0209 0,0.0312 8.74185,-0.57309 17.47883,-1.14532 26.21875,-1.75 -8.00278,0.88382 -14.7724,1.65469 -24.09375,3.28125 -0.76887,0.13417 -1.56614,0.29691 -2.34375,0.4375 -0.008,0.0835 -0.0227,0.1666 -0.0312,0.25 6.18622,-1.21724 12.47564,-2.19517 18.96875,-3.0625 2.78053,-0.37141 5.55362,-0.67591 8.34375,-0.96875 0.29176,-0.0203 0.58325,-0.0422 0.875,-0.0625 11.7654,-0.50674 18.46726,-0.86199 29.90625,-1.125 3.3394,-0.0768 6.69105,-0.0999 10.03125,-0.125 2.01548,-0.0151 3.98766,0.20827 5.875,0 0.55141,0.50873 1.61135,0.0422 2.5,-0.625 1.00792,-0.42227 1.97301,-1.06824 2.875,-2.09375 0.4912,-0.55847 -0.72546,-0.23578 -1.875,0.0312 -1.63328,-0.46202 -3.34317,0.0933 -5.0625,0.5 -5.29848,0.34732 -10.1707,0.6513 -16.03125,0.78125 -0.26038,0.006 -0.52086,-0.005 -0.78125,0 10.6045,-0.92493 21.22114,-1.75545 31.84375,-2.4375 0.0887,-0.4066 0.38616,-0.93969 0.625,-1.4375 1.00274,-0.44166 1.98111,-0.93892 3,-1.3125 -0.90001,0.29947 -1.81281,0.53169 -2.75,0.75 0.14134,-0.41781 0.12809,-0.7415 -0.25,-0.84375 -0.78911,-0.21339 -1.59459,-0.29787 -2.40625,-0.3125 z m -34.0625,5.65625 c 0.10414,-0.0112 0.20836,-0.0201 0.3125,-0.0312 -1.3858,0.005 -2.77044,0.048 -4.15625,0.0625 1.28168,-0.003 2.56218,-0.0203 3.84375,-0.0312 z m 4.6875,-4.34375 c -6.33458,-0.0691 -12.66456,-0.0507 -19,-0.0312 6.33517,0.0294 12.6652,0.0681 19,0.0312 z m -19,-0.0312 c -1.47962,-0.007 -2.9579,-0.0299 -4.4375,-0.0312 -9.354,-0.008 -20.66316,10e-4 -32,0 -5.3e-4,0.0104 5.3e-4,0.0209 0,0.0312 11.30603,10e-4 22.57485,-0.008 31.90625,0 1.51083,10e-4 3.02036,0.005 4.53125,0 z m 17.84375,4.375 c 0.3855,0.002 0.77076,-0.004 1.15625,0 2.0565,0.0187 3.93117,0.0606 5.75,0.125 -0.78398,0.0548 -1.55991,0.13118 -2.34375,0.1875 -10.0036,0.71877 -20.02725,1.38058 -30.03125,2.09375 1.97867,-0.20407 3.96063,-0.40616 5.9375,-0.625 6.50939,-0.61827 13.01681,-1.21148 19.53125,-1.78125 z m -16,0.0312 c -12.86102,0.0792 -25.73266,0.15205 -38.59375,0.21875 -0.002,0.0208 0.002,0.0417 0,0.0625 12.83885,-0.0666 25.66122,-0.13968 38.5,-0.21875 2.87579,-0.0177 5.7492,-0.0322 8.625,-0.0625 -2.84469,0.007 -5.68672,-0.0175 -8.53125,0 z m 54.34375,7 c -1.26764,0.14965 -2.5218,0.30544 -3.78125,0.34375 -6.22034,0.18918 -12.43331,0.41025 -18.65625,0.46875 -1.47572,0.0139 -2.96175,0.0279 -4.4375,0.0312 1.45137,0.0127 2.8925,0.006 4.34375,0.0312 5.68685,0.0983 11.38291,0.384 17.0625,0.6875 0.83726,0.0447 1.66346,0.14215 2.5,0.25 -3.81926,0.28565 -7.64308,0.54253 -11.46875,0.71875 -1.58594,0.073 -3.16369,0.15343 -4.75,0.21875 1.56057,-0.043 3.12681,-0.11816 4.6875,-0.15625 4.15569,-0.1014 8.31194,-0.12675 12.46875,-0.15625 1.45278,-0.0103 1.48664,-0.0186 2.3125,-0.0312 -0.0906,-0.7865 -0.19225,-1.60745 -0.28125,-2.40625 z m -19.1875,2.75 c -7.21457,0.19869 -14.44375,0.4445 -21.65625,0.71875 7.21954,-0.21461 14.44085,-0.42166 21.65625,-0.71875 z m -21.65625,0.71875 c -14.24712,0.42351 -28.48984,0.81774 -42.71875,1.65625 -3.5377,0.17602 -7.08742,0.35033 -10.625,0.53125 -0.003,0.0218 -0.0284,0.0407 -0.0312,0.0625 3.52305,-0.18192 7.03858,-0.3559 10.5625,-0.53125 14.27105,-0.56185 28.53879,-1.17601 42.8125,-1.71875 z m 13.96875,-2.625 c -4.3404,-0.0381 -8.69037,-0.0425 -13.03125,-0.0312 4.34767,0.0273 8.68372,0.0411 13.03125,0.0312 z m -13.03125,-0.0312 c -2.90653,-0.0183 -5.81226,-0.0578 -8.71875,-0.0625 -14.54203,-0.0234 -29.77166,-0.0244 -44.96875,-0.0312 -0.002,0.0205 0.002,0.042 0,0.0625 15.16557,0.007 30.36192,0.008 44.875,0.0312 2.93774,0.005 5.87462,0.008 8.8125,0 z m -55.21875,11.09375 c -0.003,0.0202 0.003,0.0423 0,0.0625 18.5141,0.006 37.04843,1.2e-4 55.5625,0 12.06613,-0.003 24.12137,0.003 36.1875,0 2.46218,-6.7e-4 2.69954,-1.5e-4 4.8125,0 -0.003,-0.0208 0.003,-0.0417 0,-0.0625 -13.64564,0.0163 -27.29231,0.0205 -40.9375,0 -18.54533,10e-5 -37.07964,0.006 -55.625,0 z m 96.84375,2 c -4.41623,0.0534 -8.83379,0.13114 -13.25,0.1875 -28.06665,0.60334 -56.14939,1.04809 -84.21875,1.53125 -0.004,0.0222 -0.0271,0.0403 -0.0312,0.0625 28.05322,-0.48282 56.10574,-0.95944 84.15625,-1.5625 4.44937,-0.0568 8.89448,-0.12144 13.34375,-0.1875 -0.001,-0.0102 10e-4,-0.021 0,-0.0312 z m 1.5,10.75 c -6.69581,0.68428 -13.39782,1.38018 -20.09375,2.0625 -29.06545,3.15765 -42.88316,4.6846 -72.125,7.8125 -2.79404,0.29887 -8.14239,0.85076 -11.90625,1.25 -0.007,0.0216 -0.0239,0.0409 -0.0312,0.0625 3.94861,-0.41976 7.89553,-0.82767 11.84375,-1.25 29.25258,-3.12905 43.0804,-4.65373 72.15625,-7.8125 6.72263,-0.67488 13.43499,-1.37419 20.15625,-2.0625 -0.003,-0.0202 0.003,-0.0423 0,-0.0625 z m 1.3125,8.46875 c -16.28282,1.96666 -32.55106,3.85383 -48.84375,5.71875 -1.89026,0.21863 -3.79654,0.4446 -5.6875,0.65625 1.86398,-0.19633 3.72903,-0.40457 5.59375,-0.59375 16.31777,-1.86775 32.62965,-3.78009 48.9375,-5.75 -0.002,-0.01 0.002,-0.0213 0,-0.0312 z m -54.53125,6.375 c -3.13753,0.33047 -6.27149,0.67631 -9.40625,1.03125 3.1328,-0.3318 6.27532,-0.68082 9.40625,-1.03125 z m -9.40625,1.03125 c -2.52179,0.26709 -5.03954,0.4946 -7.5625,0.75 -0.33726,-0.0252 -0.7691,-0.0377 -1.09375,-0.0625 -10.67174,-0.81626 -21.31053,-1.96046 -31.96875,-2.9375 -0.58149,-0.0803 -1.08353,-0.14089 -1.65625,-0.21875 -0.008,0.0214 -0.0234,0.0411 -0.0312,0.0625 0.61017,0.0835 0.956,0.13063 1.59375,0.21875 10.65831,0.97717 21.29692,2.12115 31.96875,2.9375 0.23231,0.0178 0.54245,0.0445 0.78125,0.0625 -4.08543,0.41255 -8.16162,0.80439 -12.25,1.1875 -4.9534,-0.40814 -9.92567,-0.8444 -14.875,-1.3125 -2.69361,-0.25476 -5.37326,-0.51494 -8.0625,-0.8125 -0.008,0.0214 -0.0228,0.0411 -0.0312,0.0625 2.67376,0.29572 5.35316,0.55919 8.03125,0.8125 4.87648,0.46126 9.74456,0.87826 14.625,1.28125 -2.72681,0.25503 -5.45944,0.50752 -8.1875,0.75 -3.18107,0.28275 -6.39397,0.64055 -9.59375,0.87505 -0.73461,-0.0199 -1.52105,-0.2922 -2.1875,0 -0.11604,0.0508 -0.23093,0.0995 -0.34375,0.1562 -0.0836,0.004 -0.16644,0.0275 -0.25,0.0312 -1.01227,0.8335 -2.66247,1.2614 -3.21875,2.375 -0.57278,0.009 -1.14597,0.0219 -1.71875,0.0313 -0.0105,0.021 -0.0207,0.0415 -0.0312,0.0625 0.56237,-0.009 1.12513,-0.0222 1.6875,-0.0312 -0.0947,0.0681 -0.15409,0.184 -0.25,0.25 0.0736,-0.017 0.14516,-0.0457 0.21875,-0.0626 -0.0147,0.0468 -0.0515,0.076 -0.0625,0.125 -0.19867,0.8883 1.68747,-0.136 2.6875,-0.3437 1.03006,-0.016 2.06407,-0.0163 3.09375,-0.0313 0.83388,-0.0378 1.66607,-0.0577 2.5,-0.0937 -0.3918,0.0199 -1.44168,0.0703 -1.90625,0.0937 13.11531,-0.1866 26.19218,-0.2969 39.3125,0.0313 3.62526,0.1327 7.24904,0.1179 10.875,0.2187 0.42334,0.012 0.95189,0.3289 1.28125,0.0626 0.57954,-0.4685 1.66612,-1.1671 2.15625,-1.8126 0.0798,-0.0475 0.17068,-0.0767 0.25,-0.125 16.88937,0.9875 33.80995,1.7594 50.71875,2.4063 -5e-4,-0.003 -0.0305,-0.09 -0.0312,-0.0937 -16.86673,-0.6459 -33.74638,-1.3901 -50.59375,-2.375 0.40146,-0.2457 0.7948,-0.5011 1.1875,-0.75 0.41507,-0.2631 -0.52585,0.071 -1.28125,0.2812 -0.0114,-0.1407 -0.10089,-0.2616 -0.25,-0.375 -1.50451,-1.14389 -3.76702,0.1345 -5.65625,0.1875 -1.0614,0.0298 -2.12602,0.0667 -3.1875,0.0937 -3.32977,-0.2124 -6.64035,-0.4539 -9.96875,-0.6874 3.35611,-0.1272 6.29887,-0.2159 11.1875,-0.4063 4.65392,-0.0706 9.31452,-0.14678 13.96875,-0.21875 14.54627,0.83085 29.59969,1.62785 39.1875,2.15625 1.68771,0.093 3.37482,0.1882 5.0625,0.2812 -0.003,-0.0168 0.003,-0.0451 0,-0.0624 -1.65652,-0.0914 -3.3122,-0.19 -4.96875,-0.2813 -9.38142,-0.517 -24.02042,-1.2821 -38.28125,-2.09375 14.22311,-0.21979 28.46266,-0.46596 42.6875,-0.625 -14.91441,0.0975 -29.83784,0.22501 -44.75,0.5 -10.45259,-0.59971 -20.51013,-1.17989 -27.8125,-1.71875 2.33467,-0.28073 4.66337,-0.54793 7,-0.8125 z m -7.375,0.84375 c 7.12552,0.52894 16.98316,1.09633 27.25,1.6875 -3.96206,0.0747 -7.91324,0.18343 -11.875,0.28125 -5.11036,0.0669 -10.23332,0.125 -15.34375,0.1875 -3.54033,-0.25825 -7.08648,-0.52706 -10.625,-0.8125 3.52754,-0.46985 7.06064,-0.91749 10.59375,-1.34375 z m -10.90625,1.375 c 3.37222,0.27261 6.75113,0.53344 10.125,0.78125 -5.15183,0.0635 -10.28603,0.1316 -15.4375,0.2187 -1.99228,0.0338 -0.59672,0.009 -1.90625,0.0313 2.40661,-0.3454 4.80904,-0.70932 7.21875,-1.03125 z m 14.34375,1.09375 c 3.28831,0.232 6.58533,0.445 9.875,0.6562 -1.87313,0.047 -3.75188,0.1087 -5.625,0.1563 -4.51849,0.2136 -9.01433,0.3806 -13.53125,0.625 -31.76564,1.7189 -10.6263,0.7372 -21.90625,1.3125 9.37539,-0.3954 18.73965,-0.6444 28.125,-0.5938 -9.37272,0.2862 -18.7478,0.4415 -28.125,0.5938 -0.0697,0.004 -0.3027,0.0276 -0.375,0.0312 -1.93796,0.0314 -3.87387,0.0629 -5.8125,0.0938 6.32125,-0.8202 8.53467,-1.0994 15.9375,-1.6562 9.09493,-0.6842 14.93627,-0.9694 21.4375,-1.2188 z m 30.75,6.7188 c -11.26739,0.3662 -22.54349,0.7132 -33.8125,1.0312 -13.99537,0.0998 -27.974,0.2287 -41.96875,0.375 12.94331,-0.1264 25.35259,-0.1882 39.3125,-0.2812 -7.68404,0.2154 -15.37856,0.4135 -23.0625,0.625 -9.74916,0.2683 -10.59908,0.2969 -16.78125,0.4687 -0.0127,0.0189 -0.0185,0.0436 -0.0312,0.0625 6.17675,-0.1716 7.02098,-0.201 16.75,-0.4688 8.65987,-0.2383 17.3088,-0.4742 25.96875,-0.7187 1.73046,-0.0117 3.03438,-0.0187 4.84375,-0.0313 8.51439,-0.0456 17.01682,-0.0901 25.53125,-0.125 0.0727,-0.0216 0.14607,-0.041 0.21875,-0.0624 -8.56025,0.0349 -17.12729,0.079 -25.6875,0.125 -0.68782,0.005 -1.37468,0.0264 -2.0625,0.0312 10.16432,-0.2892 20.33706,-0.6076 30.5,-0.9375 0.0956,-0.0259 0.18565,-0.0681 0.28125,-0.0937 z m -17.09375,5.625 c -18.37705,0.0519 -36.74792,0.08 -55.125,0.0937 0.0212,0.017 0.0413,0.0455 0.0625,0.0625 18.30612,-0.0137 36.60016,-0.0421 54.90625,-0.0938 0.0516,-0.0191 0.10471,-0.0433 0.15625,-0.0624 z"
         id="path4696"
         inkscape:connector-curvature="0" />
    </g>
    <path
       style="fill:#358315;fill-opacity:1;stroke:none"
       d="M 377.09375 319.84375 C 373.75944 320.00229 371.80123 323.09311 371.46875 327.71875 C 370.13614 328.653 368.80124 329.78677 367.5 331.09375 C 365.40001 331.07505 363.2988 331.11124 361.1875 331.15625 C 359.97431 329.33167 358.30872 327.86135 356.25 326.9375 C 350.93244 324.55124 344.6607 326.60161 340.75 331.59375 C 340.72965 331.50919 340.70905 331.42803 340.6875 331.34375 C 338.84913 324.1544 333.30853 320.74291 328.34375 323.75 C 327.2266 324.42664 326.25714 325.39025 325.40625 326.53125 C 324.95286 324.01235 323.64373 322.22721 321.46875 321.65625 C 316.54572 320.36389 309.02316 325.73361 304.34375 333.90625 L 303.875 334.75 C 303.41399 335.6105 303.01659 336.469 302.65625 337.3125 C 301.0621 330.18962 295.39535 325.67818 289.59375 327.03125 L 289 327.21875 C 283.47196 328.89941 279.93721 335.40896 280.46875 342.34375 C 279.59433 341.12672 278.4113 340.16387 277 339.53125 C 272.39569 337.46736 266.79234 339.91049 264.21875 345.09375 L 263.96875 345.625 C 263.61274 346.43498 263.36067 347.23756 263.1875 348.0625 C 258.21521 347.03726 253.21821 349.66089 251.53125 354.34375 C 250.97822 355.87891 250.843 357.47559 251.0625 359 C 246.75613 353.77258 239.90407 351.98302 234.9375 355.09375 L 234.40625 355.4375 C 229.47531 358.98396 228.60733 366.46097 232.3125 372.625 C 231.48807 372.31625 230.62577 372.0229 229.71875 371.78125 L 228.84375 371.5625 C 220.09437 369.51944 211.25545 371.61514 208.71875 376.3125 C 207.59769 378.38842 207.89576 380.62425 209.28125 382.71875 C 207.92267 382.58602 206.60479 382.69916 205.375 383.09375 C 199.91069 384.84702 198.36306 391.44683 201.9375 397.84375 C 201.97804 397.91629 202.02101 397.99064 202.0625 398.0625 C 195.99737 397.63693 190.25741 401.09105 188.1875 406.84375 C 186.72726 410.90204 187.42286 415.21634 189.65625 418.65625 C 180.86103 417.48778 172.62744 419.68189 170.09375 424.15625 C 167.45145 428.82241 171.85717 434.41281 180.09375 437.4375 C 172.61326 440.56503 166.99017 445.81953 166.53125 450.625 C 166.07875 455.36323 170.76775 458.28322 177.71875 458.25 C 177.48247 459.71262 177.47037 461.20216 177.71875 462.625 C 176.80303 462.34111 175.85965 462.09332 174.90625 461.875 C 165.26607 459.66746 157.65571 461.86086 157.90625 466.78125 C 158.09192 470.42767 162.56413 474.57889 168.84375 477.375 C 161.95194 479.34855 157.74063 485.41698 159.21875 491.5 L 159.40625 492.125 C 160.59402 495.95682 163.82253 498.8137 167.84375 500.15625 C 162.94612 502.95969 160.18382 508.08022 160.84375 513.3125 C 153.41221 512.91814 148.24561 515.5557 148.5 520.3125 C 148.75847 525.14576 154.53607 530.7084 162.40625 534.21875 C 153.44482 536.81143 148.43086 542.13728 151.03125 546.9375 C 153.52015 551.5319 162.21097 554.17034 171.65625 553.46875 C 169.11402 556.78597 168.16944 561.0669 169.53125 565.1875 C 171.4694 571.052 177.44921 574.78211 183.96875 574.65625 C 183.91761 574.73053 183.86252 574.79989 183.8125 574.875 C 179.68126 581.07916 180.9929 587.74683 186.75 589.78125 C 188.04148 590.23763 189.45237 590.40412 190.90625 590.34375 C 189.31527 592.36732 188.89965 594.6139 190 596.75 C 192.48459 601.57333 201.8282 604.11845 211.28125 602.53125 L 212.25 602.34375 C 213.23658 602.14837 214.16189 601.92366 215.0625 601.65625 C 210.80493 607.62057 211.36951 615.14023 216.46875 618.9375 L 217 619.3125 C 222.14783 622.66956 229.57971 621.25252 234.4375 616.28125 C 234.13853 617.78038 234.20646 619.35823 234.71875 620.90625 C 236.29547 625.67076 241.50973 628.54711 246.875 627.78125 C 247.0202 628.6142 247.25235 629.45377 247.59375 630.28125 L 247.8125 630.8125 C 250.313 636.12307 256.22751 638.85409 261.25 637.03125 C 262.79443 636.47072 264.06742 635.51939 265.0625 634.34375 C 264.13675 641.25908 267.627 647.99917 273.46875 649.96875 L 274.09375 650.15625 C 280.23667 651.80999 286.48812 647.6065 288.53125 640.5625 C 288.87723 641.42925 289.26453 642.29822 289.71875 643.1875 L 290.1875 644.0625 C 294.79462 652.46808 302.58037 658.22319 307.90625 657.1875 C 310.25658 656.73044 311.73572 655.01916 312.34375 652.53125 C 313.19738 653.71257 314.21521 654.7049 315.375 655.4375 C 320.53733 658.69838 326.5927 655.61688 328.90625 648.53125 C 328.93607 648.43992 328.94046 648.34174 328.96875 648.25 C 332.9058 653.45503 339.53451 655.82974 345.34375 653.71875 C 347.59371 652.90115 349.45752 651.51426 350.84375 649.75 C 353.09025 649.90364 355.32493 650.0351 357.5625 650.125 C 358.90736 651.51723 360.28994 652.73837 361.6875 653.75 C 361.82692 658.37023 363.73222 661.54459 367.28125 661.875 C 372.181 662.33116 378.6755 657.25716 383.3125 649.78125 C 383.7742 649.74982 384.22652 649.7216 384.6875 649.6875 C 386.21457 653.02124 389.0087 655.59777 392.71875 656.625 C 398.65951 658.26986 405.10161 655.40622 408.625 649.9375 C 408.65427 650.01069 408.68847 650.08342 408.71875 650.15625 C 411.58041 657.03881 417.85906 659.65537 422.75 656 C 423.84234 655.18361 424.77519 654.1102 425.53125 652.875 C 426.33253 655.30677 427.96532 656.88482 430.34375 657.15625 C 435.73441 657.77143 443.03444 651.39699 446.96875 642.65625 L 447.375 641.78125 C 447.76433 640.8442 448.06399 639.93624 448.34375 639.03125 C 450.92555 645.91055 457.49781 649.63275 463.5 647.5 L 464.09375 647.25 C 469.7559 644.83184 472.70151 637.87565 471.25 631.0625 C 472.33339 632.15425 473.69988 632.96908 475.28125 633.40625 C 480.43113 634.82993 486.07957 631.64643 488.15625 626.15625 L 488.34375 625.59375 C 488.61814 624.74552 488.79508 623.90094 488.875 623.0625 C 494.28365 623.40543 499.23899 620.12331 500.4375 615.25 C 500.82987 613.65456 500.76803 612.07436 500.34375 610.59375 C 505.57786 615.20089 513.11826 616.04121 518 612.28125 L 518.5 611.84375 C 523.28655 607.65812 523.27591 600.11256 518.5625 594.5 C 519.47687 594.69459 520.41269 594.88315 521.40625 595 L 522.375 595.09375 C 531.92335 595.93534 541.026 592.65943 543.125 587.65625 C 544.05282 585.44469 543.48699 583.23403 541.75 581.34375 C 543.20377 581.28992 544.59229 581.02479 545.84375 580.46875 C 551.42373 577.98947 552.19843 571.23637 547.59375 565.375 C 547.54345 565.31098 547.48866 565.25077 547.4375 565.1875 C 553.93384 564.79057 559.59218 560.58255 561.0625 554.59375 C 562.10192 550.36007 560.82093 546.17449 558 543.0625 C 567.49384 543.03453 575.93711 539.75341 578.0625 534.96875 C 580.27815 529.98091 574.91368 525.03993 565.78125 523.15625 C 573.32771 519.04069 578.65205 513.04761 578.53125 508.21875 C 578.41212 503.45675 573.06503 501.2122 565.6875 502.1875 C 565.92021 496.94215 562.762 492.06721 557.6875 489.65625 C 557.92806 489.55419 558.17291 489.45689 558.40625 489.34375 C 563.46668 489.49753 566.98053 487.45114 567.25 483.53125 C 567.37598 481.6987 566.79084 479.66399 565.625 477.59375 C 565.18162 473.27609 562.05285 469.52845 557.4375 467.75 C 565.19683 466.05722 569.80133 461.61697 568.0625 456.8125 C 566.29724 451.93502 558.56655 448.24309 549.71875 447.75 C 552.4772 444.77993 553.83886 440.64273 553.0625 436.375 C 551.96173 430.32396 546.88535 425.86946 540.84375 425.15625 C 540.8961 425.09349 540.94848 425.03235 541 424.96875 C 545.56205 419.33722 545.12609 412.52781 540.03125 409.78125 C 538.89298 409.16762 537.59842 408.813 536.25 408.6875 C 537.93919 406.88838 538.60606 404.71248 537.84375 402.46875 C 536.11138 397.3698 527.72943 393.68423 518.78125 394.0625 L 517.875 394.125 C 516.94983 394.19307 516.07467 394.28919 515.21875 394.4375 C 519.86145 389.06052 520.21168 381.53431 515.9375 377.125 L 515.46875 376.6875 C 511.09468 372.70583 504.05842 373.1828 498.96875 377.5 C 499.42269 376.05113 499.54166 374.4749 499.25 372.875 C 498.35014 367.93883 493.85719 364.40375 488.78125 364.5 C 488.74458 363.65875 488.65515 362.79794 488.4375 361.9375 L 488.28125 361.375 C 486.59174 355.79071 481.43255 352.32735 476.5625 353.5 C 475.06919 353.85957 473.7783 354.62053 472.71875 355.65625 C 474.37318 348.9264 471.9512 341.84348 466.78125 339.15625 L 466.21875 338.875 C 460.71775 336.45566 454.41078 339.82485 451.6875 346.5625 C 451.46836 345.65204 451.22459 344.72839 450.90625 343.78125 L 450.59375 342.875 C 447.31783 333.95401 440.77691 327.24031 435.71875 327.59375 C 433.48097 327.75012 431.91854 329.28608 431.0625 331.6875 C 430.40962 330.39999 429.58666 329.28387 428.59375 328.40625 C 424.19509 324.51835 418.20047 326.82657 415.21875 333.5625 C 415.18258 333.64422 415.15996 333.73024 415.125 333.8125 C 412.08842 328.16406 406.2201 324.95523 400.59375 326.3125 C 397.08436 327.15909 394.35687 329.61792 392.78125 332.875 C 392.35271 332.81863 391.92933 332.7725 391.5 332.71875 C 387.51095 325.01947 381.68946 319.62524 377.09375 319.84375 z M 220.4375 389.53125 C 222.27847 390.00425 224.1275 390.28997 225.9375 390.40625 C 224.90091 391.59156 223.86966 392.78856 222.875 394 C 222.58038 393.17268 222.18328 392.33134 221.71875 391.5 L 221.375 390.90625 C 221.08661 390.4363 220.76342 389.96833 220.4375 389.53125 z M 206 579.78125 C 207.00926 581.0488 208.03795 582.3191 209.09375 583.5625 C 207.15382 583.58439 205.17798 583.7487 203.1875 584.125 C 203.553 583.70922 203.92228 583.2936 204.25 582.84375 L 204.65625 582.25 C 205.20149 581.43118 205.64228 580.60483 206 579.78125 z "
       id="path2987" />
    <path
       id="path4465"
       d="m 374.1183,319.25152 c -3.13853,0.1459 -4.98174,2.99027 -5.2947,7.24709 -1.25436,0.85977 -2.51087,1.90314 -3.73571,3.10591 -1.97667,-0.0172 -3.9545,0.0161 -5.94182,0.0575 -1.14196,-1.6791 -2.70974,-3.03218 -4.64757,-3.88237 -5.00531,-2.19599 -10.90878,-0.30911 -14.58984,4.28499 -0.0192,-0.0779 -0.0385,-0.15251 -0.0589,-0.23007 -1.73042,-6.61612 -6.94567,-9.7556 -11.61892,-6.98828 -1.05155,0.6227 -1.96408,1.50947 -2.76501,2.5595 -0.42677,-2.31806 -1.65902,-3.96086 -3.70629,-4.4863 -4.63395,-1.18932 -11.71478,3.75226 -16.11942,11.27327 l -0.44122,0.77647 c -0.43394,0.79188 -0.808,1.58193 -1.14718,2.35819 -1.50054,-6.55495 -6.83454,-10.70668 -12.29547,-9.4615 l -0.55888,0.17255 c -5.20343,1.54666 -8.53062,7.53717 -8.0303,13.91903 -0.82307,-1.11999 -1.93663,-2.00606 -3.26506,-2.58825 -4.33395,-1.89933 -9.60827,0.349 -12.03073,5.11898 l -0.23532,0.4889 c -0.33511,0.7454 -0.57237,1.48399 -0.73537,2.24315 -4.68032,-0.9435 -9.3839,1.47094 -10.9718,5.78043 -0.52056,1.41275 -0.64784,2.88212 -0.44123,4.28499 -4.05349,-4.81063 -10.5032,-6.4575 -15.17813,-3.59479 l -0.50006,0.31634 c -4.64139,3.26368 -5.4584,10.14452 -1.9708,15.81708 -0.77602,-0.28414 -1.58768,-0.5541 -2.44145,-0.77648 l -0.82361,-0.20131 c -8.23561,-1.88016 -16.55552,0.0485 -18.94326,4.37127 -1.05523,1.9104 -0.77466,3.96795 0.52947,5.89545 -1.2788,-0.12214 -2.51929,-0.018 -3.67687,0.3451 -5.14345,1.61348 -6.6002,7.68706 -3.23565,13.57394 0.0381,0.0668 0.0786,0.13517 0.11766,0.20131 -5.70898,-0.39165 -11.11189,2.78706 -13.06026,8.08108 -1.37449,3.73471 -0.71974,7.70502 1.38251,10.87065 -8.27877,-1.0753 -16.02888,0.94387 -18.41379,5.06147 -2.48714,4.29411 1.65988,9.43877 9.4128,12.22228 -7.04124,2.87816 -12.33414,7.71371 -12.76611,12.13602 -0.42592,4.36044 3.98774,7.0476 10.53057,7.01704 -0.22241,1.34599 -0.23379,2.71677 0,4.02616 -0.86195,-0.26125 -1.74993,-0.48929 -2.64735,-0.6902 -9.0741,-2.03152 -16.23759,-0.013 -16.00175,4.51506 0.17476,3.35568 4.38436,7.17591 10.29524,9.74907 -6.48711,1.8162 -10.45114,7.40077 -9.05982,12.99877 l 0.1765,0.57516 c 1.11802,3.5263 4.15695,6.15539 7.94205,7.39089 -4.61005,2.57992 -7.21015,7.29217 -6.58897,12.10726 -6.99515,-0.36291 -11.85837,2.06434 -11.61892,6.44187 0.2433,4.44788 5.68163,9.567 13.08967,12.79745 -8.43521,2.38595 -13.15475,7.28716 -10.70705,11.70464 2.34275,4.22808 10.52324,6.65614 19.41389,6.01049 -2.39295,3.05273 -3.28206,6.99232 -2.00022,10.78438 1.82434,5.39689 7.45301,8.8296 13.58973,8.71377 -0.0481,0.0683 -0.1,0.13219 -0.14708,0.2013 -3.88865,5.70949 -2.65403,11.84552 2.76501,13.71773 1.21565,0.41999 2.54369,0.5732 3.91219,0.51765 -1.49755,1.86223 -1.88877,3.92968 -0.85303,5.89546 2.3387,4.43875 11.13365,6.78093 20.03161,5.32029 l 0.91187,-0.17255 c 0.92864,-0.1798 1.79962,-0.3866 2.64735,-0.63268 -4.00757,5.48876 -3.47614,12.40885 1.32367,15.90335 l 0.50006,0.3451 c 4.84555,3.08939 11.84102,1.78534 16.41356,-2.78955 -0.28142,1.37959 -0.21747,2.83163 0.26474,4.25622 1.48413,4.38462 6.39221,7.03163 11.44242,6.32684 0.13668,0.76654 0.3552,1.53916 0.67655,2.30066 l 0.2059,0.48889 c 2.35368,4.88715 7.92089,7.40041 12.64845,5.72291 1.45375,-0.51583 2.65199,-1.39131 3.58863,-2.47321 -0.87139,6.36394 2.41391,12.56662 7.91264,14.37916 l 0.5883,0.17255 c 5.7822,1.52189 11.66657,-2.34645 13.58972,-8.8288 0.32566,0.79764 0.69023,1.59732 1.11778,2.41569 l 0.44122,0.80524 c 4.33659,7.73537 11.66515,13.0316 16.67829,12.0785 2.21232,-0.42062 3.60461,-1.99546 4.17694,-4.28499 0.8035,1.08712 1.76156,2.00033 2.85325,2.67452 4.85919,3.00088 10.559,0.16508 12.73669,-6.35559 0.0281,-0.0841 0.0322,-0.1744 0.0589,-0.25883 3.70586,4.79002 9.94533,6.97539 15.41345,5.03271 2.11785,-0.75241 3.87221,-2.02872 5.17705,-3.65231 2.11458,0.14139 4.21804,0.26237 6.32422,0.3451 1.26589,1.28123 2.56728,2.405 3.88278,3.33596 0.13123,4.25185 1.92465,7.17311 5.26528,7.47717 4.61203,0.4198 10.72517,-4.24964 15.08989,-11.12947 0.43459,-0.0289 0.86035,-0.0549 1.29426,-0.0863 1.4374,3.06793 4.06746,5.43902 7.55966,6.38434 5.59191,1.51371 11.65573,-1.12159 14.97222,-6.15427 0.0276,0.0673 0.0598,0.13428 0.0882,0.2013 2.69363,6.33379 8.60359,8.74172 13.20733,5.37781 1.0282,-0.7513 1.90627,-1.73912 2.61794,-2.87583 0.75423,2.23787 2.29114,3.6901 4.5299,3.93988 5.07413,0.56614 11.94549,-5.30005 15.64878,-13.34386 l 0.38239,-0.80524 c 0.36647,-0.86233 0.64854,-1.69789 0.91187,-2.53073 2.4302,6.33079 8.61653,9.75621 14.26627,7.79351 l 0.55888,-0.23007 c 5.32967,-2.22535 8.10232,-8.62689 6.73603,-14.89681 1.01978,1.00471 2.30603,1.75457 3.79455,2.15688 4.84747,1.31016 10.16424,-1.6195 12.11897,-6.67194 l 0.17649,-0.51764 c 0.25827,-0.7806 0.42482,-1.55784 0.50005,-2.32943 5.09106,0.31558 9.75542,-2.70484 10.88355,-7.18958 0.36933,-1.46824 0.31112,-2.92244 -0.0882,-4.28499 4.92677,4.2398 12.0244,5.01311 16.61947,1.55294 l 0.47064,-0.40261 c 4.50549,-3.85189 4.49547,-10.79582 0.0589,-15.96088 0.86067,0.17908 1.74154,0.35261 2.67675,0.46014 l 0.91188,0.0863 c 8.98766,0.77448 17.55581,-2.24023 19.53155,-6.84449 0.87333,-2.03522 0.34073,-4.06962 -1.29426,-5.80918 1.3684,-0.0495 2.67539,-0.29352 3.85336,-0.80523 5.25233,-2.2816 5.98153,-8.49626 1.64724,-13.89027 -0.0473,-0.0589 -0.0989,-0.11433 -0.14708,-0.17255 6.11488,-0.36529 11.44096,-4.23779 12.82494,-9.74908 0.97839,-3.89612 -0.22738,-7.74796 -2.88266,-10.61182 8.93636,-0.0257 16.88383,-3.04525 18.88442,-7.44841 2.08554,-4.59014 -2.96392,-9.13716 -11.56009,-10.87065 7.10333,-3.78741 12.11502,-9.30264 12.00131,-13.74648 -0.11213,-4.38231 -5.14524,-6.44789 -12.08956,-5.55035 0.21905,-4.82712 -2.75371,-9.31337 -7.53024,-11.53209 0.22644,-0.0939 0.45691,-0.18347 0.67655,-0.28759 4.76328,0.14152 14.3208,-13.52742 8.32444,-5.34905 -0.99964,1.36339 -0.43219,-3.55891 -1.52958,-5.46408 -0.41735,-3.9734 -3.36239,-7.42222 -7.70672,-9.05888 7.30369,-1.5578 11.63782,-5.64402 10.00109,-10.0654 -1.6616,-4.48859 -8.93835,-7.88615 -17.2666,-8.33992 2.59648,-2.73326 3.87818,-6.54059 3.1474,-10.46803 -1.03613,-5.56857 -5.81442,-9.6679 -11.50126,-10.32424 0.0493,-0.0577 0.0986,-0.11402 0.14708,-0.17256 4.29417,-5.1825 3.8838,-11.44898 -0.91186,-13.97654 -1.07143,-0.5647 -2.28998,-0.89105 -3.55922,-1.00655 1.59,-1.65567 2.21771,-3.65808 1.50017,-5.7229 -1.63065,-4.69239 -9.52041,-8.0841 -17.94315,-7.73599 l -0.85304,0.0575 c -0.87084,0.0627 -1.69461,0.1511 -2.50027,0.28759 4.37008,-4.94826 4.69975,-11.87438 0.67655,-15.93212 l -0.44123,-0.40262 c -4.11723,-3.66419 -10.74031,-3.22526 -15.53111,0.74772 0.42728,-1.33335 0.53927,-2.7839 0.26473,-4.25623 -0.84702,-4.5426 -5.07615,-7.79581 -9.85403,-7.70723 -0.0345,-0.77418 -0.11869,-1.56635 -0.32356,-2.35818 l -0.14708,-0.51766 c -1.59029,-5.13903 -6.44654,-8.32624 -11.03061,-7.2471 -1.40562,0.33091 -2.62071,1.03119 -3.61805,1.98433 1.55728,-6.19326 -0.72248,-12.71143 -5.58885,-15.1844 l -0.52947,-0.25883 c -5.17797,-2.22643 -11.1146,0.87412 -13.67797,7.07456 -0.20627,-0.83787 -0.43573,-1.68787 -0.73538,-2.5595 l -0.29414,-0.83399 c -3.08356,-8.20969 -9.2404,-14.38808 -14.00154,-14.06282 -2.10638,0.1439 -3.57706,1.55739 -4.38283,3.76734 -0.61454,-1.18485 -1.38918,-2.21198 -2.32379,-3.01963 -4.14037,-3.5779 -9.78298,-1.45372 -12.58962,4.74513 -0.034,0.0752 -0.0554,0.15437 -0.0882,0.23006 -2.85827,-5.19807 -8.382,-8.15104 -13.67797,-6.90199 -3.30332,0.77909 -5.87065,3.04186 -7.35374,6.03925 -0.40339,-0.0519 -0.80191,-0.0943 -1.20602,-0.1438 -3.75481,-7.08539 -9.23446,-12.04952 -13.56031,-11.84843 z m -147.45736,64.13107 c 1.73287,0.43528 3.47333,0.69823 5.17704,0.80524 -0.97572,1.0908 -1.94641,2.19236 -2.88267,3.3072 -0.27732,-0.76135 -0.6511,-1.53561 -1.08835,-2.30066 l -0.32357,-0.54641 c -0.27145,-0.43248 -0.57567,-0.86314 -0.88245,-1.26537 z M 213.07122,558.4633 c 0.94999,1.16648 1.91828,2.3355 2.91208,3.47975 -1.82601,0.0201 -3.68583,0.17136 -5.55944,0.51766 0.34405,-0.38263 0.69164,-0.76511 1.00011,-1.1791 l 0.38241,-0.54641 c 0.51322,-0.75352 0.92812,-1.51399 1.26484,-2.2719 z"
       style="fill:url(#linearGradient4481);fill-opacity:1;stroke:none"
       inkscape:connector-curvature="0"
       sodipodi:nodetypes="ccccsccscsccccccscccsccccccsccccscscsccsscccccscscsccscsccccccscccsccccccscsccscccsccsccscsccccccscccsccccccscsccscscscccsccscsccscsccccccscccsccccccscsccscccccccccccccccc" />
    <path
       sodipodi:nodetypes="ccccsccscsccccccscccsccccccsccccscscsccsscccccscscsccscsccccccscccsccccccscsccscccsccsccscsccccccscccsccccccscsccscscscccsccscsccscsccccccscccsccccccscsccscccccccccccccccc"
       inkscape:connector-curvature="0"
       style="fill:url(#linearGradient4497);fill-opacity:1;stroke:none"
       d="m 358.79223,325.31125 c -2.72346,0.11545 -4.3229,2.36655 -4.59446,5.73548 -1.08847,0.68043 -2.17881,1.50618 -3.24165,2.45806 -1.71527,-0.0136 -3.43151,0.0133 -5.15601,0.0454 -0.99093,-1.32886 -2.35136,-2.39971 -4.03292,-3.07258 -4.34333,-1.73793 -9.46605,-0.24462 -12.66029,3.39122 -0.0166,-0.0616 -0.0334,-0.12063 -0.0511,-0.18207 -1.50156,-5.23612 -6.02709,-7.72076 -10.08227,-5.53066 -0.91248,0.49282 -1.70433,1.19462 -2.39933,2.02565 -0.37033,-1.83457 -1.43962,-3.13471 -3.21613,-3.55055 -4.0211,-0.94125 -10.16547,2.96961 -13.98758,8.92186 l -0.38287,0.61453 c -0.37655,0.62671 -0.70115,1.25196 -0.99546,1.8663 -1.30209,-5.1877 -5.93066,-8.47346 -10.66936,-7.488 l -0.48496,0.13657 c -4.51526,1.22405 -7.40243,5.96505 -6.96827,11.01576 -0.71422,-0.88637 -1.68051,-1.58762 -2.83325,-2.04837 -3.76077,-1.50317 -8.33756,0.27619 -10.43963,4.05124 l -0.20421,0.38692 c -0.29079,0.58993 -0.49666,1.17446 -0.6381,1.77527 -4.06134,-0.74669 -8.14287,1.16413 -9.52075,4.57474 -0.45172,1.11808 -0.56216,2.28096 -0.38288,3.39122 -3.51741,-3.80721 -9.11412,-5.11058 -13.17077,-2.84498 l -0.43394,0.25035 c -4.02754,2.58293 -4.7365,8.02856 -1.71015,12.51792 -0.67339,-0.22487 -1.37771,-0.43852 -2.11856,-0.61451 l -0.71468,-0.15933 c -7.14643,-1.48799 -14.36602,0.0384 -16.43797,3.4595 -0.91568,1.51194 -0.67221,3.14031 0.45945,4.66578 -1.10967,-0.0967 -2.18611,-0.0142 -3.1906,0.27312 -4.46321,1.27693 -5.72731,6.08367 -2.80773,10.74265 0.0331,0.0529 0.0682,0.10695 0.10209,0.15933 -4.95396,-0.30997 -9.64232,2.20572 -11.33301,6.39551 -1.19271,2.95571 -0.62456,6.09788 1.19967,8.60322 -7.18388,-0.85101 -13.90902,0.747 -15.97852,4.00575 -2.1582,3.39843 1.44036,7.47001 8.16793,9.67293 -6.11002,2.27783 -10.70291,6.10477 -11.07776,9.60465 -0.36959,3.45094 3.46036,5.5776 9.13788,5.55342 -0.19299,1.06525 -0.20287,2.1501 0,3.18638 -0.74796,-0.20676 -1.51851,-0.38724 -2.29723,-0.54624 -7.87402,-1.60778 -14.09012,-0.0106 -13.88548,3.5733 0.15165,2.65575 3.80452,5.67914 8.93367,7.71559 -5.62918,1.43737 -9.06894,5.8571 -7.86164,10.28746 l 0.15317,0.45519 c 0.97015,2.79078 3.60717,4.87148 6.89168,5.84929 -4.00034,2.04179 -6.25658,5.77115 -5.71756,9.5819 -6.07002,-0.28721 -10.29006,1.63375 -10.08228,5.09821 0.21112,3.52013 4.93022,7.5715 11.35852,10.12814 -7.31963,1.88828 -11.41499,5.76718 -9.29101,9.26325 2.03291,3.34618 9.13151,5.2678 16.84635,4.75681 -2.07647,2.41599 -2.84799,5.53385 -1.73568,8.53496 1.58306,4.27119 6.46732,6.9879 11.79244,6.89623 -0.0417,0.0541 -0.0868,0.10456 -0.12762,0.15931 -3.37437,4.5186 -2.30303,9.37477 2.39933,10.85646 1.05487,0.3324 2.20727,0.45364 3.39479,0.40968 -1.2995,1.47381 -1.63897,3.11002 -0.74021,4.66577 2.0294,3.51291 9.66118,5.36655 17.38237,4.21058 l 0.79127,-0.13656 c 0.80582,-0.1423 1.56161,-0.30596 2.29723,-0.50071 -3.47755,4.3439 -3.01641,9.82058 1.1486,12.5862 l 0.43394,0.27311 c 4.2047,2.44501 10.27502,1.41295 14.24282,-2.20769 -0.2442,1.09182 -0.18871,2.241 0.22973,3.36844 1.28784,3.47006 5.54681,5.56496 9.92912,5.00718 0.1186,0.60664 0.30822,1.21811 0.58707,1.82078 l 0.17867,0.38691 c 2.04241,3.86778 6.87334,5.85682 10.97566,4.52922 1.26148,-0.40823 2.30126,-1.10111 3.11402,-1.95734 -0.75615,5.03653 2.09466,9.94544 6.86617,11.37992 l 0.5105,0.13657 c 5.01748,1.20444 10.12363,-1.85703 11.79245,-6.98728 0.28259,0.63127 0.59893,1.26415 0.96995,1.91183 l 0.38286,0.63726 c 3.76306,6.12192 10.12241,10.31345 14.47254,9.55915 1.91973,-0.33288 3.12789,-1.57924 3.62452,-3.39122 0.69725,0.86038 1.52859,1.5831 2.47591,2.11667 4.21655,2.37495 9.16254,0.13061 11.05223,-5.02993 0.0244,-0.0666 0.0279,-0.13802 0.0511,-0.20485 3.21575,3.79091 8.63003,5.52046 13.37497,3.98299 1.83776,-0.59547 3.36011,-1.60556 4.49238,-2.89051 1.83492,0.11187 3.66019,0.20764 5.48782,0.27311 1.09847,1.014 2.22776,1.90338 3.36927,2.64015 0.11384,3.36499 1.67011,5.67692 4.56894,5.91756 4.00208,0.33225 9.30674,-3.36324 13.0942,-8.80806 0.37712,-0.0228 0.74657,-0.0434 1.1231,-0.0683 1.24729,2.42802 3.52953,4.30455 6.55987,5.05269 4.85237,1.19797 10.11423,-0.88764 12.9921,-4.8706 0.024,0.0533 0.0519,0.10629 0.0765,0.15931 2.3374,5.01268 7.46575,6.91836 11.46063,4.2561 0.89222,-0.5946 1.65416,-1.37638 2.27171,-2.27598 0.65448,1.77108 1.98813,2.92041 3.93081,3.11808 4.40306,0.44806 10.36566,-4.19455 13.57919,-10.56057 l 0.33182,-0.63728 c 0.318,-0.68246 0.56276,-1.34373 0.79127,-2.00286 2.1088,5.0103 7.47697,7.72124 12.37951,6.16792 l 0.48497,-0.18208 c 4.62481,-1.76118 7.03077,-6.82748 5.84517,-11.78961 0.88491,0.79515 2.00105,1.3886 3.2927,1.707 4.20638,1.03688 8.82,-1.2817 10.51621,-5.28029 l 0.15315,-0.40968 c 0.22412,-0.61778 0.36863,-1.2329 0.43391,-1.84354 4.41775,0.24975 8.46524,-2.14067 9.44418,-5.68997 0.32048,-1.16199 0.26997,-2.31287 -0.0765,-3.39122 4.2752,3.35546 10.43413,3.96747 14.4215,1.22903 l 0.4084,-0.31863 c 3.90962,-3.04847 3.90092,-8.54401 0.0511,-12.63173 0.74683,0.14172 1.51121,0.27906 2.32273,0.36416 l 0.79128,0.0683 c 7.79902,0.61293 15.23401,-1.77296 16.94846,-5.41685 0.75782,-1.61072 0.29566,-3.22077 -1.1231,-4.5975 1.18742,-0.0392 2.32156,-0.23229 3.34374,-0.63727 4.5577,-1.8057 5.19046,-6.7241 1.42939,-10.99301 -0.0411,-0.0466 -0.0858,-0.0905 -0.12762,-0.13656 5.30616,-0.28909 9.92786,-3.35386 11.1288,-7.71559 0.84899,-3.08346 -0.19731,-6.13189 -2.50143,-8.39839 7.75451,-0.0203 14.65091,-2.41007 16.38691,-5.89481 1.80972,-3.63272 -2.57193,-7.23131 -10.03123,-8.60323 6.16389,-2.99742 10.51276,-7.36227 10.4141,-10.8792 -0.0973,-3.46824 -4.46477,-5.10298 -10.49069,-4.39265 0.19008,-3.82027 -2.38951,-7.37077 -6.53434,-9.1267 0.19649,-0.0743 0.39648,-0.14521 0.58707,-0.22761 4.13333,0.112 12.42684,-10.70585 7.22351,-4.23333 -0.86744,1.079 -0.37502,-2.8166 -1.32728,-4.32438 -0.36216,-3.14463 -2.91771,-5.87408 -6.68748,-7.16935 6.33775,-1.23288 10.09868,-4.46679 8.67841,-7.96595 -1.44185,-3.55235 -7.75622,-6.24124 -14.98304,-6.60036 2.25309,-2.16315 3.36528,-5.17634 2.73115,-8.28459 -0.89911,-4.40706 -5.04546,-7.65135 -9.98019,-8.17079 0.0428,-0.0457 0.0856,-0.0902 0.12763,-0.13657 3.72625,-4.10152 3.37015,-9.06093 -0.79127,-11.06128 -0.92974,-0.44692 -1.98712,-0.7052 -3.0885,-0.79661 1.37972,-1.31032 1.92441,-2.89506 1.30177,-4.5292 -1.41499,-3.71364 -8.26131,-6.3979 -15.57012,-6.1224 l -0.74022,0.0454 c -0.75567,0.0497 -1.47049,0.11957 -2.1696,0.2276 3.79212,-3.91614 4.07819,-9.3976 0.58707,-12.60897 l -0.38288,-0.31864 c -3.57271,-2.8999 -9.31986,-2.55252 -13.47708,0.59177 0.37077,-1.05524 0.46796,-2.20323 0.22973,-3.36846 -0.73501,-3.5951 -4.40482,-6.16974 -8.55081,-6.09964 -0.0299,-0.61271 -0.10301,-1.23964 -0.28077,-1.86631 l -0.12762,-0.40969 c -1.37998,-4.06711 -5.59397,-6.58952 -9.57178,-5.73548 -1.21973,0.26189 -2.27412,0.8161 -3.13956,1.57044 1.35132,-4.90146 -0.62694,-10.06005 -4.84971,-12.01721 l -0.45944,-0.20484 c -4.49317,-1.76204 -9.64467,0.69179 -11.86903,5.59893 -0.17898,-0.66311 -0.3781,-1.33581 -0.63812,-2.02564 l -0.25524,-0.66003 c -2.67575,-6.49729 -8.01833,-11.38699 -12.14979,-11.12957 -1.82781,0.11386 -3.10399,1.23254 -3.8032,2.98154 -0.53326,-0.93771 -1.20544,-1.75059 -2.01645,-2.38979 -3.59281,-2.83161 -8.48916,-1.1505 -10.92461,3.75538 -0.0296,0.0595 -0.0481,0.12223 -0.0765,0.18207 -2.48026,-4.11384 -7.27346,-6.45087 -11.86901,-5.46235 -2.86647,0.61658 -5.09425,2.40738 -6.3812,4.77957 -0.35004,-0.0411 -0.69586,-0.0747 -1.04652,-0.11387 -3.25822,-5.60749 -8.01317,-9.5362 -11.76692,-9.37705 z m -127.95572,50.75448 c 1.50371,0.34449 3.01398,0.55259 4.49237,0.63728 -0.84669,0.86328 -1.68899,1.73508 -2.50143,2.61738 -0.24064,-0.60255 -0.56499,-1.21531 -0.94441,-1.82078 l -0.28078,-0.43244 c -0.23555,-0.34228 -0.49954,-0.68311 -0.76575,-1.00144 z m -11.79243,138.56203 c 0.82435,0.92317 1.66458,1.84835 2.52694,2.75393 -1.58451,0.016 -3.19836,0.13562 -4.82418,0.40968 0.29854,-0.30281 0.60016,-0.60551 0.86784,-0.93315 l 0.33183,-0.43244 c 0.44536,-0.59634 0.80539,-1.19819 1.09757,-1.79802 z"
       id="path4487" />
  </g>
</svg>
