<?xml version="1.0" encoding="UTF-8" standalone="no"?>
<!-- Created with Inkscape (http://www.inkscape.org/) -->

<svg
   xmlns:dc="http://purl.org/dc/elements/1.1/"
   xmlns:cc="http://creativecommons.org/ns#"
   xmlns:rdf="http://www.w3.org/1999/02/22-rdf-syntax-ns#"
   xmlns:svg="http://www.w3.org/2000/svg"
   xmlns="http://www.w3.org/2000/svg"
   xmlns:sodipodi="http://sodipodi.sourceforge.net/DTD/sodipodi-0.dtd"
   xmlns:inkscape="http://www.inkscape.org/namespaces/inkscape"
   width="210mm"
   height="297mm"
   viewBox="0 0 744.09448819 1052.3622047"
   id="svg2"
   version="1.1"
   inkscape:version="0.91 r13725"
   sodipodi:docname="danginja.svg">
  <defs
     id="defs4">
    <filter
       inkscape:collect="always"
       style="color-interpolation-filters:sRGB"
       id="filter4881"
       x="-0.82134706"
       width="2.6426941"
       y="-1.0342889"
       height="3.0685778">
      <feGaussianBlur
         inkscape:collect="always"
         stdDeviation="8.3112503"
         id="feGaussianBlur4883" />
    </filter>
    <filter
       inkscape:collect="always"
       style="color-interpolation-filters:sRGB"
       id="filter4881-7"
       x="-0.82134706"
       width="2.642694"
       y="-1.0342889"
       height="3.0685778">
      <feGaussianBlur
         inkscape:collect="always"
         stdDeviation="8.3112503"
         id="feGaussianBlur4883-9" />
    </filter>
    <filter
       inkscape:collect="always"
       style="color-interpolation-filters:sRGB"
       id="filter4881-7-2"
       x="-0.82134706"
       width="2.642694"
       y="-1.0342889"
       height="3.0685778">
      <feGaussianBlur
         inkscape:collect="always"
         stdDeviation="8.3112503"
         id="feGaussianBlur4883-9-0" />
    </filter>
    <filter
       inkscape:collect="always"
       style="color-interpolation-filters:sRGB"
       id="filter4881-0"
       x="-0.82134706"
       width="2.642694"
       y="-1.0342889"
       height="3.0685778">
      <feGaussianBlur
         inkscape:collect="always"
         stdDeviation="8.3112503"
         id="feGaussianBlur4883-5" />
    </filter>
  </defs>
  <sodipodi:namedview
     id="base"
     pagecolor="#ffffff"
     bordercolor="#666666"
     borderopacity="1.0"
     inkscape:pageopacity="0.0"
     inkscape:pageshadow="2"
     inkscape:zoom="1.4"
     inkscape:cx="317.01359"
     inkscape:cy="655.2144"
     inkscape:document-units="px"
     inkscape:current-layer="layer1"
     showgrid="false"
     inkscape:window-width="1536"
     inkscape:window-height="801"
     inkscape:window-x="-8"
     inkscape:window-y="-8"
     inkscape:window-maximized="1" />
  <metadata
     id="metadata7">
    <rdf:RDF>
      <cc:Work
         rdf:about="">
        <dc:format>image/svg+xml</dc:format>
        <dc:type
           rdf:resource="http://purl.org/dc/dcmitype/StillImage" />
        <dc:title></dc:title>
      </cc:Work>
    </rdf:RDF>
  </metadata>
  <g
     inkscape:label="Layer 1"
     inkscape:groupmode="layer"
     id="layer1">
    <g
       id="g4389"
       transform="translate(0,-8)">
      <path
         sodipodi:nodetypes="ccssc"
         inkscape:connector-curvature="0"
         id="rect4238-0"
         d="m 337.96872,513.70844 8.39943,16.12644 c 0,0 -48.08991,39.51849 -128.11557,66.72877 -5.73828,1.95112 -14.17103,-14.27622 -8.39943,-16.12644 84.13623,-26.97179 128.11557,-66.72877 128.11557,-66.72877 z"
         style="opacity:1;fill:#121212;fill-opacity:1;fill-rule:nonzero;stroke:#000000;stroke-width:4;stroke-linecap:round;stroke-linejoin:round;stroke-miterlimit:4;stroke-dasharray:none;stroke-dashoffset:0;stroke-opacity:1" />
      <rect
         transform="matrix(-0.29155094,0.9565553,-0.9565553,-0.29155094,0,0)"
         y="-476.58533"
         x="405.31946"
         height="10.606602"
         width="11.111678"
         id="rect4241-52"
         style="opacity:1;fill:#e20303;fill-opacity:1;fill-rule:nonzero;stroke:none;stroke-width:2;stroke-linecap:round;stroke-linejoin:round;stroke-miterlimit:4;stroke-dasharray:none;stroke-dashoffset:0;stroke-opacity:1" />
      <rect
         transform="matrix(-0.29155094,0.9565553,-0.9565553,-0.29155094,0,0)"
         y="-467.01282"
         x="416.83746"
         height="10.606602"
         width="11.111678"
         id="rect4241-2-9"
         style="opacity:1;fill:#e20303;fill-opacity:1;fill-rule:nonzero;stroke:none;stroke-width:2;stroke-linecap:round;stroke-linejoin:round;stroke-miterlimit:4;stroke-dasharray:none;stroke-dashoffset:0;stroke-opacity:1" />
      <rect
         transform="matrix(0.50435557,0.86349607,-0.85815091,0.51339753,0,0)"
         ry="2.6001577"
         y="6.2317891"
         x="604.00269"
         height="5.3789425"
         width="41.991524"
         id="rect4258-6"
         style="opacity:1;fill:#0a0000;fill-opacity:1;fill-rule:nonzero;stroke:none;stroke-width:2;stroke-linecap:round;stroke-linejoin:round;stroke-miterlimit:4;stroke-dasharray:none;stroke-dashoffset:0;stroke-opacity:1" />
    </g>
    <path
       style="opacity:1;fill:#121212;fill-opacity:1;fill-rule:nonzero;stroke:#000000;stroke-width:4;stroke-linecap:round;stroke-linejoin:round;stroke-miterlimit:4;stroke-dasharray:none;stroke-dashoffset:0;stroke-opacity:1"
       d="m 561.27206,348.62609 8.39943,16.12644 c 0,0 -48.08991,39.51849 -128.11557,66.72877 -5.73828,1.95112 -14.17103,-14.27622 -8.39943,-16.12644 84.13623,-26.97179 128.11557,-66.72877 128.11557,-66.72877 z"
       id="rect4238"
       inkscape:connector-curvature="0"
       sodipodi:nodetypes="ccssc" />
    <rect
       style="opacity:1;fill:#e20303;fill-opacity:1;fill-rule:nonzero;stroke:none;stroke-width:2;stroke-linecap:round;stroke-linejoin:round;stroke-miterlimit:4;stroke-dasharray:none;stroke-dashoffset:0;stroke-opacity:1"
       id="rect4241"
       width="11.111678"
       height="10.606602"
       x="182.30475"
       y="-642.05743"
       transform="matrix(-0.29155094,0.9565553,-0.9565553,-0.29155094,0,0)" />
    <rect
       style="opacity:1;fill:#e20303;fill-opacity:1;fill-rule:nonzero;stroke:none;stroke-width:2;stroke-linecap:round;stroke-linejoin:round;stroke-miterlimit:4;stroke-dasharray:none;stroke-dashoffset:0;stroke-opacity:1"
       id="rect4241-2"
       width="11.111678"
       height="10.606602"
       x="193.82278"
       y="-632.48486"
       transform="matrix(-0.29155094,0.9565553,-0.9565553,-0.29155094,0,0)" />
    <rect
       style="opacity:1;fill:#0a0000;fill-opacity:1;fill-rule:nonzero;stroke:none;stroke-width:2;stroke-linecap:round;stroke-linejoin:round;stroke-miterlimit:4;stroke-dasharray:none;stroke-dashoffset:0;stroke-opacity:1"
       id="rect4258"
       width="41.991524"
       height="5.3789425"
       x="576.97906"
       y="-269.8652"
       ry="2.6001577"
       transform="matrix(0.50435557,0.86349607,-0.85815091,0.51339753,0,0)" />
    <g
       id="g4308"
       transform="matrix(-1,0,0,1,386.88841,6.5659915)">
      <path
         sodipodi:nodetypes="ccssc"
         inkscape:connector-curvature="0"
         id="rect4238-8-1"
         d="m 202.64255,240.32256 16.95599,6.56557 c 0,0 -10.02415,61.4318 -52.15974,134.70593 -3.02135,5.25416 -20.06898,-1.36518 -16.95599,-6.56556 45.3802,-75.8091 52.15974,-134.70594 52.15974,-134.70594 z"
         style="opacity:1;fill:#121212;fill-opacity:1;fill-rule:nonzero;stroke:#000000;stroke-width:4;stroke-linecap:round;stroke-linejoin:round;stroke-miterlimit:4;stroke-dasharray:none;stroke-dashoffset:0;stroke-opacity:1" />
      <rect
         transform="matrix(0.41261961,0.91090343,-0.91090343,0.41261961,0,0)"
         y="-88.953339"
         x="314.98895"
         height="10.606602"
         width="11.111678"
         id="rect4241-5-8"
         style="opacity:1;fill:#e20303;fill-opacity:1;fill-rule:nonzero;stroke:none;stroke-width:2;stroke-linecap:round;stroke-linejoin:round;stroke-miterlimit:4;stroke-dasharray:none;stroke-dashoffset:0;stroke-opacity:1" />
      <rect
         transform="matrix(0.41261961,0.91090343,-0.91090343,0.41261961,0,0)"
         y="-79.380783"
         x="326.50699"
         height="10.606602"
         width="11.111678"
         id="rect4241-2-7-9"
         style="opacity:1;fill:#e20303;fill-opacity:1;fill-rule:nonzero;stroke:none;stroke-width:2;stroke-linecap:round;stroke-linejoin:round;stroke-miterlimit:4;stroke-dasharray:none;stroke-dashoffset:0;stroke-opacity:1" />
      <rect
         transform="matrix(0.94892512,0.31550137,-0.30551688,0.95218666,0,0)"
         ry="2.6001577"
         y="203.09973"
         x="256.00803"
         height="5.3789425"
         width="41.991524"
         id="rect4258-9-7"
         style="opacity:1;fill:#0a0000;fill-opacity:1;fill-rule:nonzero;stroke:none;stroke-width:2;stroke-linecap:round;stroke-linejoin:round;stroke-miterlimit:4;stroke-dasharray:none;stroke-dashoffset:0;stroke-opacity:1" />
    </g>
    <path
       style="opacity:1;fill:#121212;fill-opacity:1;fill-rule:nonzero;stroke:#000000;stroke-width:4;stroke-linecap:round;stroke-linejoin:round;stroke-miterlimit:4;stroke-dasharray:none;stroke-dashoffset:0;stroke-opacity:1"
       d="m 256.64686,238.77148 16.95599,6.56557 c 0,0 -10.02415,61.4318 -52.15974,134.70593 -3.02135,5.25416 -20.06899,-1.36518 -16.95599,-6.56556 45.3802,-75.8091 52.15974,-134.70594 52.15974,-134.70594 z"
       id="rect4238-8"
       inkscape:connector-curvature="0"
       sodipodi:nodetypes="ccssc" />
    <rect
       style="opacity:1;fill:#e20303;fill-opacity:1;fill-rule:nonzero;stroke:none;stroke-width:2;stroke-linecap:round;stroke-linejoin:round;stroke-miterlimit:4;stroke-dasharray:none;stroke-dashoffset:0;stroke-opacity:1"
       id="rect4241-5"
       width="11.111678"
       height="10.606602"
       x="335.85928"
       y="-138.78606"
       transform="matrix(0.41261961,0.91090343,-0.91090343,0.41261961,0,0)" />
    <rect
       style="opacity:1;fill:#e20303;fill-opacity:1;fill-rule:nonzero;stroke:none;stroke-width:2;stroke-linecap:round;stroke-linejoin:round;stroke-miterlimit:4;stroke-dasharray:none;stroke-dashoffset:0;stroke-opacity:1"
       id="rect4241-2-7"
       width="11.111678"
       height="10.606602"
       x="347.37732"
       y="-129.2135"
       transform="matrix(0.41261961,0.91090343,-0.91090343,0.41261961,0,0)" />
    <rect
       style="opacity:1;fill:#0a0000;fill-opacity:1;fill-rule:nonzero;stroke:none;stroke-width:2;stroke-linecap:round;stroke-linejoin:round;stroke-miterlimit:4;stroke-dasharray:none;stroke-dashoffset:0;stroke-opacity:1"
       id="rect4258-9"
       width="41.991524"
       height="5.3789425"
       x="306.95914"
       y="184.58842"
       ry="2.6001577"
       transform="matrix(0.94892512,0.31550137,-0.30551688,0.95218666,0,0)" />
    <path
       style="opacity:1;fill:#000000;fill-opacity:1;fill-rule:nonzero;stroke:none;stroke-width:0.60000002;stroke-linecap:round;stroke-linejoin:round;stroke-miterlimit:4;stroke-dasharray:none;stroke-dashoffset:0;stroke-opacity:1"
       d="m 152.64756,350.94409 c 8.37935,-39.4035 47.55808,-64.90431 87.93151,-57.2332 40.37341,7.67111 66.9545,45.66654 59.65771,85.27572 -7.29678,39.60919 -45.76279,66.12879 -88.31057,59.14379 -42.12744,-9.10362 -67.65799,-47.78281 -59.27865,-87.18631 z"
       id="path4136"
       inkscape:connector-curvature="0"
       sodipodi:nodetypes="ssscs" />
    <path
       style="opacity:1;fill:#dda6cc;fill-opacity:1;fill-rule:nonzero;stroke:none;stroke-width:0.60000002;stroke-linecap:round;stroke-linejoin:round;stroke-miterlimit:4;stroke-dasharray:none;stroke-dashoffset:0;stroke-opacity:1"
       d="m 217.45357,331.36582 49.64619,0.25254 c 2.91606,11.09154 2.01503,4.74857 2.91606,11.09154 l 2.22988,15.69764 c 0.90104,6.34296 1.02826,7.75922 -4.64087,7.55601 l -28.18045,-1.01015 c -24.96305,-0.89483 -24.5865,1.88855 -24.2636,-4.52556 l 0.89195,-17.71794 c 0.3229,-6.41411 1.40084,-11.34408 1.40084,-11.34408 z"
       id="rect4139"
       inkscape:connector-curvature="0"
       sodipodi:nodetypes="ccssssssc" />
    <path
       style="opacity:1;fill:#343434;fill-opacity:1;fill-rule:nonzero;stroke:none;stroke-width:0.60000002;stroke-linecap:round;stroke-linejoin:round;stroke-miterlimit:4;stroke-dasharray:none;stroke-dashoffset:0;stroke-opacity:1"
       d="m 205.37696,438.73441 10.7443,-145.63272 c 5.66638,31.80722 -4.62445,105.63238 -10.7443,145.63272 z"
       id="rect4142"
       inkscape:connector-curvature="0"
       sodipodi:nodetypes="ccc" />
    <path
       style="opacity:1;fill:#343434;fill-opacity:1;fill-rule:nonzero;stroke:none;stroke-width:0.60000002;stroke-linecap:round;stroke-linejoin:round;stroke-miterlimit:4;stroke-dasharray:none;stroke-dashoffset:0;stroke-opacity:1"
       d="m 281.87423,416.44855 -20.179,-113.07397 c 8.62385,23.42951 16.30398,81.51551 20.179,113.07397 z"
       id="rect4142-3"
       inkscape:connector-curvature="0"
       sodipodi:nodetypes="ccc" />
    <path
       style="opacity:1;fill:#343434;fill-opacity:1;fill-rule:nonzero;stroke:none;stroke-width:0.60000002;stroke-linecap:round;stroke-linejoin:round;stroke-miterlimit:4;stroke-dasharray:none;stroke-dashoffset:0;stroke-opacity:1"
       d="m 205.20057,330.06911 67.1766,0.57408 c -14.58251,4.24411 -48.69015,1.31152 -67.1766,-0.57408 z"
       id="rect4142-3-1"
       inkscape:connector-curvature="0"
       sodipodi:nodetypes="ccc" />
    <path
       style="opacity:1;fill:#343434;fill-opacity:1;fill-rule:nonzero;stroke:none;stroke-width:0.60000002;stroke-linecap:round;stroke-linejoin:round;stroke-miterlimit:4;stroke-dasharray:none;stroke-dashoffset:0;stroke-opacity:1"
       d="m 210.111,364.08109 67.1766,0.57408 c -23.21128,4.24411 -54.78326,1.31152 -67.1766,-0.57408 z"
       id="rect4142-3-1-8"
       inkscape:connector-curvature="0"
       sodipodi:nodetypes="ccc" />
    <path
       style="opacity:1;fill:#343434;fill-opacity:1;fill-rule:nonzero;stroke:none;stroke-width:0.60000002;stroke-linecap:round;stroke-linejoin:round;stroke-miterlimit:4;stroke-dasharray:none;stroke-dashoffset:0;stroke-opacity:1"
       id="path4190"
       sodipodi:type="arc"
       sodipodi:cx="157.15024"
       sodipodi:cy="401.94717"
       sodipodi:rx="2.5253813"
       sodipodi:ry="9.3439112"
       sodipodi:start="1.7893814"
       sodipodi:end="1.7357526"
       sodipodi:open="true"
       d="m 156.60261,411.06875 a 2.5253813,9.3439112 0 0 1 -1.92478,-11.02532 2.5253813,9.3439112 0 0 1 2.95374,-7.26888 2.5253813,9.3439112 0 0 1 2.00399,10.83041 2.5253813,9.3439112 0 0 1 -2.90001,7.55929"
       transform="matrix(0.96536339,-0.26090902,0.26090902,0.96536339,0,0)" />
    <path
       style="opacity:1;fill:#343434;fill-opacity:1;fill-rule:nonzero;stroke:none;stroke-width:0.60000002;stroke-linecap:round;stroke-linejoin:round;stroke-miterlimit:4;stroke-dasharray:none;stroke-dashoffset:0;stroke-opacity:1"
       id="path4192"
       sodipodi:type="arc"
       sodipodi:cx="104.07377"
       sodipodi:cy="407.72672"
       sodipodi:rx="2.2728431"
       sodipodi:ry="10.606602"
       sodipodi:start="1.7893814"
       sodipodi:end="1.7357526"
       sodipodi:open="true"
       d="m 103.58091,418.08094 a 2.2728431,10.606602 0 0 1 -1.73231,-12.51523 2.2728431,10.606602 0 0 1 2.65837,-8.25116 2.2728431,10.606602 0 0 1 1.80358,12.29398 2.2728431,10.606602 0 0 1 -2.61,8.58081"
       transform="matrix(0.93930779,-0.3430756,0.3430756,0.93930779,0,0)" />
    <path
       style="opacity:1;fill:#dda6cc;fill-opacity:1;fill-rule:nonzero;stroke:#000000;stroke-width:4.05843449;stroke-linecap:round;stroke-linejoin:round;stroke-miterlimit:4;stroke-dasharray:none;stroke-dashoffset:0;stroke-opacity:1"
       d="m 382.9883,355.57463 c 8.62938,-39.38785 48.9772,-64.87853 90.55536,-57.21046 41.57813,7.66806 68.9524,45.6484 61.43787,85.24184 -7.51451,39.59346 -47.12834,66.10252 -90.94572,59.1203 -43.38452,-9.10001 -69.67689,-47.76383 -61.04751,-87.15168 z"
       id="path4136-6"
       inkscape:connector-curvature="0"
       sodipodi:nodetypes="ssscs" />
    <path
       style="opacity:1;fill:#ff0000;fill-opacity:0.98431373;fill-rule:nonzero;stroke:none;stroke-width:2;stroke-linecap:round;stroke-linejoin:round;stroke-miterlimit:4;stroke-dasharray:none;stroke-dashoffset:0;stroke-opacity:1;filter:url(#filter4881)"
       id="path4397"
       sodipodi:type="arc"
       sodipodi:cx="447.14285"
       sodipodi:cy="369.14792"
       sodipodi:rx="12.142858"
       sodipodi:ry="9.6428576"
       sodipodi:start="1.7893814"
       sodipodi:end="1.7357526"
       sodipodi:open="true"
       d="m 444.50969,378.56133 a 12.142858,9.6428576 0 0 1 -9.255,-11.37806 12.142858,9.6428576 0 0 1 14.20256,-7.50144 12.142858,9.6428576 0 0 1 9.63582,11.17692 12.142858,9.6428576 0 0 1 -13.94419,7.80113"
       transform="matrix(0.73142419,0,0,0.77290454,128.30231,85.970949)" />
    <path
       style="opacity:1;fill:#121212;fill-opacity:1;fill-rule:nonzero;stroke:none;stroke-width:0.60000002;stroke-linecap:round;stroke-linejoin:round;stroke-miterlimit:4;stroke-dasharray:none;stroke-dashoffset:0;stroke-opacity:1"
       id="path4190-2"
       sodipodi:type="arc"
       sodipodi:cx="388.92053"
       sodipodi:cy="460.83566"
       sodipodi:rx="2.5253813"
       sodipodi:ry="9.3439112"
       sodipodi:start="1.7893814"
       sodipodi:end="1.7357526"
       sodipodi:open="true"
       d="m 388.37291,469.95724 a 2.5253813,9.3439112 0 0 1 -1.92479,-11.02532 2.5253813,9.3439112 0 0 1 2.95374,-7.26888 2.5253813,9.3439112 0 0 1 2.00399,10.83041 2.5253813,9.3439112 0 0 1 -2.90001,7.55929"
       transform="matrix(0.96536339,-0.26090902,0.26090902,0.96536339,0,0)" />
    <path
       style="opacity:1;fill:#121212;fill-opacity:1;fill-rule:nonzero;stroke:none;stroke-width:0.60000002;stroke-linecap:round;stroke-linejoin:round;stroke-miterlimit:4;stroke-dasharray:none;stroke-dashoffset:0;stroke-opacity:1"
       id="path4192-4"
       sodipodi:type="arc"
       sodipodi:cx="329.91159"
       sodipodi:cy="486.3562"
       sodipodi:rx="2.2728431"
       sodipodi:ry="10.606602"
       sodipodi:start="1.7893814"
       sodipodi:end="1.7357526"
       sodipodi:open="true"
       d="m 329.41873,496.71042 a 2.2728431,10.606602 0 0 1 -1.73231,-12.51522 2.2728431,10.606602 0 0 1 2.65837,-8.25116 2.2728431,10.606602 0 0 1 1.80359,12.29398 2.2728431,10.606602 0 0 1 -2.61001,8.5808"
       transform="matrix(0.93930779,-0.3430756,0.3430756,0.93930779,0,0)" />
    <path
       style="opacity:1;fill:#000000;fill-opacity:1;fill-rule:nonzero;stroke:none;stroke-width:0.60000002;stroke-linecap:round;stroke-linejoin:round;stroke-miterlimit:4;stroke-dasharray:none;stroke-dashoffset:0;stroke-opacity:1"
       d="m 156.39648,517.50835 c 8.37935,-39.4035 47.55807,-64.90431 87.9315,-57.2332 40.37341,7.67111 66.9545,45.66654 59.65771,85.27572 -7.29678,39.60919 -45.76279,66.12879 -88.31057,59.14379 -42.12744,-9.10362 -67.65798,-47.78281 -59.27864,-87.18631 z"
       id="path4136-8"
       inkscape:connector-curvature="0"
       sodipodi:nodetypes="ssscs" />
    <path
       style="opacity:1;fill:#dda6cc;fill-opacity:1;fill-rule:nonzero;stroke:none;stroke-width:0.60000002;stroke-linecap:round;stroke-linejoin:round;stroke-miterlimit:4;stroke-dasharray:none;stroke-dashoffset:0;stroke-opacity:1"
       d="m 221.20248,497.93008 49.64619,0.25254 c 2.91606,11.09154 2.01503,4.74857 2.91606,11.09154 l 2.22988,15.69764 c 0.90104,6.34296 1.02826,7.75922 -4.64087,7.55601 l -28.18045,-1.01015 c -24.96305,-0.89483 -24.5865,1.88855 -24.2636,-4.52556 l 0.89195,-17.71794 c 0.3229,-6.41411 1.40084,-11.34408 1.40084,-11.34408 z"
       id="rect4139-3"
       inkscape:connector-curvature="0"
       sodipodi:nodetypes="ccssssssc" />
    <path
       style="opacity:1;fill:#343434;fill-opacity:1;fill-rule:nonzero;stroke:none;stroke-width:0.60000002;stroke-linecap:round;stroke-linejoin:round;stroke-miterlimit:4;stroke-dasharray:none;stroke-dashoffset:0;stroke-opacity:1"
       d="m 209.12587,605.29867 10.7443,-145.63272 c 5.66638,31.80722 -4.62445,105.63238 -10.7443,145.63272 z"
       id="rect4142-33"
       inkscape:connector-curvature="0"
       sodipodi:nodetypes="ccc" />
    <path
       style="opacity:1;fill:#343434;fill-opacity:1;fill-rule:nonzero;stroke:none;stroke-width:0.60000002;stroke-linecap:round;stroke-linejoin:round;stroke-miterlimit:4;stroke-dasharray:none;stroke-dashoffset:0;stroke-opacity:1"
       d="m 285.62314,583.01281 -20.179,-113.07397 c 8.62385,23.42951 16.30398,81.51551 20.179,113.07397 z"
       id="rect4142-3-17"
       inkscape:connector-curvature="0"
       sodipodi:nodetypes="ccc" />
    <path
       style="opacity:1;fill:#343434;fill-opacity:1;fill-rule:nonzero;stroke:none;stroke-width:0.60000002;stroke-linecap:round;stroke-linejoin:round;stroke-miterlimit:4;stroke-dasharray:none;stroke-dashoffset:0;stroke-opacity:1"
       d="m 208.94948,496.63337 67.1766,0.57408 c -14.58251,4.24411 -48.69015,1.31152 -67.1766,-0.57408 z"
       id="rect4142-3-1-88"
       inkscape:connector-curvature="0"
       sodipodi:nodetypes="ccc" />
    <path
       style="opacity:1;fill:#343434;fill-opacity:1;fill-rule:nonzero;stroke:none;stroke-width:0.60000002;stroke-linecap:round;stroke-linejoin:round;stroke-miterlimit:4;stroke-dasharray:none;stroke-dashoffset:0;stroke-opacity:1"
       d="m 213.85991,530.64535 67.1766,0.57408 c -23.21128,4.24411 -54.78326,1.31152 -67.1766,-0.57408 z"
       id="rect4142-3-1-8-9"
       inkscape:connector-curvature="0"
       sodipodi:nodetypes="ccc" />
    <path
       style="opacity:1;fill:#343434;fill-opacity:1;fill-rule:nonzero;stroke:none;stroke-width:0.60000002;stroke-linecap:round;stroke-linejoin:round;stroke-miterlimit:4;stroke-dasharray:none;stroke-dashoffset:0;stroke-opacity:1"
       id="path4190-8"
       sodipodi:type="arc"
       sodipodi:cx="117.3112"
       sodipodi:cy="563.72034"
       sodipodi:rx="2.5253813"
       sodipodi:ry="9.3439112"
       sodipodi:start="1.7893814"
       sodipodi:end="1.7357526"
       sodipodi:open="true"
       d="m 116.76358,572.84191 a 2.5253813,9.3439112 0 0 1 -1.92479,-11.02531 2.5253813,9.3439112 0 0 1 2.95374,-7.26888 2.5253813,9.3439112 0 0 1 2.00399,10.83041 2.5253813,9.3439112 0 0 1 -2.90001,7.55928"
       transform="matrix(0.96536339,-0.26090902,0.26090902,0.96536339,0,0)" />
    <path
       style="opacity:1;fill:#343434;fill-opacity:1;fill-rule:nonzero;stroke:none;stroke-width:0.60000002;stroke-linecap:round;stroke-linejoin:round;stroke-miterlimit:4;stroke-dasharray:none;stroke-dashoffset:0;stroke-opacity:1"
       id="path4192-41"
       sodipodi:type="arc"
       sodipodi:cx="50.451008"
       sodipodi:cy="565.46802"
       sodipodi:rx="2.2728431"
       sodipodi:ry="10.606602"
       sodipodi:start="1.7893814"
       sodipodi:end="1.7357526"
       sodipodi:open="true"
       d="m 49.958145,575.82224 a 2.2728431,10.606602 0 0 1 -1.732307,-12.51523 2.2728431,10.606602 0 0 1 2.658368,-8.25116 2.2728431,10.606602 0 0 1 1.803587,12.29398 2.2728431,10.606602 0 0 1 -2.610007,8.58081"
       transform="matrix(0.93930779,-0.3430756,0.3430756,0.93930779,0,0)" />
    <path
       style="opacity:1;fill:#ff0000;fill-opacity:0.98431373;fill-rule:nonzero;stroke:none;stroke-width:2;stroke-linecap:round;stroke-linejoin:round;stroke-miterlimit:4;stroke-dasharray:none;stroke-dashoffset:0;stroke-opacity:1;filter:url(#filter4881-7)"
       id="path4397-8"
       sodipodi:type="arc"
       sodipodi:cx="447.14285"
       sodipodi:cy="369.14792"
       sodipodi:rx="12.142858"
       sodipodi:ry="9.6428576"
       sodipodi:start="1.7893814"
       sodipodi:end="1.7357526"
       sodipodi:open="true"
       d="m 444.50969,378.56133 a 12.142858,9.6428576 0 0 1 -9.255,-11.37806 12.142858,9.6428576 0 0 1 14.20256,-7.50144 12.142858,9.6428576 0 0 1 9.63582,11.17692 12.142858,9.6428576 0 0 1 -13.94419,7.80113"
       transform="matrix(0.73142419,0,0,0.77290454,187.23462,88.474673)" />
    <path
       style="fill:#121212;fill-opacity:1;fill-rule:evenodd;stroke:#000000;stroke-width:2;stroke-linecap:butt;stroke-linejoin:miter;stroke-miterlimit:4;stroke-dasharray:none;stroke-opacity:1"
       d="m 489.94246,364.44832 c -19.15688,22.68055 -102.42895,33.10044 -102.42895,33.10044 0,0 15.13044,44.77593 73.31529,44.84718 64.17303,0.0786 74.26415,-62.4023 74.26415,-62.4023 0,0 -20.27933,0.34556 -45.15049,-15.54532 z"
       id="path4209"
       inkscape:connector-curvature="0"
       sodipodi:nodetypes="ccscc" />
    <path
       style="opacity:1;fill:#ff0000;fill-opacity:0.98431373;fill-rule:nonzero;stroke:none;stroke-width:2;stroke-linecap:round;stroke-linejoin:round;stroke-miterlimit:4;stroke-dasharray:none;stroke-dashoffset:0;stroke-opacity:1;filter:url(#filter4881-7-2)"
       id="path4397-8-3"
       sodipodi:type="arc"
       sodipodi:cx="447.14285"
       sodipodi:cy="369.14792"
       sodipodi:rx="12.142858"
       sodipodi:ry="9.6428576"
       sodipodi:start="1.7893814"
       sodipodi:end="1.7357526"
       sodipodi:open="true"
       d="m 444.50969,378.56133 a 12.142858,9.6428576 0 0 1 -9.255,-11.37806 12.142858,9.6428576 0 0 1 14.20256,-7.50144 12.142858,9.6428576 0 0 1 9.63582,11.17692 12.142858,9.6428576 0 0 1 -13.94419,7.80113"
       transform="matrix(0.73142419,0,0,0.77290454,-119.19395,252.76039)" />
    <path
       style="opacity:1;fill:#ff0000;fill-opacity:0.98431373;fill-rule:nonzero;stroke:none;stroke-width:2;stroke-linecap:round;stroke-linejoin:round;stroke-miterlimit:4;stroke-dasharray:none;stroke-dashoffset:0;stroke-opacity:1;filter:url(#filter4881-0)"
       id="path4397-6"
       sodipodi:type="arc"
       sodipodi:cx="447.14285"
       sodipodi:cy="369.14792"
       sodipodi:rx="12.142858"
       sodipodi:ry="9.6428576"
       sodipodi:start="1.7893814"
       sodipodi:end="1.7357526"
       sodipodi:open="true"
       d="m 444.50969,378.56133 a 12.142858,9.6428576 0 0 1 -9.255,-11.37806 12.142858,9.6428576 0 0 1 14.20256,-7.50144 12.142858,9.6428576 0 0 1 9.63582,11.17692 12.142858,9.6428576 0 0 1 -13.94419,7.80113"
       transform="matrix(0.73142419,0,0,0.77290454,-45.622526,251.33182)" />
    <path
       style="opacity:1;fill:#ff0000;fill-opacity:0.98431373;fill-rule:nonzero;stroke:none;stroke-width:2;stroke-linecap:round;stroke-linejoin:round;stroke-miterlimit:4;stroke-dasharray:none;stroke-dashoffset:0;stroke-opacity:1"
       id="path4959"
       d="m 427.99234,502.84478 c 3.15323,-1.06266 6.12694,-2.58243 9.05743,-4.14264 0.4513,-0.18689 4.46286,-2.61123 4.7697,-1.88572 0.20951,0.49534 -0.26946,1.43799 -0.40931,1.80645 -0.72752,2.06246 -1.71279,3.99016 -2.83317,5.86192 -0.29582,0.82452 -2.3168,3.1681 -2.07668,3.91947 4.04502,-1.46223 7.85428,-3.47841 11.72317,-5.34055 1.3878,-0.57601 2.75123,-1.21619 4.16679,-1.724 0.0599,-0.0215 0.23485,-0.0884 0.184,-0.0502 -2.74347,2.05879 -1.67228,1.65964 -3.6171,2.16598 -2.66391,0.84842 -5.30639,1.75856 -7.96538,2.62262 -0.20294,0.0901 -0.7994,0.38439 -0.60882,0.27043 2.58933,-1.54835 1.90774,-1.14917 4.51309,-1.76363 4.58472,-1.33393 9.08692,-2.97199 13.47498,-4.85351 2.23638,-0.79951 4.2714,-2.08972 6.5221,-2.84053 2.05689,-0.56655 2.30717,0.33955 1.912,2.17689 -0.1831,1.30726 -2.32199,4.75718 -2.03616,5.82666 0.0294,0.10996 0.18396,0.13409 0.27595,0.20114 0.18861,-0.098 0.75673,-0.38739 0.56584,-0.29392 -0.54846,0.26854 -1.02939,0.77766 -1.63865,0.8192 -0.39136,0.0267 0.6022,-0.50328 0.89144,-0.76826 0.8542,-0.78257 1.65097,-1.59445 2.55092,-2.32678 0.96409,-0.52898 1.86241,-1.20137 2.89228,-1.58692 0.1478,-0.0553 0.19665,0.27191 0.19874,0.42971 0.0116,0.87447 -0.90676,2.13682 -1.22666,2.9943 -0.66483,0.97881 0.97579,-0.24352 0.78486,-0.15886 -0.46988,0.20836 -1.62319,1.16943 -1.3591,0.72846 0.29862,-0.49864 0.98228,-0.62167 1.47743,-0.92604 0.61096,-0.37557 1.22719,-0.74249 1.84079,-1.11373 1.99301,-1.14429 3.89546,-2.43972 5.88994,-3.58136 1.80165,-1.03127 3.76084,-2.57358 5.94776,-2.72978 0.15678,0.12466 0.38269,0.19389 0.47035,0.374 0.5881,1.20843 -1.58823,4.31362 -2.17343,5.27117 -0.83769,1.37688 -2.03331,2.57302 -2.65676,4.07914 -0.24434,0.59027 -0.30372,0.46975 -0.0738,0.70952 3.46148,-2.02643 7.11314,-3.77715 10.7175,-5.55218 1.25381,-0.48935 4.77669,-2.58604 6.23019,-2.00598 0.58087,0.23181 0.50015,0.79285 0.55614,1.26358 -0.18592,1.38376 -1.2487,2.33907 -1.80938,3.55092 0.0603,-0.11925 0.30756,-0.40023 0.18086,-0.35776 -0.62186,0.20844 -1.11268,0.76251 -1.75681,0.88601 -0.3975,0.0762 0.65329,-0.47863 0.96685,-0.73455 1.04308,-0.85135 2.02357,-1.76059 3.09108,-2.58359 1.29342,-0.82721 4.7716,-3.64054 4.50899,-0.79331 -0.62637,2.08097 0.8816,1.60091 2.3866,1.37201 1.64929,-0.29944 0.8331,-0.17645 2.44794,-0.37323 0,0 -2.27705,1.69865 -2.27705,1.69865 l 0,0 c -1.60757,0.21178 -0.79136,0.088 -2.4481,0.37497 -1.53775,0.17122 -3.37799,0.31869 -2.66842,-1.81599 0.0452,-0.20656 0.15348,-0.49473 0.0601,-0.7181 -0.0582,-0.13927 -0.45802,-0.0169 -0.44883,-0.0238 0.9746,-0.73911 2.96746,-1.81794 1.0779,-0.77255 -2.4314,1.81851 -4.38134,3.89653 -7.20517,5.21726 -0.16277,0.0761 -0.33833,-0.12123 -0.50749,-0.18184 0.46331,-1.23437 1.56602,-2.11916 1.87119,-3.43655 0.003,-0.19181 0.0738,-0.39524 0.008,-0.57543 -0.18261,-0.50001 -0.81364,-0.35959 -1.17096,-0.30111 -1.89259,0.30979 -3.57418,1.29934 -5.29788,2.07154 -2.32714,1.14805 -4.64106,2.3148 -6.94512,3.50837 -0.0878,0.0455 -2.82023,1.4714 -3.19641,1.60681 -0.26285,0.0946 -0.55219,0.0852 -0.82828,0.12787 -0.07,-0.10791 -0.20204,-0.19535 -0.21,-0.32373 -0.0853,-1.37613 2.16958,-3.62397 2.80299,-4.77028 0.40897,-0.66348 2.68742,-4.08735 2.36293,-4.88746 -0.0509,-0.12542 -0.23327,-0.13735 -0.3499,-0.20602 -0.25357,0.0387 -0.51592,0.0395 -0.76072,0.11612 -0.40339,0.12627 -0.77627,0.64139 -1.17028,0.48833 -0.3361,-0.13057 1.22244,-0.76385 0.906,-0.591 -2.01665,1.10149 -3.88194,2.46488 -5.89046,3.58075 -1.10842,0.66797 -2.20018,1.36335 -3.30876,2.03106 -1.16483,0.70159 -2.32205,1.41721 -3.51098,2.07713 -0.23617,0.13108 -0.48647,0.276 -0.75615,0.29134 -0.15907,0.009 -0.34559,-0.0845 -0.42206,-0.22431 -0.0772,-0.14104 0.0241,-0.32062 0.0362,-0.48093 0.33238,-0.98548 0.82768,-1.90968 1.30084,-2.83349 0.0113,-0.0219 0.0433,-0.0236 0.065,-0.0354 0.663,-0.41068 1.32599,-0.82135 1.98899,-1.23203 -2.31277,1.79599 -4.3146,4.80304 -7.43404,5.12709 -0.13133,-0.13959 -0.33429,-0.23665 -0.39399,-0.41877 -0.35035,-1.06869 1.77,-4.58903 2.01625,-5.87745 0.48134,-1.79585 0.27657,-2.2066 -1.59499,-1.65778 -2.22074,0.80679 -4.27265,2.03037 -6.49464,2.84324 -4.40599,1.86107 -8.91219,3.51703 -13.51521,4.8215 -0.32382,0.0726 -1.58208,0.40825 -2.07366,0.3685 -0.26185,-0.0212 -0.82592,-0.33144 -0.61685,-0.49053 1.57716,-1.20015 1.98295,-1.32427 3.29078,-1.84669 2.66345,-0.85692 5.3008,-1.78971 7.9744,-2.61427 0.30906,-0.0907 1.1086,-0.53841 0.9272,-0.27223 -1.37229,2.0135 -4.14694,2.31838 -6.12255,3.37356 -2.39798,1.15583 -4.7741,2.36394 -7.19719,3.46679 -0.7098,0.32307 -2.91734,1.32219 -3.82401,1.51548 -0.3225,0.0688 -0.65941,-0.0109 -0.98911,-0.0164 -0.0525,-0.13097 -0.17072,-0.25245 -0.15743,-0.39292 0.0991,-1.04673 1.78296,-2.70285 2.12713,-3.76015 1.13324,-1.85351 2.13571,-3.76223 2.85433,-5.8192 0.13088,-0.31773 0.24961,-0.64075 0.39265,-0.9532 0.0694,-0.15151 0.27387,-0.27267 0.2436,-0.43653 -0.0895,-0.48453 -4.35804,1.93924 -4.62086,2.04604 -2.9482,1.55165 -5.93367,3.10361 -9.12656,4.09233 0,0 2.27315,-1.7211 2.27315,-1.7211 z"
       inkscape:connector-curvature="0" />
    <path
       style="opacity:1;fill:#121212;fill-opacity:1;fill-rule:nonzero;stroke:none;stroke-width:2;stroke-linecap:round;stroke-linejoin:round;stroke-miterlimit:4;stroke-dasharray:none;stroke-dashoffset:0;stroke-opacity:1"
       d="m 401.27013,319.95667 c 0,0 50.16042,-5.56313 69.39068,-6.07107 19.15002,-0.50581 40.33993,1 40.33993,1 l 8.33375,10.79351 c 0,0 -27.97463,5.81063 -49.43129,6.44988 -21.90165,0.6525 -77.72444,-1.12627 -77.72444,-1.12627 z"
       id="rect4973"
       inkscape:connector-curvature="0"
       sodipodi:nodetypes="csccscc" />
    <rect
       style="opacity:1;fill:#7c7c7c;fill-opacity:1;fill-rule:nonzero;stroke:none;stroke-width:2;stroke-linecap:round;stroke-linejoin:round;stroke-miterlimit:4;stroke-dasharray:none;stroke-dashoffset:0;stroke-opacity:1"
       id="rect4976"
       width="44.369415"
       height="13.253604"
       x="442.53448"
       y="336.50903"
       ry="2.9286604"
       transform="matrix(0.99902422,-0.04416558,0.02215452,0.99975456,0,0)" />
    <g
       id="g5077"
       transform="matrix(1.1488591,0,0,1.0666263,-70.021907,-21.863563)">
      <rect
         transform="matrix(0.84858399,-0.52906069,0.52906069,0.84858399,0,0)"
         ry="0"
         y="521.0733"
         x="219.95793"
         height="2.7678571"
         width="5.8035712"
         id="rect5014"
         style="opacity:1;fill:#4d4d4d;fill-opacity:1;fill-rule:nonzero;stroke:none;stroke-width:2;stroke-linecap:round;stroke-linejoin:round;stroke-miterlimit:4;stroke-dasharray:none;stroke-dashoffset:0;stroke-opacity:1" />
      <rect
         transform="matrix(0.84858399,-0.52906069,0.52906069,0.84858399,0,0)"
         ry="0"
         y="521.16571"
         x="226.26598"
         height="2.7678571"
         width="5.8035712"
         id="rect5014-5"
         style="opacity:1;fill:#4d4d4d;fill-opacity:1;fill-rule:nonzero;stroke:none;stroke-width:2;stroke-linecap:round;stroke-linejoin:round;stroke-miterlimit:4;stroke-dasharray:none;stroke-dashoffset:0;stroke-opacity:1" />
      <path
         sodipodi:nodetypes="cscscc"
         inkscape:connector-curvature="0"
         id="rect5014-5-9"
         d="m 473.44827,319.24089 c 0,0 4.09154,-2.03658 5.6391,-1.38294 0.84992,0.35897 1.19651,2.43804 1.19651,2.43804 0,0 -1.98063,-0.0512 -2.73026,0.0888 -0.95117,0.17762 -2.64098,1.20487 -2.64098,1.20487 z"
         style="opacity:1;fill:#4d4d4d;fill-opacity:1;fill-rule:nonzero;stroke:none;stroke-width:2;stroke-linecap:round;stroke-linejoin:round;stroke-miterlimit:4;stroke-dasharray:none;stroke-dashoffset:0;stroke-opacity:1" />
      <path
         sodipodi:nodetypes="cscscc"
         inkscape:connector-curvature="0"
         id="rect5014-5-9-1"
         d="m 480.56946,320.62425 c 0,0 -0.10748,4.56911 -1.40761,5.63299 -0.71403,0.58429 -2.71468,-0.0791 -2.71468,-0.0791 0,0 0.96931,-1.72798 1.19521,-2.45635 0.28632,-0.92428 0.1664,-2.89806 0.1664,-2.89806 z"
         style="opacity:1;fill:#4d4d4d;fill-opacity:1;fill-rule:nonzero;stroke:none;stroke-width:2;stroke-linecap:round;stroke-linejoin:round;stroke-miterlimit:4;stroke-dasharray:none;stroke-dashoffset:0;stroke-opacity:1" />
    </g>
  </g>
</svg>
