<?xml version="1.0" encoding="UTF-8" standalone="no"?>
<!-- Created with Inkscape (http://www.inkscape.org/) -->

<svg
   xmlns:dc="http://purl.org/dc/elements/1.1/"
   xmlns:cc="http://creativecommons.org/ns#"
   xmlns:rdf="http://www.w3.org/1999/02/22-rdf-syntax-ns#"
   xmlns:svg="http://www.w3.org/2000/svg"
   xmlns="http://www.w3.org/2000/svg"
   xmlns:sodipodi="http://sodipodi.sourceforge.net/DTD/sodipodi-0.dtd"
   xmlns:inkscape="http://www.inkscape.org/namespaces/inkscape"
   width="183.90559"
   height="150.871"
   id="svg4488"
   version="1.1"
   inkscape:version="0.48.4 r9939"
   sodipodi:docname="dango.svg">
  <defs
     id="defs4490">
    <filter
       color-interpolation-filters="sRGB"
       inkscape:collect="always"
       id="filter4304"
       x="-0.45415086"
       width="1.9083017"
       y="-0.50195694"
       height="2.0039139">
      <feGaussianBlur
         inkscape:collect="always"
         stdDeviation="3.7315067"
         id="feGaussianBlur4306" />
    </filter>
  </defs>
  <sodipodi:namedview
     id="base"
     pagecolor="#ffffff"
     bordercolor="#666666"
     borderopacity="1.0"
     inkscape:pageopacity="0.0"
     inkscape:pageshadow="2"
     inkscape:zoom="1.4"
     inkscape:cx="234.75539"
     inkscape:cy="15.243016"
     inkscape:document-units="px"
     inkscape:current-layer="layer1"
     showgrid="false"
     fit-margin-top="0"
     fit-margin-left="0"
     fit-margin-right="0"
     fit-margin-bottom="0"
     inkscape:window-width="1280"
     inkscape:window-height="782"
     inkscape:window-x="0"
     inkscape:window-y="18"
     inkscape:window-maximized="1" />
  <metadata
     id="metadata4493">
    <rdf:RDF>
      <cc:Work
         rdf:about="">
        <dc:format>image/svg+xml</dc:format>
        <dc:type
           rdf:resource="http://purl.org/dc/dcmitype/StillImage" />
        <dc:title />
      </cc:Work>
    </rdf:RDF>
  </metadata>
  <g
     inkscape:label="Layer 1"
     inkscape:groupmode="layer"
     id="layer1"
     transform="translate(-276.61863,-382.64096)">
    <path
       sodipodi:nodetypes="ssssss"
       inkscape:connector-curvature="0"
       id="path4430"
       d="m 328.33854,528.5113 c -37.34527,-0.1733 -55.53264,-36.3729 -47.4029,-76.1063 8.12974,-39.7334 60.487,-72.0496 97.5697,-66.7961 62.3,8.8259 86.2079,58.0395 78.0782,97.7729 -4.0601,19.8429 -25.0235,37.9682 -41.3768,43.203 -27.5018,8.8038 -57.8782,2.0609 -86.8682,1.9265 z"
       style="fill:#ffdbff;fill-opacity:1;stroke:#000000;stroke-width:4.81242895;stroke-miterlimit:4;stroke-opacity:1;stroke-dasharray:none" />
    <path
       sodipodi:nodetypes="ccc"
       inkscape:connector-curvature="0"
       id="path4432"
       d="m 395.14624,417.0146 c 2.1635,3.8858 5.2327,18.1009 2.0178,22.6205 -3.4624,1.8279 -8.0713,-28.4352 -2.0178,-22.6205 z"
       style="fill:#000000;fill-opacity:1;stroke:none"
       inkscape:export-filename="/home/ruijan/Pixelnos/MallowsVsDango/Resources/res/dango/eyes.png"
       inkscape:export-xdpi="22.5"
       inkscape:export-ydpi="22.5" />
    <path
       sodipodi:open="true"
       sodipodi:end="8.0708716"
       sodipodi:start="1.7893773"
       d="m 1016.4837,2981.5154 c -5.3147,-1.0681 -8.666,-5.832 -7.4855,-10.6406 1.1806,-4.8085 6.446,-7.8407 11.7606,-6.7726 5.3147,1.0682 8.6661,5.8321 7.4856,10.6406 -1.1792,4.8028 -6.4341,7.8346 -11.7444,6.7759"
       sodipodi:ry="8.9188042"
       sodipodi:rx="9.857626"
       sodipodi:cy="2972.8088"
       sodipodi:cx="1018.6213"
       id="path4434"
       style="fill:#ff5c69;fill-opacity:1;stroke:none;filter:url(#filter4304)"
       sodipodi:type="arc"
       transform="translate(-673.11845,-2509.6694)" />
    <path
       transform="matrix(0.86278444,0,0,0.85557656,-447.21088,-2085.2549)"
       sodipodi:type="arc"
       style="fill:#ff5c69;fill-opacity:1;stroke:none;filter:url(#filter4304)"
       id="path4436"
       sodipodi:cx="1018.6213"
       sodipodi:cy="2972.8088"
       sodipodi:rx="9.857626"
       sodipodi:ry="8.9188042"
       d="m 1016.4837,2981.5154 c -5.3147,-1.0681 -8.666,-5.832 -7.4855,-10.6406 1.1806,-4.8085 6.446,-7.8407 11.7606,-6.7726 5.3147,1.0682 8.6661,5.8321 7.4856,10.6406 -1.1792,4.8028 -6.4341,7.8346 -11.7444,6.7759"
       sodipodi:start="1.7893773"
       sodipodi:end="8.0708716"
       sodipodi:open="true" />
    <path
       style="fill:#000000;fill-opacity:1;stroke:none"
       d="m 374.24584,416.681 c 2.1592,3.888 5.2129,18.1065 1.9931,22.6226 -3.4645,1.824 -8.0402,-28.444 -1.9931,-22.6226 z"
       id="path4438"
       inkscape:connector-curvature="0"
       sodipodi:nodetypes="ccc"
       inkscape:export-filename="/home/ruijan/Pixelnos/MallowsVsDango/Resources/res/dango/eyes.png"
       inkscape:export-xdpi="22.5"
       inkscape:export-ydpi="22.5" />
  </g>
</svg>
